M48
INCH
T1C0.0138
T2C0.0138
T3C0.0157
T4C0.0236
T5C0.0315
T6C0.0394
T7C0.0787
%
G90
G05
T1
X1.7057Y-1.9882
X1.7057Y-2.0276
X1.7057Y-2.0669
X1.7057Y-2.1063
X1.7057Y-2.1457
X1.7057Y-2.185
X1.7057Y-2.2244
X1.7057Y-2.2638
X1.7057Y-2.3031
X1.7057Y-2.3425
X1.7057Y-2.3819
X1.7057Y-2.4213
X1.7057Y-2.4606
X1.7057Y-2.5
X1.7057Y-2.5394
X1.7057Y-2.5787
X1.7057Y-2.6181
X1.7057Y-2.6575
X1.7057Y-2.6969
X1.7057Y-2.7362
X1.7057Y-2.7756
X1.7057Y-2.815
X1.7057Y-2.8543
X1.7087Y-2.8947
X1.7403Y-2.8948
X1.7487Y-2.2257
X1.7491Y-2.8405
X1.7569Y-2.0472
X1.7598Y-2.0748
X1.7638Y-2.0079
X1.7638Y-2.2953
X1.7677Y-2.6339
X1.7701Y-2.7785
X1.7717Y-2.5709
X1.7717Y-2.6693
X1.7717Y-2.7165
X1.7717Y-2.8947
X1.773Y-2.3835
X1.773Y-2.4335
X1.773Y-2.4835
X1.7756Y-2.8465
X1.7913Y-2.1969
X1.7992Y-1.9982
X1.7992Y-2.6811
X1.811Y-2.6299
X1.8155Y-2.244
X1.8189Y-2.7677
X1.8228Y-2.7362
X1.8268Y-2.7992
X1.8268Y-2.8307
X1.8307Y-2.2047
X1.8344Y-2.651
X1.8346Y-2.7126
X1.8386Y-2.0039
X1.8504Y-2.2362
X1.8504Y-2.8947
X1.874Y-2.0
X1.8806Y-2.2452
X1.8855Y-2.8949
X1.8942Y-2.5167
X1.8964Y-2.1906
X1.8975Y-2.6358
X1.8976Y-2.4667
X1.8978Y-2.6673
X1.8988Y-2.1591
X1.9055Y-2.0
X1.9055Y-2.3839
X1.9103Y-2.1295
X1.9104Y-2.0591
X1.9117Y-2.233
X1.9129Y-2.5909
X1.9173Y-2.0276
X1.9213Y-2.8945
X1.9409Y-2.0039
X1.9422Y-2.0524
X1.9464Y-2.7681
X1.9606Y-2.7402
X1.9623Y-2.0281
X1.9643Y-2.8454
X1.9769Y-2.7755
X1.9898Y-2.8356
X1.9921Y-2.7402
X2.0035Y-2.7792
X2.0079Y-2.0545
X2.0152Y-2.8356
X2.0195Y-2.1969
X2.0195Y-2.2756
X2.0195Y-2.3543
X2.0195Y-2.4331
X2.0195Y-2.5118
X2.0195Y-2.5906
X2.0276Y-2.7323
X2.0311Y-2.7802
X2.0354Y-2.0512
X2.0418Y-2.8371
X2.0468Y-2.8947
X2.0472Y-2.8661
X2.051Y-2.2362
X2.051Y-2.315
X2.051Y-2.3937
X2.051Y-2.4724
X2.051Y-2.5512
X2.051Y-2.626
X2.0512Y-2.1575
X2.0591Y-2.7362
X2.0668Y-2.8403
X2.0737Y-2.8947
X2.0825Y-2.1969
X2.0825Y-2.2756
X2.0825Y-2.3543
X2.0825Y-2.4331
X2.0825Y-2.5118
X2.0825Y-2.5906
X2.0827Y-2.8661
X2.0866Y-1.9843
X2.0914Y-2.7717
X2.0953Y-2.7365
X2.0979Y-2.8374
X2.1012Y-2.8947
X2.114Y-2.2362
X2.114Y-2.315
X2.114Y-2.3937
X2.114Y-2.4724
X2.114Y-2.5512
X2.114Y-2.626
X2.1142Y-2.8622
X2.1163Y-2.1575
X2.1259Y-2.821
X2.1284Y-2.8947
X2.1414Y-2.8709
X2.1455Y-2.1969
X2.1455Y-2.2756
X2.1455Y-2.3543
X2.1455Y-2.4331
X2.1455Y-2.5118
X2.1455Y-2.5906
X2.1457Y-1.9843
X2.1464Y-2.8366
X2.1556Y-2.8947
X2.1587Y-2.771
X2.1636Y-2.8571
X2.1766Y-2.0554
X2.177Y-2.1575
X2.177Y-2.2362
X2.177Y-2.315
X2.177Y-2.3937
X2.177Y-2.4724
X2.177Y-2.5512
X2.177Y-2.626
X2.1815Y-2.7886
X2.1929Y-2.7362
X2.2008Y-2.7638
X2.2047Y-2.0394
X2.2054Y-1.9942
X2.2085Y-2.1969
X2.2085Y-2.2756
X2.2085Y-2.3543
X2.2085Y-2.4331
X2.2085Y-2.5118
X2.2085Y-2.5906
X2.2165Y-2.8307
X2.2203Y-2.7367
X2.2323Y-2.0591
X2.2327Y-2.7661
X2.2348Y-2.8496
X2.24Y-2.2362
X2.24Y-2.315
X2.24Y-2.3937
X2.24Y-2.4724
X2.24Y-2.5512
X2.24Y-2.626
X2.2402Y-2.811
X2.2413Y-2.8756
X2.2413Y-2.9032
X2.2417Y-2.9385
X2.2651Y-2.0554
X2.2675Y-2.7333
X2.2679Y-2.8042
X2.2715Y-2.1969
X2.2715Y-2.3543
X2.2715Y-2.4331
X2.2715Y-2.5118
X2.2715Y-2.5906
X2.2718Y-2.2809
X2.2835Y-2.9134
X2.2844Y-2.751
X2.2866Y-2.8316
X2.3024Y-2.9393
X2.3046Y-2.765
X2.311Y-2.7402
X2.3115Y-2.8561
X2.3228Y-2.9134
X2.3273Y-2.7782
X2.3321Y-2.0191
X2.3414Y-2.8672
X2.3425Y-2.7362
X2.3432Y-2.7995
X2.3575Y-2.0191
X2.3734Y-2.8776
X2.374Y-2.1437
X2.3757Y-2.536
X2.3764Y-2.3287
X2.378Y-2.5669
X2.378Y-2.5945
X2.3793Y-2.4151
X2.3809Y-2.0886
X2.3825Y-2.3838
X2.3858Y-2.0191
X2.3871Y-2.4746
X2.3897Y-2.2579
X2.3898Y-2.5079
X2.3943Y-2.3546
X2.3976Y-2.4449
X2.399Y-2.6931
X2.4003Y-2.9398
X2.4013Y-2.8773
X2.4055Y-2.3189
X2.4064Y-2.8071
X2.4073Y-2.5667
X2.4076Y-2.5382
X2.4101Y-2.4215
X2.4108Y-2.0892
X2.4134Y-2.7756
X2.4173Y-2.0197
X2.4212Y-2.2579
X2.4262Y-2.8857
X2.4291Y-2.9173
X2.4337Y-2.8041
X2.4515Y-2.0303
X2.4625Y-2.3801
X2.4724Y-2.0551
X2.4858Y-2.1454
X2.519Y-2.3799
X2.5228Y-2.2987
X2.5405Y-2.7375
X2.5433Y-2.1457
X2.5462Y-2.6915
X2.5472Y-2.6575
X2.5512Y-2.8268
X2.5512Y-2.8583
X2.5551Y-2.7717
X2.5551Y-2.7992
X2.5551Y-2.8898
X2.5556Y-2.3823
X2.5578Y-2.9398
X2.5677Y-2.3062
X2.5709Y-2.1417
X2.6363Y-2.1039
X2.6562Y-2.9398
X2.6575Y-2.5906
X2.6732Y-2.122
X2.6772Y-2.0906
X2.6772Y-2.8346
X2.6929Y-2.6142
X2.7007Y-2.7576
X2.7205Y-2.6772
X2.7362Y-2.6063
X2.7423Y-2.7608
X2.746Y-2.6825
X2.748Y-2.6575
X2.7495Y-2.714
X2.7546Y-2.9398
X2.7913Y-2.3976
X2.7953Y-2.3228
X2.7953Y-2.8346
X2.8084Y-2.7149
X2.815Y-2.1457
X2.8344Y-1.9815
X2.8346Y-2.0197
X2.8346Y-2.3228
X2.8346Y-2.4173
X2.838Y-2.4669
X2.853Y-2.9398
X2.878Y-2.3976
X2.878Y-2.8386
X2.8836Y-2.7737
X2.9074Y-2.5335
X2.9094Y-2.2913
X2.9131Y-1.9815
X2.9134Y-2.0197
X2.914Y-2.752
X2.9232Y-2.5
X2.9239Y-2.4751
X2.9368Y-2.5306
X2.937Y-2.311
X2.9515Y-2.9398
X2.9685Y-2.1457
X3.0285Y-2.4203
X3.0315Y-2.7756
X3.0442Y-2.4488
X3.0472Y-2.5157
X3.0499Y-2.9398
X3.0509Y-1.9815
X3.1102Y-2.0472
X3.1274Y-2.7401
X3.1297Y-1.9815
X3.1483Y-2.9398
X3.1679Y-2.5413
X3.1679Y-2.5689
X3.2368Y-2.8209
X3.2467Y-2.9398
X3.2478Y-1.9815
X3.2655Y-2.1653
X3.2716Y-2.3375
X3.2756Y-2.8268
X3.2871Y-1.9815
X3.2939Y-2.3714
X3.3452Y-2.9398
X3.3538Y-2.5058
X3.3661Y-2.0472
X3.3692Y-2.6301
X3.3856Y-1.9815
X3.3858Y-2.2362
X3.4057Y-2.7276
X3.4118Y-2.803
X3.437Y-2.2165
X3.4436Y-2.9398
X3.4567Y-2.1654
X3.4624Y-2.3359
X3.4632Y-2.3701
X3.484Y-1.9815
X3.5039Y-2.5
X3.5039Y-2.6378
X3.542Y-2.9398
X3.5433Y-2.2165
X3.5824Y-1.9815
X3.5827Y-2.7165
X3.5866Y-2.2264
X3.622Y-2.6378
X3.6404Y-2.9398
X3.6417Y-2.2165
X3.6614Y-2.0472
X3.6808Y-1.9815
X3.6894Y-2.3315
X3.6909Y-2.4705
X3.6921Y-2.3666
X3.7008Y-2.7165
X3.7087Y-2.1614
X3.7117Y-2.2382
X3.7389Y-2.9398
X3.7402Y-2.6378
X3.7793Y-1.9815
X3.7913Y-2.8632
X3.8008Y-2.6257
X3.8287Y-2.3327
X3.8373Y-2.9398
X3.8577Y-2.25
X3.8777Y-1.9815
X3.9331Y-2.7362
X3.9357Y-2.9398
X3.9449Y-2.8622
X3.9665Y-2.4803
X3.9761Y-1.9815
X3.9784Y-2.3396
X3.9966Y-2.0364
X3.9966Y-2.1434
X4.0341Y-2.9398
X4.0364Y-2.6415
X4.0551Y-2.2589
X4.0669Y-2.7362
X4.0745Y-1.9815
X4.0965Y-2.1504
X4.1109Y-2.3423
X4.1292Y-2.6961
X4.1326Y-2.9398
X4.1336Y-1.9815
X4.1535Y-2.5466
X4.1562Y-2.1451
X4.1772Y-2.4882
X4.231Y-2.9398
X4.2345Y-2.8595
X4.252Y-2.6575
X4.2714Y-1.9815
X4.3173Y-2.5728
X4.3189Y-2.8228
X4.3294Y-2.9398
X4.3307Y-2.126
X4.3307Y-2.3425
X4.3465Y-2.687
X4.3659Y-2.8566
X4.3698Y-1.9815
X4.378Y-2.687
X4.4278Y-2.9398
X4.4326Y-2.8566
X4.4567Y-2.6378
X4.4641Y-2.7864
X4.4683Y-1.9815
X4.4764Y-2.1575
X4.5263Y-2.9398
X4.5315Y-2.1811
X4.5382Y-2.5394
X4.5394Y-2.4764
X4.5418Y-2.3361
X4.5667Y-1.9815
X4.6063Y-2.4843
X4.6145Y-2.337
X4.6154Y-2.5728
X4.6247Y-2.9398
X4.6496Y-2.6438
X4.6651Y-1.9815
X4.6693Y-2.0945
X4.685Y-2.4409
X4.6886Y-2.8206
X4.689Y-2.2087
X4.7047Y-2.3425
X4.7231Y-2.9398
X4.7333Y-2.7829
X4.748Y-2.6457
X4.7635Y-1.9815
X4.7638Y-2.126
X4.8215Y-2.9398
X4.8346Y-2.6457
X4.8425Y-2.5591
X4.8465Y-2.1378
X4.8552Y-2.2161
X4.862Y-1.9815
X4.872Y-2.3917
X4.92Y-2.9398
X4.9291Y-2.8504
X4.9311Y-2.2441
X4.937Y-2.6457
X4.9534Y-2.1363
X4.9604Y-1.9815
X4.9606Y-2.4016
X4.9606Y-2.5591
X4.9606Y-2.6929
X4.9909Y-2.6843
X5.0079Y-2.8661
X5.0184Y-2.9398
X5.0352Y-2.6585
X5.0588Y-1.9815
X5.064Y-2.6713
X5.0689Y-2.7822
X5.1073Y-2.7146
X5.1168Y-2.9398
X5.1181Y-2.5984
X5.1265Y-2.653
X5.1499Y-2.7847
X5.1506Y-2.1881
X5.1572Y-1.9815
X5.1852Y-2.3911
X5.189Y-2.5906
X5.2126Y-2.2756
X5.2126Y-2.3071
X5.2138Y-2.1916
X5.2152Y-2.9398
X5.2165Y-2.3425
X5.2194Y-2.3947
X5.2313Y-2.0574
X5.2323Y-2.6417
X5.2441Y-2.8425
X5.252Y-2.5039
X5.2557Y-1.9815
X5.2559Y-2.185
X5.2639Y-2.3345
X5.3137Y-2.9398
X5.3425Y-2.3858
X5.3541Y-1.9815
X5.3593Y-2.1204
X5.3622Y-2.6772
X5.3858Y-2.8661
X5.4121Y-2.9398
X5.4252Y-2.3543
X5.4261Y-2.143
X5.4409Y-2.3898
X5.4409Y-2.6063
X5.4409Y-2.8661
X5.4449Y-2.3228
X5.4488Y-2.8346
X5.4724Y-2.6772
X5.4908Y-2.1412
X5.5Y-2.4016
X5.5039Y-2.0787
X5.5059Y-1.9821
X5.5105Y-2.9398
X5.5512Y-2.5079
X5.5827Y-2.4724
X5.5945Y-2.252
X5.6089Y-2.9398
X5.6142Y-2.378
X5.6181Y-2.3465
X5.622Y-2.5276
X5.6387Y-2.2529
X5.6486Y-2.4214
X5.649Y-2.471
X5.6496Y-2.3465
X5.6496Y-2.5276
X5.7074Y-2.9398
X5.7402Y-1.997
X5.7402Y-2.0315
X5.748Y-2.3622
X5.748Y-2.4803
X5.7638Y-2.0945
X5.7874Y-2.3622
X5.8058Y-2.9398
X5.8135Y-2.2494
X5.9094Y-2.9213
X5.9164Y-2.0086
X5.9213Y-2.063
X5.9227Y-2.3223
X5.9227Y-2.401
X5.9227Y-2.4797
X5.9227Y-2.5585
X5.9227Y-2.6766
X5.9227Y-2.7553
X5.9227Y-2.8341
T2
X2.9927Y-2.6063
X2.9927Y-2.6457
X2.9927Y-2.685
X3.0321Y-2.6063
X3.0321Y-2.6457
X3.0321Y-2.685
X3.0715Y-2.6063
X3.0715Y-2.6457
X3.0715Y-2.685
T3
X1.7758Y-2.1425
X1.7808Y-2.1099
X2.5591Y-2.0817
X2.5876Y-2.06
X2.811Y-2.7913
X2.8156Y-2.6181
X2.8418Y-2.6427
X2.8465Y-2.7913
X2.8484Y-2.5971
X2.872Y-2.6207
X3.1817Y-2.6457
X3.2148Y-2.6452
X3.247Y-2.7323
X3.2584Y-2.4931
X5.3386Y-2.1496
X5.6102Y-2.3071
X5.6102Y-2.5669
X5.6496Y-2.3071
X5.6496Y-2.5669
T5
X5.6457Y-2.7087
X5.6457Y-2.8504
X5.7874Y-2.7087
X5.7874Y-2.8504
T6
X4.2063Y-2.0315
X4.3063Y-2.0315
X4.4063Y-2.0315
X4.5063Y-2.0315
X4.6063Y-2.0315
X4.7063Y-2.0315
X4.8063Y-2.0315
X4.9063Y-2.0315
X5.0063Y-2.0315
X5.1063Y-2.0315
T7
X2.5549Y-2.4902
X5.3896Y-2.4902
T4
G00X5.7026Y-2.2665
M15
G01X5.7459Y-2.2665
M16
G05
G00X5.7026Y-2.6067
M15
G01X5.7459Y-2.6067
M16
G05
G00X5.877Y-2.2665
M15
G01X5.9006Y-2.2665
M16
G05
G00X5.877Y-2.6067
M15
G01X5.9006Y-2.6067
M16
G05
M30
