%TF.GenerationSoftware,KiCad,Pcbnew,8.0.3*%
%TF.CreationDate,2025-03-20T13:05:17+01:00*%
%TF.ProjectId,Methanesense,4d657468-616e-4657-9365-6e73652e6b69,v2.0.0*%
%TF.SameCoordinates,Original*%
%TF.FileFunction,Paste,Top*%
%TF.FilePolarity,Positive*%
%FSLAX46Y46*%
G04 Gerber Fmt 4.6, Leading zero omitted, Abs format (unit mm)*
G04 Created by KiCad (PCBNEW 8.0.3) date 2025-03-20 13:05:17*
%MOMM*%
%LPD*%
G01*
G04 APERTURE LIST*
G04 Aperture macros list*
%AMRoundRect*
0 Rectangle with rounded corners*
0 $1 Rounding radius*
0 $2 $3 $4 $5 $6 $7 $8 $9 X,Y pos of 4 corners*
0 Add a 4 corners polygon primitive as box body*
4,1,4,$2,$3,$4,$5,$6,$7,$8,$9,$2,$3,0*
0 Add four circle primitives for the rounded corners*
1,1,$1+$1,$2,$3*
1,1,$1+$1,$4,$5*
1,1,$1+$1,$6,$7*
1,1,$1+$1,$8,$9*
0 Add four rect primitives between the rounded corners*
20,1,$1+$1,$2,$3,$4,$5,0*
20,1,$1+$1,$4,$5,$6,$7,0*
20,1,$1+$1,$6,$7,$8,$9,0*
20,1,$1+$1,$8,$9,$2,$3,0*%
%AMFreePoly0*
4,1,19,0.290204,0.301344,0.321117,0.247801,0.322490,0.232106,0.322490,-0.157228,0.301344,-0.215326,0.296017,-0.221139,0.221139,-0.296017,0.165105,-0.322146,0.157228,-0.322490,-0.232106,-0.322490,-0.290204,-0.301344,-0.321117,-0.247801,-0.322490,-0.232106,-0.322490,0.232106,-0.301344,0.290204,-0.247801,0.321117,-0.232106,0.322490,0.232106,0.322490,0.290204,0.301344,0.290204,0.301344,
$1*%
%AMFreePoly1*
4,1,21,0.231572,0.385173,0.236504,0.380653,0.300030,0.317127,0.322198,0.269587,0.322490,0.262904,0.322490,-0.262904,0.304550,-0.312195,0.300030,-0.317127,0.236504,-0.380653,0.188964,-0.402821,0.182281,-0.403113,-0.245807,-0.403113,-0.295098,-0.385173,-0.321325,-0.339746,-0.322490,-0.326430,-0.322490,0.326430,-0.304550,0.375721,-0.259123,0.401948,-0.245807,0.403113,0.182281,0.403113,
0.231572,0.385173,0.231572,0.385173,$1*%
%AMFreePoly2*
4,1,19,0.215326,0.301344,0.221139,0.296017,0.296017,0.221139,0.322146,0.165105,0.322490,0.157228,0.322490,-0.232106,0.301344,-0.290204,0.247801,-0.321117,0.232106,-0.322490,-0.232106,-0.322490,-0.290204,-0.301344,-0.321117,-0.247801,-0.322490,-0.232106,-0.322490,0.232106,-0.301344,0.290204,-0.247801,0.321117,-0.232106,0.322490,0.157228,0.322490,0.215326,0.301344,0.215326,0.301344,
$1*%
%AMFreePoly3*
4,1,21,0.375721,0.304550,0.401948,0.259123,0.403113,0.245807,0.403113,-0.182281,0.385173,-0.231572,0.380653,-0.236504,0.317127,-0.300030,0.269587,-0.322198,0.262904,-0.322490,-0.262904,-0.322490,-0.312195,-0.304550,-0.317127,-0.300030,-0.380653,-0.236504,-0.402821,-0.188964,-0.403113,-0.182281,-0.403113,0.245807,-0.385173,0.295098,-0.339746,0.321325,-0.326430,0.322490,0.326430,0.322490,
0.375721,0.304550,0.375721,0.304550,$1*%
%AMFreePoly4*
4,1,21,0.312195,0.304550,0.317127,0.300030,0.380653,0.236504,0.402821,0.188964,0.403113,0.182281,0.403113,-0.245807,0.385173,-0.295098,0.339746,-0.321325,0.326430,-0.322490,-0.326430,-0.322490,-0.375721,-0.304550,-0.401948,-0.259123,-0.403113,-0.245807,-0.403113,0.182281,-0.385173,0.231572,-0.380653,0.236504,-0.317127,0.300030,-0.269587,0.322198,-0.262904,0.322490,0.262904,0.322490,
0.312195,0.304550,0.312195,0.304550,$1*%
%AMFreePoly5*
4,1,19,0.290204,0.301344,0.321117,0.247801,0.322490,0.232106,0.322490,-0.232106,0.301344,-0.290204,0.247801,-0.321117,0.232106,-0.322490,-0.157228,-0.322490,-0.215326,-0.301344,-0.221139,-0.296017,-0.296017,-0.221139,-0.322146,-0.165105,-0.322490,-0.157228,-0.322490,0.232106,-0.301344,0.290204,-0.247801,0.321117,-0.232106,0.322490,0.232106,0.322490,0.290204,0.301344,0.290204,0.301344,
$1*%
%AMFreePoly6*
4,1,21,0.295098,0.385173,0.321325,0.339746,0.322490,0.326430,0.322490,-0.326430,0.304550,-0.375721,0.259123,-0.401948,0.245807,-0.403113,-0.182281,-0.403113,-0.231572,-0.385173,-0.236504,-0.380653,-0.300030,-0.317127,-0.322198,-0.269587,-0.322490,-0.262904,-0.322490,0.262904,-0.304550,0.312195,-0.300030,0.317127,-0.236504,0.380653,-0.188964,0.402821,-0.182281,0.403113,0.245807,0.403113,
0.295098,0.385173,0.295098,0.385173,$1*%
%AMFreePoly7*
4,1,19,0.290204,0.301344,0.321117,0.247801,0.322490,0.232106,0.322490,-0.232106,0.301344,-0.290204,0.247801,-0.321117,0.232106,-0.322490,-0.232106,-0.322490,-0.290204,-0.301344,-0.321117,-0.247801,-0.322490,-0.232106,-0.322490,0.157228,-0.301344,0.215326,-0.296017,0.221139,-0.221139,0.296017,-0.165105,0.322146,-0.157228,0.322490,0.232106,0.322490,0.290204,0.301344,0.290204,0.301344,
$1*%
G04 Aperture macros list end*
%ADD10C,0.000000*%
%ADD11RoundRect,0.200000X-0.200000X-0.275000X0.200000X-0.275000X0.200000X0.275000X-0.200000X0.275000X0*%
%ADD12RoundRect,0.155000X-0.219203X0.000000X0.000000X-0.219203X0.219203X0.000000X0.000000X0.219203X0*%
%ADD13RoundRect,0.200000X0.200000X0.275000X-0.200000X0.275000X-0.200000X-0.275000X0.200000X-0.275000X0*%
%ADD14RoundRect,0.150000X-0.825000X-0.150000X0.825000X-0.150000X0.825000X0.150000X-0.825000X0.150000X0*%
%ADD15RoundRect,0.225000X-0.250000X0.225000X-0.250000X-0.225000X0.250000X-0.225000X0.250000X0.225000X0*%
%ADD16RoundRect,0.125000X0.137500X-0.125000X0.137500X0.125000X-0.137500X0.125000X-0.137500X-0.125000X0*%
%ADD17RoundRect,0.225000X-0.225000X-0.250000X0.225000X-0.250000X0.225000X0.250000X-0.225000X0.250000X0*%
%ADD18RoundRect,0.225000X0.225000X0.250000X-0.225000X0.250000X-0.225000X-0.250000X0.225000X-0.250000X0*%
%ADD19R,1.600000X1.000000*%
%ADD20RoundRect,0.200000X0.275000X-0.200000X0.275000X0.200000X-0.275000X0.200000X-0.275000X-0.200000X0*%
%ADD21R,3.000000X3.000000*%
%ADD22R,2.950000X3.000000*%
%ADD23RoundRect,0.250000X0.250000X0.475000X-0.250000X0.475000X-0.250000X-0.475000X0.250000X-0.475000X0*%
%ADD24RoundRect,0.218750X-0.256250X0.218750X-0.256250X-0.218750X0.256250X-0.218750X0.256250X0.218750X0*%
%ADD25RoundRect,0.250000X-0.475000X0.250000X-0.475000X-0.250000X0.475000X-0.250000X0.475000X0.250000X0*%
%ADD26R,0.900000X1.000000*%
%ADD27RoundRect,0.200000X-0.275000X0.200000X-0.275000X-0.200000X0.275000X-0.200000X0.275000X0.200000X0*%
%ADD28RoundRect,0.250000X0.475000X-0.250000X0.475000X0.250000X-0.475000X0.250000X-0.475000X-0.250000X0*%
%ADD29RoundRect,0.250000X-0.275000X-0.250000X0.275000X-0.250000X0.275000X0.250000X-0.275000X0.250000X0*%
%ADD30RoundRect,0.250000X-0.850000X-0.275000X0.850000X-0.275000X0.850000X0.275000X-0.850000X0.275000X0*%
%ADD31RoundRect,0.212500X0.212500X-0.212500X0.212500X0.212500X-0.212500X0.212500X-0.212500X-0.212500X0*%
%ADD32RoundRect,0.075000X0.075000X-0.350000X0.075000X0.350000X-0.075000X0.350000X-0.075000X-0.350000X0*%
%ADD33RoundRect,0.075000X0.350000X-0.075000X0.350000X0.075000X-0.350000X0.075000X-0.350000X-0.075000X0*%
%ADD34RoundRect,0.155000X-0.155000X0.155000X-0.155000X-0.155000X0.155000X-0.155000X0.155000X0.155000X0*%
%ADD35RoundRect,0.225000X0.250000X-0.225000X0.250000X0.225000X-0.250000X0.225000X-0.250000X-0.225000X0*%
%ADD36RoundRect,0.150000X-0.150000X0.512500X-0.150000X-0.512500X0.150000X-0.512500X0.150000X0.512500X0*%
%ADD37RoundRect,0.150000X0.150000X-0.825000X0.150000X0.825000X-0.150000X0.825000X-0.150000X-0.825000X0*%
%ADD38RoundRect,0.243750X0.456250X-0.243750X0.456250X0.243750X-0.456250X0.243750X-0.456250X-0.243750X0*%
%ADD39R,1.000000X1.000000*%
%ADD40R,1.100000X0.250000*%
%ADD41R,1.300000X0.650000*%
%ADD42R,1.030000X1.000000*%
%ADD43R,1.800000X0.480000*%
%ADD44R,0.540000X0.540000*%
%ADD45R,0.300000X0.540000*%
%ADD46R,0.540000X0.300000*%
%ADD47R,0.800000X0.800000*%
%ADD48R,0.300000X0.300000*%
%ADD49RoundRect,0.218750X0.256250X-0.218750X0.256250X0.218750X-0.256250X0.218750X-0.256250X-0.218750X0*%
%ADD50RoundRect,0.150000X0.512500X0.150000X-0.512500X0.150000X-0.512500X-0.150000X0.512500X-0.150000X0*%
%ADD51RoundRect,0.250000X0.850000X0.275000X-0.850000X0.275000X-0.850000X-0.275000X0.850000X-0.275000X0*%
%ADD52RoundRect,0.250000X0.275000X0.250000X-0.275000X0.250000X-0.275000X-0.250000X0.275000X-0.250000X0*%
%ADD53RoundRect,0.155000X0.000000X0.219203X-0.219203X0.000000X0.000000X-0.219203X0.219203X0.000000X0*%
%ADD54RoundRect,0.155000X-0.155000X-0.155000X0.155000X-0.155000X0.155000X0.155000X-0.155000X0.155000X0*%
%ADD55RoundRect,0.155000X0.000000X-0.219203X0.219203X0.000000X0.000000X0.219203X-0.219203X0.000000X0*%
%ADD56FreePoly0,180.000000*%
%ADD57FreePoly1,180.000000*%
%ADD58FreePoly2,180.000000*%
%ADD59FreePoly3,180.000000*%
%ADD60RoundRect,0.201557X0.201556X0.201556X-0.201556X0.201556X-0.201556X-0.201556X0.201556X-0.201556X0*%
%ADD61FreePoly4,180.000000*%
%ADD62FreePoly5,180.000000*%
%ADD63FreePoly6,180.000000*%
%ADD64FreePoly7,180.000000*%
%ADD65RoundRect,0.062500X0.337500X0.062500X-0.337500X0.062500X-0.337500X-0.062500X0.337500X-0.062500X0*%
%ADD66RoundRect,0.062500X0.062500X0.337500X-0.062500X0.337500X-0.062500X-0.337500X0.062500X-0.337500X0*%
%ADD67RoundRect,0.150000X0.500000X-0.150000X0.500000X0.150000X-0.500000X0.150000X-0.500000X-0.150000X0*%
%ADD68RoundRect,0.075000X0.575000X-0.075000X0.575000X0.075000X-0.575000X0.075000X-0.575000X-0.075000X0*%
%ADD69RoundRect,0.155000X0.155000X-0.155000X0.155000X0.155000X-0.155000X0.155000X-0.155000X-0.155000X0*%
%ADD70RoundRect,0.250000X0.850000X-0.375000X0.850000X0.375000X-0.850000X0.375000X-0.850000X-0.375000X0*%
%ADD71RoundRect,0.150000X0.150000X-0.512500X0.150000X0.512500X-0.150000X0.512500X-0.150000X-0.512500X0*%
G04 APERTURE END LIST*
D10*
%TO.C,AE1*%
G36*
X40993262Y-73501014D02*
G01*
X41993262Y-73501014D01*
X41993262Y-75001014D01*
X37993262Y-75001014D01*
X37993262Y-72001014D01*
X40993262Y-72001014D01*
X40993262Y-73501014D01*
G37*
%TD*%
D11*
%TO.C,R24*%
X97980000Y-62575000D03*
X99630000Y-62575000D03*
%TD*%
D12*
%TO.C,C30*%
X58460589Y-71160589D03*
X59139411Y-71839411D03*
%TD*%
D13*
%TO.C,R19*%
X67740057Y-58078948D03*
X66090057Y-58078948D03*
%TD*%
%TO.C,R26*%
X104250000Y-52200000D03*
X102600000Y-52200000D03*
%TD*%
D14*
%TO.C,Q1*%
X116925000Y-68695000D03*
X116925000Y-69965000D03*
X116925000Y-71235000D03*
X116925000Y-72505000D03*
X121875000Y-72505000D03*
X121875000Y-71235000D03*
X121875000Y-69965000D03*
X121875000Y-68695000D03*
%TD*%
D15*
%TO.C,C34*%
X62250000Y-53975000D03*
X62250000Y-55525000D03*
%TD*%
D16*
%TO.C,U6*%
X147212500Y-53249460D03*
X147212500Y-52449460D03*
X147212500Y-51649460D03*
X147212500Y-50849460D03*
X149587500Y-50849460D03*
X149587500Y-51649460D03*
X149587500Y-52449460D03*
X149587500Y-53249460D03*
%TD*%
D17*
%TO.C,C23*%
X56725000Y-51300000D03*
X58275000Y-51300000D03*
%TD*%
D15*
%TO.C,C38*%
X138600000Y-51825000D03*
X138600000Y-53375000D03*
%TD*%
D18*
%TO.C,C8*%
X129517508Y-54616010D03*
X127967508Y-54616010D03*
%TD*%
D19*
%TO.C,SW4*%
X104171407Y-55705683D03*
X104171407Y-58205683D03*
X104171407Y-60705683D03*
X101771407Y-55705683D03*
X101771407Y-58205683D03*
X101771407Y-60705683D03*
%TD*%
D12*
%TO.C,C27*%
X54000000Y-70541531D03*
X54678822Y-71220353D03*
%TD*%
D20*
%TO.C,R8*%
X131853848Y-69502889D03*
X131853848Y-67852889D03*
%TD*%
D13*
%TO.C,R18*%
X67750781Y-56566905D03*
X66100781Y-56566905D03*
%TD*%
D21*
%TO.C,AE1*%
X32493262Y-73501014D03*
X32493262Y-52501014D03*
D22*
X39518262Y-52501014D03*
%TD*%
D15*
%TO.C,C3*%
X139200000Y-55425000D03*
X139200000Y-56975000D03*
%TD*%
D23*
%TO.C,C21*%
X47550000Y-52000000D03*
X45650000Y-52000000D03*
%TD*%
D24*
%TO.C,D10*%
X75515686Y-71412500D03*
X75515686Y-72987500D03*
%TD*%
%TO.C,D9*%
X74015686Y-71412500D03*
X74015686Y-72987500D03*
%TD*%
D20*
%TO.C,R9*%
X139200000Y-71000000D03*
X139200000Y-69350000D03*
%TD*%
D24*
%TO.C,D11*%
X77015686Y-71412500D03*
X77015686Y-72987500D03*
%TD*%
D25*
%TO.C,C22*%
X63839870Y-53550000D03*
X63839870Y-55450000D03*
%TD*%
D26*
%TO.C,SW1*%
X86950000Y-61800000D03*
X91050000Y-61800000D03*
X86950000Y-63400000D03*
X91050000Y-63400000D03*
%TD*%
D18*
%TO.C,C16*%
X72175000Y-68200000D03*
X70625000Y-68200000D03*
%TD*%
D27*
%TO.C,R22*%
X98000000Y-52175000D03*
X98000000Y-53825000D03*
%TD*%
D28*
%TO.C,C12*%
X81650883Y-66250000D03*
X81650883Y-64350000D03*
%TD*%
D29*
%TO.C,J4*%
X61750000Y-72200000D03*
D30*
X63275000Y-70725000D03*
X63275000Y-73675000D03*
%TD*%
D31*
%TO.C,U7*%
X134875000Y-58125000D03*
X135925000Y-58125000D03*
X134875000Y-57075000D03*
X135925000Y-57075000D03*
D32*
X134425000Y-59550000D03*
X135075000Y-59550000D03*
X135725000Y-59550000D03*
X136375000Y-59550000D03*
D33*
X137350000Y-58575000D03*
X137350000Y-57925000D03*
X137350000Y-57275000D03*
X137350000Y-56625000D03*
D32*
X136375000Y-55650000D03*
X135725000Y-55650000D03*
X135075000Y-55650000D03*
X134425000Y-55650000D03*
D33*
X133450000Y-56625000D03*
X133450000Y-57275000D03*
X133450000Y-57925000D03*
X133450000Y-58575000D03*
%TD*%
D20*
%TO.C,R7*%
X131853848Y-72502889D03*
X131853848Y-70852889D03*
%TD*%
D34*
%TO.C,C35*%
X61026703Y-53926959D03*
X61026703Y-54886959D03*
%TD*%
D35*
%TO.C,C17*%
X133269945Y-70976036D03*
X133269945Y-69426036D03*
%TD*%
D15*
%TO.C,C20*%
X124000000Y-71050000D03*
X124000000Y-72600000D03*
%TD*%
D36*
%TO.C,U4*%
X129750000Y-56262500D03*
X128800000Y-56262500D03*
X127850000Y-56262500D03*
X127850000Y-58537500D03*
X129750000Y-58537500D03*
%TD*%
D35*
%TO.C,C13*%
X134738938Y-72430498D03*
X134738938Y-70880498D03*
%TD*%
D27*
%TO.C,R10*%
X114925000Y-71175000D03*
X114925000Y-72825000D03*
%TD*%
D37*
%TO.C,Q2*%
X95295000Y-60650000D03*
X96565000Y-60650000D03*
X97835000Y-60650000D03*
X99105000Y-60650000D03*
X99105000Y-55700000D03*
X97835000Y-55700000D03*
X96565000Y-55700000D03*
X95295000Y-55700000D03*
%TD*%
D38*
%TO.C,F1*%
X69000000Y-64337500D03*
X69000000Y-62462500D03*
%TD*%
D35*
%TO.C,C7*%
X131340000Y-58315000D03*
X131340000Y-56765000D03*
%TD*%
D39*
%TO.C,C2*%
X51015416Y-74529771D03*
X51015416Y-73279771D03*
%TD*%
D40*
%TO.C,U2*%
X129888938Y-71680498D03*
X129888938Y-71180498D03*
X129888938Y-70680498D03*
X129888938Y-70180498D03*
X129888938Y-69680498D03*
X125588938Y-69680498D03*
X125588938Y-70180498D03*
X125588938Y-70680498D03*
X125588938Y-71180498D03*
X125588938Y-71680498D03*
%TD*%
D17*
%TO.C,C28*%
X67463557Y-68959686D03*
X69013557Y-68959686D03*
%TD*%
D41*
%TO.C,J3*%
X69395000Y-53630000D03*
X69395000Y-56170000D03*
X69395000Y-57440000D03*
X69395000Y-52360000D03*
X69395000Y-54900000D03*
X69395000Y-58710000D03*
D42*
X81535000Y-51075000D03*
D43*
X75815000Y-50880000D03*
X70065000Y-50880000D03*
X70065000Y-60210000D03*
X75815000Y-60210000D03*
D42*
X81535000Y-60005000D03*
%TD*%
D11*
%TO.C,R2*%
X136113938Y-70880498D03*
X137763938Y-70880498D03*
%TD*%
D39*
%TO.C,L5*%
X46013705Y-74495771D03*
X46013705Y-73245771D03*
%TD*%
D13*
%TO.C,R20*%
X67750000Y-59555000D03*
X66100000Y-59555000D03*
%TD*%
D35*
%TO.C,C19*%
X124000000Y-69375000D03*
X124000000Y-67825000D03*
%TD*%
D44*
%TO.C,U5*%
X59615000Y-52930000D03*
D45*
X58995000Y-52930000D03*
X58495000Y-52930000D03*
X57995000Y-52930000D03*
X57495000Y-52930000D03*
X56995000Y-52930000D03*
X56495000Y-52930000D03*
X55995000Y-52930000D03*
X55495000Y-52930000D03*
X54995000Y-52930000D03*
X54495000Y-52930000D03*
X53995000Y-52930000D03*
X53495000Y-52930000D03*
X52995000Y-52930000D03*
X52495000Y-52930000D03*
X51995000Y-52930000D03*
X51495000Y-52930000D03*
X50995000Y-52930000D03*
X50495000Y-52930000D03*
X49995000Y-52930000D03*
D44*
X49375000Y-52930000D03*
D46*
X49375000Y-53550000D03*
X49375000Y-54050000D03*
X49375000Y-54550000D03*
X49375000Y-55050000D03*
X49375000Y-55550000D03*
X49375000Y-56050000D03*
X49375000Y-56550000D03*
X49375000Y-57050000D03*
X49375000Y-57550000D03*
X49375000Y-58050000D03*
X49375000Y-58550000D03*
X49375000Y-59050000D03*
X49375000Y-59550000D03*
X49375000Y-60050000D03*
X49375000Y-60550000D03*
X49375000Y-61050000D03*
X49375000Y-61550000D03*
X49375000Y-62050000D03*
X49375000Y-62550000D03*
X49375000Y-63050000D03*
X49375000Y-63550000D03*
X49375000Y-64050000D03*
X49375000Y-64550000D03*
X49375000Y-65050000D03*
X49375000Y-65550000D03*
X49375000Y-66050000D03*
X49375000Y-66550000D03*
X49375000Y-67050000D03*
X49375000Y-67550000D03*
X49375000Y-68050000D03*
D44*
X49375000Y-68670000D03*
D45*
X49995000Y-68670000D03*
X50495000Y-68670000D03*
X50995000Y-68670000D03*
X51495000Y-68670000D03*
X51995000Y-68670000D03*
X52495000Y-68670000D03*
X52995000Y-68670000D03*
X53495000Y-68670000D03*
X53995000Y-68670000D03*
X54495000Y-68670000D03*
X54995000Y-68670000D03*
X55495000Y-68670000D03*
X55995000Y-68670000D03*
X56495000Y-68670000D03*
X56995000Y-68670000D03*
X57495000Y-68670000D03*
X57995000Y-68670000D03*
X58495000Y-68670000D03*
X58995000Y-68670000D03*
D44*
X59615000Y-68670000D03*
D46*
X59615000Y-68050000D03*
X59615000Y-67550000D03*
X59615000Y-67050000D03*
X59615000Y-66550000D03*
X59615000Y-66050000D03*
X59615000Y-65550000D03*
X59615000Y-65050000D03*
X59615000Y-64550000D03*
X59615000Y-64050000D03*
X59615000Y-63550000D03*
X59615000Y-63050000D03*
X59615000Y-62550000D03*
X59615000Y-62050000D03*
X59615000Y-61550000D03*
X59615000Y-61050000D03*
X59615000Y-60550000D03*
X59615000Y-60050000D03*
X59615000Y-59550000D03*
X59615000Y-59050000D03*
X59615000Y-58550000D03*
X59615000Y-58050000D03*
X59615000Y-57550000D03*
X59615000Y-57050000D03*
X59615000Y-56550000D03*
X59615000Y-56050000D03*
X59615000Y-55550000D03*
X59615000Y-55050000D03*
X59615000Y-54550000D03*
X59615000Y-54050000D03*
X59615000Y-53550000D03*
D47*
X57695000Y-54800000D03*
X56095000Y-54800000D03*
X54495000Y-54800000D03*
X52895000Y-54800000D03*
X51295000Y-54800000D03*
X57695000Y-56800000D03*
X56095000Y-56800000D03*
X54495000Y-56800000D03*
X52895000Y-56800000D03*
X51295000Y-56800000D03*
X57695000Y-58800000D03*
X56095000Y-58800000D03*
X54495000Y-58800000D03*
X52895000Y-58800000D03*
X51295000Y-58800000D03*
X57695000Y-60800000D03*
X56095000Y-60800000D03*
X54495000Y-60800000D03*
X52895000Y-60800000D03*
X51295000Y-60800000D03*
X57695000Y-62800000D03*
X56095000Y-62800000D03*
X54495000Y-62800000D03*
X52895000Y-62800000D03*
X51295000Y-62800000D03*
X57695000Y-64800000D03*
X56095000Y-64800000D03*
X54495000Y-64800000D03*
X52895000Y-64800000D03*
X51295000Y-64800000D03*
X57695000Y-66800000D03*
X56095000Y-66800000D03*
X54495000Y-66800000D03*
X52895000Y-66800000D03*
X51295000Y-66800000D03*
D48*
X50145000Y-55050000D03*
X50145000Y-55550000D03*
X50145000Y-56050000D03*
X50145000Y-56550000D03*
X50145000Y-59050000D03*
X50145000Y-59550000D03*
X50145000Y-60050000D03*
X50145000Y-60550000D03*
X50145000Y-64050000D03*
X50145000Y-64550000D03*
X50145000Y-65050000D03*
X50145000Y-65550000D03*
X58845000Y-65550000D03*
X58845000Y-65050000D03*
X58845000Y-64550000D03*
X58845000Y-64050000D03*
X58845000Y-60550000D03*
X58845000Y-60050000D03*
X58845000Y-59550000D03*
X58845000Y-59050000D03*
X58845000Y-56550000D03*
X58845000Y-56050000D03*
X58845000Y-55550000D03*
X58845000Y-55050000D03*
%TD*%
D49*
%TO.C,D6*%
X99600000Y-53787500D03*
X99600000Y-52212500D03*
%TD*%
D39*
%TO.C,L1*%
X53518881Y-74499594D03*
X52268881Y-74499594D03*
%TD*%
D28*
%TO.C,C10*%
X81215686Y-70850000D03*
X81215686Y-68950000D03*
%TD*%
D50*
%TO.C,U9*%
X65837500Y-68949999D03*
X65837500Y-68000000D03*
X65837500Y-67050001D03*
X63562500Y-67050001D03*
X63562500Y-68000000D03*
X63562500Y-68949999D03*
%TD*%
D51*
%TO.C,J2*%
X47918004Y-69808999D03*
X47918004Y-72758999D03*
D52*
X49443004Y-71283999D03*
%TD*%
D13*
%TO.C,R17*%
X69050000Y-67085000D03*
X67400000Y-67085000D03*
%TD*%
D20*
%TO.C,R4*%
X78800000Y-72825000D03*
X78800000Y-71175000D03*
%TD*%
D18*
%TO.C,C25*%
X52316493Y-51247757D03*
X50766493Y-51247757D03*
%TD*%
D15*
%TO.C,C14*%
X134738938Y-67930498D03*
X134738938Y-69480498D03*
%TD*%
%TO.C,C39*%
X137085527Y-51825000D03*
X137085527Y-53375000D03*
%TD*%
D35*
%TO.C,C24*%
X61900000Y-68775000D03*
X61900000Y-67225000D03*
%TD*%
D53*
%TO.C,C5*%
X54000000Y-70540666D03*
X53321178Y-71219488D03*
%TD*%
D18*
%TO.C,C31*%
X67675000Y-55100000D03*
X66125000Y-55100000D03*
%TD*%
D27*
%TO.C,TH1*%
X70897162Y-61817763D03*
X70897162Y-63467763D03*
%TD*%
D34*
%TO.C,C33*%
X46099560Y-53786190D03*
X46099560Y-54746190D03*
%TD*%
D11*
%TO.C,R5*%
X123175000Y-58200000D03*
X124825000Y-58200000D03*
%TD*%
D26*
%TO.C,SW3*%
X79450000Y-63095085D03*
X75350000Y-63095085D03*
X79450000Y-61495085D03*
X75350000Y-61495085D03*
%TD*%
D54*
%TO.C,C26*%
X54004468Y-69658168D03*
X54964468Y-69658168D03*
%TD*%
D20*
%TO.C,R1*%
X73154378Y-63525000D03*
X73154378Y-61875000D03*
%TD*%
D28*
%TO.C,C37*%
X83615686Y-66250000D03*
X83615686Y-64350000D03*
%TD*%
D55*
%TO.C,L2*%
X55357566Y-71845578D03*
X56036388Y-71166756D03*
%TD*%
D39*
%TO.C,L4*%
X49757182Y-74495771D03*
X49757182Y-73245771D03*
%TD*%
D56*
%TO.C,U3*%
X78415686Y-68600000D03*
D57*
X78415686Y-67700000D03*
X78415686Y-66700000D03*
D58*
X78415686Y-65800000D03*
D59*
X77515686Y-68600000D03*
D60*
X77515686Y-67700000D03*
X77515686Y-66700000D03*
D61*
X77515686Y-65800000D03*
D59*
X76515686Y-68600000D03*
D60*
X76515686Y-67700000D03*
X76515686Y-66700000D03*
D61*
X76515686Y-65800000D03*
D62*
X75615686Y-68600000D03*
D63*
X75615686Y-67700000D03*
X75615686Y-66700000D03*
D64*
X75615686Y-65800000D03*
D65*
X79465686Y-68950000D03*
X79465686Y-68450000D03*
X79465686Y-67950000D03*
X79465686Y-67450000D03*
X79465686Y-66950000D03*
X79465686Y-66450000D03*
X79465686Y-65950000D03*
X79465686Y-65450000D03*
D66*
X78765686Y-64750000D03*
X78265686Y-64750000D03*
X77765686Y-64750000D03*
X77265686Y-64750000D03*
X76765686Y-64750000D03*
X76265686Y-64750000D03*
X75765686Y-64750000D03*
X75265686Y-64750000D03*
D65*
X74565686Y-65450000D03*
X74565686Y-65950000D03*
X74565686Y-66450000D03*
X74565686Y-66950000D03*
X74565686Y-67450000D03*
X74565686Y-67950000D03*
X74565686Y-68450000D03*
X74565686Y-68950000D03*
D66*
X75265686Y-69650000D03*
X75765686Y-69650000D03*
X76265686Y-69650000D03*
X76765686Y-69650000D03*
X77265686Y-69650000D03*
X77765686Y-69650000D03*
X78265686Y-69650000D03*
X78765686Y-69650000D03*
%TD*%
D67*
%TO.C,J1*%
X144755000Y-65090000D03*
X144755000Y-64290000D03*
D68*
X144755000Y-63140000D03*
X144755000Y-62140000D03*
X144755000Y-61640000D03*
X144755000Y-60640000D03*
D67*
X144755000Y-59490000D03*
X144755000Y-58690000D03*
X144755000Y-58690000D03*
X144755000Y-59490000D03*
D68*
X144755000Y-60140000D03*
X144755000Y-61140000D03*
X144755000Y-62640000D03*
X144755000Y-63640000D03*
D67*
X144755000Y-64290000D03*
X144755000Y-65090000D03*
%TD*%
D15*
%TO.C,C32*%
X47250000Y-53625000D03*
X47250000Y-55175000D03*
%TD*%
D39*
%TO.C,C1*%
X55952801Y-74499594D03*
X54702801Y-74499594D03*
%TD*%
D11*
%TO.C,R25*%
X94980000Y-62575000D03*
X96630000Y-62575000D03*
%TD*%
%TO.C,R3*%
X136113938Y-69480498D03*
X137763938Y-69480498D03*
%TD*%
D39*
%TO.C,C4*%
X48465600Y-74499594D03*
X47215600Y-74499594D03*
%TD*%
%TO.C,L6*%
X44768371Y-74499594D03*
X43518371Y-74499594D03*
%TD*%
D69*
%TO.C,L8*%
X60300000Y-72280000D03*
X60300000Y-71320000D03*
%TD*%
D15*
%TO.C,C15*%
X70400000Y-65125000D03*
X70400000Y-66675000D03*
%TD*%
D35*
%TO.C,C9*%
X126352473Y-58222946D03*
X126352473Y-56672946D03*
%TD*%
D69*
%TO.C,C29*%
X60300000Y-70380000D03*
X60300000Y-69420000D03*
%TD*%
D49*
%TO.C,D5*%
X94800000Y-53787500D03*
X94800000Y-52212500D03*
%TD*%
D27*
%TO.C,R11*%
X114925000Y-68175000D03*
X114925000Y-69825000D03*
%TD*%
D35*
%TO.C,C6*%
X139200000Y-59775000D03*
X139200000Y-58225000D03*
%TD*%
D70*
%TO.C,L3*%
X83715686Y-70475000D03*
X83715686Y-68325000D03*
%TD*%
D18*
%TO.C,C11*%
X72175000Y-69700000D03*
X70625000Y-69700000D03*
%TD*%
D71*
%TO.C,U8*%
X62650000Y-59437500D03*
X63600000Y-59437500D03*
X64550000Y-59437500D03*
X64550000Y-57162500D03*
X63600000Y-57162500D03*
X62650000Y-57162500D03*
%TD*%
D69*
%TO.C,L7*%
X52341297Y-71274359D03*
X52341297Y-70314359D03*
%TD*%
D18*
%TO.C,C36*%
X55275000Y-51250000D03*
X53725000Y-51250000D03*
%TD*%
D20*
%TO.C,R23*%
X96400000Y-53825000D03*
X96400000Y-52175000D03*
%TD*%
M02*
