%TF.GenerationSoftware,KiCad,Pcbnew,8.0.3*%
%TF.CreationDate,2025-03-20T13:05:17+01:00*%
%TF.ProjectId,Methanesense,4d657468-616e-4657-9365-6e73652e6b69,v2.0.0*%
%TF.SameCoordinates,Original*%
%TF.FileFunction,Copper,L4,Bot*%
%TF.FilePolarity,Positive*%
%FSLAX46Y46*%
G04 Gerber Fmt 4.6, Leading zero omitted, Abs format (unit mm)*
G04 Created by KiCad (PCBNEW 8.0.3) date 2025-03-20 13:05:17*
%MOMM*%
%LPD*%
G01*
G04 APERTURE LIST*
%ADD10C,0.250000*%
%TA.AperFunction,NonConductor*%
%ADD11C,0.250000*%
%TD*%
%TA.AperFunction,ComponentPad*%
%ADD12R,1.700000X1.700000*%
%TD*%
%TA.AperFunction,ComponentPad*%
%ADD13O,1.700000X1.700000*%
%TD*%
%TA.AperFunction,HeatsinkPad*%
%ADD14C,0.650000*%
%TD*%
%TA.AperFunction,HeatsinkPad*%
%ADD15R,2.500000X2.500000*%
%TD*%
%TA.AperFunction,ComponentPad*%
%ADD16O,2.100000X1.000000*%
%TD*%
%TA.AperFunction,ComponentPad*%
%ADD17O,1.600000X1.000000*%
%TD*%
%TA.AperFunction,ComponentPad*%
%ADD18C,1.600000*%
%TD*%
%TA.AperFunction,SMDPad,CuDef*%
%ADD19R,2.400000X0.740000*%
%TD*%
%TA.AperFunction,ConnectorPad*%
%ADD20C,0.787400*%
%TD*%
%TA.AperFunction,ComponentPad*%
%ADD21R,3.500000X3.500000*%
%TD*%
%TA.AperFunction,ComponentPad*%
%ADD22C,3.500000*%
%TD*%
%TA.AperFunction,ViaPad*%
%ADD23C,0.650000*%
%TD*%
%TA.AperFunction,ViaPad*%
%ADD24C,0.800000*%
%TD*%
%TA.AperFunction,Conductor*%
%ADD25C,0.150000*%
%TD*%
%TA.AperFunction,Conductor*%
%ADD26C,0.300000*%
%TD*%
%TA.AperFunction,Conductor*%
%ADD27C,0.200000*%
%TD*%
%TA.AperFunction,Conductor*%
%ADD28C,0.310000*%
%TD*%
%TA.AperFunction,Conductor*%
%ADD29C,0.250000*%
%TD*%
%TA.AperFunction,Conductor*%
%ADD30C,0.500000*%
%TD*%
G04 APERTURE END LIST*
D10*
D11*
X144490976Y-50620248D02*
X144490976Y-51286915D01*
X144252881Y-50239296D02*
X144014786Y-50953581D01*
X144014786Y-50953581D02*
X144633833Y-50953581D01*
D12*
%TO.P,J5,1,Pin_1*%
%TO.N,+2V0*%
X106840000Y-51600000D03*
D13*
%TO.P,J5,2,Pin_2*%
%TO.N,VCC*%
X109380000Y-51600000D03*
%TO.P,J5,3,Pin_3*%
%TO.N,+BATT*%
X111920000Y-51600000D03*
%TO.P,J5,4,Pin_4*%
%TO.N,GND*%
X114460000Y-51600000D03*
%TO.P,J5,5,Pin_5*%
%TO.N,+5VL*%
X117000000Y-51600000D03*
%TO.P,J5,6,Pin_6*%
%TO.N,GND*%
X119540000Y-51600000D03*
%TO.P,J5,7,Pin_7*%
%TO.N,P0.07*%
X122080000Y-51600000D03*
%TO.P,J5,8,Pin_8*%
%TO.N,P0.06*%
X124620000Y-51600000D03*
%TO.P,J5,9,Pin_9*%
%TO.N,P0.05*%
X127160000Y-51600000D03*
%TO.P,J5,10,Pin_10*%
%TO.N,P0.11*%
X129700000Y-51600000D03*
%TD*%
D14*
%TO.P,U3,33,AVSS*%
%TO.N,GND*%
X78015686Y-68200000D03*
X78015686Y-67200000D03*
X78015686Y-66200000D03*
X77015686Y-68200000D03*
X77015686Y-67200000D03*
D15*
X77015686Y-67200000D03*
D14*
X77015686Y-66200000D03*
X76015686Y-68200000D03*
X76015686Y-67200000D03*
X76015686Y-66200000D03*
%TD*%
D16*
%TO.P,J1,S1,SHIELD*%
%TO.N,GND*%
X145395000Y-66210000D03*
D17*
X149575000Y-66210000D03*
D16*
X145395000Y-57570000D03*
D17*
X149575000Y-57570000D03*
%TD*%
D18*
%TO.P,S1,1,Rh-*%
%TO.N,Net-(S1-Rh-)*%
X147000000Y-72400000D03*
%TO.P,S1,2,Rs-*%
%TO.N,AIN1*%
X143400000Y-72400000D03*
%TO.P,S1,3,Rs+*%
%TO.N,+2V0*%
X143400000Y-68800000D03*
%TO.P,S1,4,Rh+*%
X147000000Y-68800000D03*
%TD*%
D19*
%TO.P,J6,1,Pin_1*%
%TO.N,+2V0*%
X45034000Y-64350000D03*
D20*
X46349000Y-64350000D03*
%TO.P,J6,2,Pin_2*%
%TO.N,SWDIO*%
X47619000Y-64350000D03*
D19*
X48934000Y-64350000D03*
%TO.P,J6,3,Pin_3*%
%TO.N,GND*%
X45034000Y-63080000D03*
D20*
X46349000Y-63080000D03*
%TO.P,J6,4,Pin_4*%
%TO.N,SWDCLK*%
X47619000Y-63080000D03*
D19*
X48934000Y-63080000D03*
%TO.P,J6,5,Pin_5*%
%TO.N,GND*%
X45034000Y-61810000D03*
D20*
X46349000Y-61810000D03*
%TO.P,J6,6,Pin_6*%
%TO.N,SWO*%
X47619000Y-61810000D03*
D19*
X48934000Y-61810000D03*
%TO.P,J6,7,Pin_7*%
%TO.N,GND*%
X45034000Y-60540000D03*
D20*
X46349000Y-60540000D03*
%TO.P,J6,8,Pin_8*%
X47619000Y-60540000D03*
D19*
X48934000Y-60540000D03*
%TO.P,J6,9,Pin_9*%
X45034000Y-59270000D03*
D20*
X46349000Y-59270000D03*
%TO.P,J6,10,Pin_10*%
%TO.N,~{RESET}*%
X47619000Y-59270000D03*
D19*
X48934000Y-59270000D03*
%TD*%
D21*
%TO.P,BT1,1,+*%
%TO.N,Net-(BT1-+)*%
X64895000Y-63250000D03*
D22*
%TO.P,BT1,2,-*%
%TO.N,GND*%
X136895000Y-63250000D03*
%TD*%
D23*
%TO.N,GND*%
X60360000Y-59148603D03*
X130807025Y-70730498D03*
X134967137Y-74670965D03*
X91000000Y-69000000D03*
X115360570Y-59337152D03*
X58078693Y-71921423D03*
X72084820Y-62658533D03*
X104051906Y-54619289D03*
X48400000Y-50800000D03*
X83663828Y-60233283D03*
X89000000Y-67000000D03*
X99900000Y-69500000D03*
X89000000Y-63500000D03*
X59471693Y-72827300D03*
X43325000Y-63500000D03*
X53000000Y-50400000D03*
X123000000Y-65000000D03*
X80465686Y-64549997D03*
X129724696Y-68950001D03*
X56927801Y-73741163D03*
X110993552Y-50329326D03*
X51295000Y-59800000D03*
X80465686Y-65250000D03*
X45034000Y-61810000D03*
X150435838Y-64985153D03*
X48400000Y-60550000D03*
X68000000Y-53100000D03*
X123321269Y-56289503D03*
X96540855Y-66692484D03*
X69654073Y-70125114D03*
X61233319Y-53064598D03*
X54495000Y-61800000D03*
X89967137Y-74670965D03*
X43325000Y-67500000D03*
X56095000Y-61800000D03*
X54495000Y-63800000D03*
X58024265Y-69875735D03*
X100993552Y-50329326D03*
X43325000Y-62500000D03*
X92500000Y-56300000D03*
X138400000Y-72000000D03*
X93493552Y-50329326D03*
X59500000Y-69500000D03*
X141800000Y-62800000D03*
X138200000Y-72800000D03*
X45700000Y-68100000D03*
X125250000Y-57000000D03*
X133200000Y-72200000D03*
X54956344Y-72570122D03*
X54830126Y-70382827D03*
X128493552Y-50329326D03*
X60992882Y-73083680D03*
X44800000Y-51000000D03*
X101513180Y-51724250D03*
X47600000Y-50800000D03*
X49437911Y-70308999D03*
X147661754Y-57133617D03*
X71334306Y-68958591D03*
X52895000Y-55800000D03*
X93750000Y-62750000D03*
X64600000Y-54500000D03*
X50540264Y-72024066D03*
X128751305Y-70667097D03*
D24*
X142500000Y-65200000D03*
D23*
X77000000Y-70500000D03*
X44417080Y-56532074D03*
X138200000Y-60700000D03*
X43325000Y-66500000D03*
X117000000Y-63100000D03*
X51500000Y-69400000D03*
X61815788Y-71225000D03*
X44900000Y-66900000D03*
X85187708Y-63647945D03*
X51700000Y-52100000D03*
X90000000Y-56300000D03*
X46200000Y-70300000D03*
X93778452Y-60111347D03*
X144967137Y-74670965D03*
X43325000Y-60500000D03*
X69100000Y-68000000D03*
X125200000Y-72400000D03*
X52895000Y-63800000D03*
X120600000Y-67200000D03*
X105566234Y-54485671D03*
X115100000Y-55400000D03*
X55295000Y-56800000D03*
D24*
X143500000Y-58600000D03*
D23*
X139700000Y-61000000D03*
X142100000Y-57200000D03*
X125815457Y-54262976D03*
X146400000Y-53200000D03*
X112467137Y-74670965D03*
X69967137Y-74670965D03*
X104416388Y-59494878D03*
X139800000Y-52800000D03*
X58700000Y-69600000D03*
X120993552Y-50329326D03*
X57695000Y-63800000D03*
X84967137Y-74670965D03*
X126000000Y-61000000D03*
X94000000Y-69000000D03*
X56895000Y-66700000D03*
X74000000Y-51300000D03*
X112587523Y-72556738D03*
X143222695Y-57222695D03*
X64900000Y-73400000D03*
X56927801Y-73041160D03*
X56095000Y-57800000D03*
D24*
X82762741Y-63324999D03*
D23*
X115271492Y-64500000D03*
X132467137Y-74670965D03*
X109700000Y-71700000D03*
X52095000Y-62800000D03*
X73100000Y-60900000D03*
X103493552Y-50329326D03*
X118600000Y-53200000D03*
X53695000Y-58800000D03*
X57704149Y-57935037D03*
X132900000Y-67100000D03*
X52095000Y-58800000D03*
X61217277Y-61506721D03*
X51861048Y-72063076D03*
X102467137Y-74670965D03*
X99967137Y-74670965D03*
X49892288Y-72273336D03*
X98493552Y-50329326D03*
X55295000Y-60800000D03*
X94200000Y-54900000D03*
X68400000Y-66400000D03*
X43325000Y-53500000D03*
X107467137Y-74670965D03*
X58537509Y-70230625D03*
X125993552Y-50329326D03*
X133493552Y-50329326D03*
X57695000Y-61800000D03*
X51591148Y-70617046D03*
X60283564Y-73092226D03*
X146000000Y-60000000D03*
X56895000Y-64800000D03*
X95993552Y-50329326D03*
X72000000Y-51300000D03*
X96300000Y-72725000D03*
X71000000Y-59000000D03*
X135993552Y-50329326D03*
X150435838Y-69985153D03*
X44204184Y-73528949D03*
X56895000Y-60800000D03*
X71993552Y-50329326D03*
X92000000Y-67000000D03*
X113493552Y-50329326D03*
X77493552Y-50329326D03*
X132874898Y-52258718D03*
X56095000Y-65800000D03*
X52095000Y-66700000D03*
X46000000Y-66800000D03*
X51187194Y-72024066D03*
X133704110Y-59295890D03*
X77467137Y-74670965D03*
X51000000Y-52184998D03*
X72467137Y-74670965D03*
X97250000Y-59250000D03*
X54495000Y-55800000D03*
X138300000Y-59000000D03*
X119090225Y-71643687D03*
X61625287Y-73297331D03*
X45000000Y-67800000D03*
X139848827Y-50345822D03*
X67467137Y-74670965D03*
X57695000Y-65800000D03*
X69800000Y-67500000D03*
X71500000Y-54500000D03*
X139000000Y-68000000D03*
X63140084Y-54493516D03*
X44426286Y-72148463D03*
X135700000Y-60600000D03*
X43325000Y-64500000D03*
D24*
X142500000Y-58600000D03*
D23*
X132429507Y-55665957D03*
X47890867Y-73530508D03*
X55408842Y-70830265D03*
X130000000Y-66000000D03*
X46600000Y-68900000D03*
X45000000Y-73524592D03*
X48700000Y-51500000D03*
X43325000Y-57500000D03*
X74250000Y-63500000D03*
X74594990Y-64276195D03*
X60400000Y-65900000D03*
X56895000Y-58800000D03*
X92467137Y-74670965D03*
X58000000Y-74000000D03*
X83099666Y-59372195D03*
X60475000Y-53050000D03*
X122467137Y-74670965D03*
X123750000Y-60750000D03*
X52300000Y-69500000D03*
X127200000Y-72800000D03*
X56940380Y-74638990D03*
X45700000Y-50754890D03*
X67900000Y-53900000D03*
X54495000Y-59800000D03*
X118493552Y-50329326D03*
X44960755Y-70574750D03*
X49800000Y-69600000D03*
X93000000Y-52000000D03*
X56095000Y-59800000D03*
X43325000Y-54500000D03*
X72000000Y-61400000D03*
X138200000Y-66200000D03*
X60900000Y-62100889D03*
X56300000Y-71900000D03*
X51987840Y-73524592D03*
X130826101Y-55576878D03*
X137467137Y-74670965D03*
X53752971Y-54800000D03*
X71000000Y-72000000D03*
X131800000Y-65800000D03*
X68000000Y-72000000D03*
X110000000Y-59500000D03*
X64673096Y-68364012D03*
X87467137Y-74670965D03*
X57695000Y-59800000D03*
X53287220Y-72070513D03*
X117467137Y-74670965D03*
X53695000Y-56800000D03*
X53695000Y-62800000D03*
X57534798Y-52207582D03*
X147000000Y-60000000D03*
X52895000Y-59800000D03*
X43325000Y-61500000D03*
X133500000Y-55500000D03*
X56895000Y-56800000D03*
X54392576Y-72920879D03*
X69837719Y-68934583D03*
X120225971Y-70686097D03*
X64800000Y-72600000D03*
X87800000Y-55000000D03*
X142467137Y-74670965D03*
X43325000Y-55500000D03*
X87943835Y-59331914D03*
X44800000Y-58300000D03*
X86503683Y-69280988D03*
X137822534Y-54432539D03*
X74267234Y-62866382D03*
X53997188Y-71653635D03*
X50600000Y-69600000D03*
X55900000Y-70200000D03*
X51295000Y-61800000D03*
X52100000Y-54800000D03*
X61153620Y-64470975D03*
X46400000Y-71100000D03*
X82944816Y-54997871D03*
X79967137Y-74670965D03*
X104882265Y-68481414D03*
X113200000Y-67000000D03*
X54753056Y-73524592D03*
X104967137Y-74670965D03*
X100200000Y-72700000D03*
X126000000Y-65000000D03*
X95000000Y-67000000D03*
X136126751Y-53858480D03*
X51295000Y-65800000D03*
X113700000Y-54800000D03*
X53219468Y-69507402D03*
X86659570Y-71196168D03*
X110895038Y-72556738D03*
X57695000Y-55800000D03*
X61100000Y-58900000D03*
X94967137Y-74670965D03*
X70900000Y-60900000D03*
X123493552Y-50329326D03*
X55295000Y-64800000D03*
X53695000Y-66700000D03*
X115300000Y-62900000D03*
X73848036Y-64351270D03*
X115993552Y-50329326D03*
X101513180Y-54441132D03*
X54495000Y-65800000D03*
X82493552Y-50329326D03*
X52895000Y-65800000D03*
X52095000Y-64800000D03*
X48525000Y-52300000D03*
X101051215Y-59425595D03*
X73900000Y-58200000D03*
X54518393Y-72049928D03*
X51295000Y-57800000D03*
X54500000Y-50400000D03*
X103300000Y-69500000D03*
X60600000Y-51285000D03*
X52895000Y-61800000D03*
X55295000Y-58800000D03*
X53122159Y-70399930D03*
X53695000Y-64800000D03*
X64967137Y-74670965D03*
X63983052Y-60448514D03*
X68596527Y-70042790D03*
X125400000Y-67200000D03*
X59517451Y-71108015D03*
X46400000Y-71900000D03*
X43325000Y-50500000D03*
X87966105Y-60200425D03*
X73993552Y-50329326D03*
X44625000Y-52000000D03*
X72000000Y-59000000D03*
X50212134Y-70497250D03*
X132500000Y-59500000D03*
X97467137Y-74670965D03*
X43325000Y-59500000D03*
X55286515Y-52206569D03*
X119500000Y-59500000D03*
X139465531Y-54387041D03*
X59234519Y-51285000D03*
X53371023Y-73524592D03*
X150435838Y-71985153D03*
X53695000Y-60800000D03*
X64900000Y-71100000D03*
X46300000Y-69500000D03*
X56095000Y-55800000D03*
X57595000Y-69425735D03*
X56700000Y-52300000D03*
X113389226Y-70775175D03*
X79000000Y-52000000D03*
X43325000Y-72500000D03*
X59112940Y-70566768D03*
X55295000Y-54800000D03*
X104993552Y-50329326D03*
X50889626Y-70590556D03*
X90993552Y-50329326D03*
X114967137Y-74670965D03*
X147467137Y-74670965D03*
X52900000Y-72800000D03*
X127467137Y-74670965D03*
X59879731Y-51285000D03*
X102523991Y-67093335D03*
X64900000Y-70400000D03*
X43325000Y-52500000D03*
X46500000Y-56000000D03*
X54495000Y-57800000D03*
X69500000Y-66200000D03*
X82467137Y-74670965D03*
X139967137Y-74670965D03*
X52000000Y-72800000D03*
X100750000Y-63000000D03*
X55700000Y-69500000D03*
X46700000Y-50900000D03*
X47000000Y-73524594D03*
X55295000Y-62800000D03*
X61700000Y-74100000D03*
X119000000Y-62000000D03*
X55295000Y-66700000D03*
X61300000Y-70500000D03*
X64700000Y-67500000D03*
X61122313Y-71300000D03*
X109659570Y-65349925D03*
X52497014Y-72142920D03*
X66961860Y-53438139D03*
X69749062Y-68136673D03*
X45000000Y-69000000D03*
X56095000Y-63800000D03*
X52095000Y-60800000D03*
X43325000Y-56500000D03*
X75400000Y-54500000D03*
X44700000Y-52700000D03*
X45500000Y-55800000D03*
X43325000Y-69500000D03*
X49300000Y-50900000D03*
X150435838Y-58985153D03*
X60967137Y-74670965D03*
X107555757Y-72632062D03*
X56395000Y-69511081D03*
X150100000Y-74200000D03*
X74967137Y-74670965D03*
X85500000Y-52000000D03*
X52895000Y-57800000D03*
X150435838Y-60985153D03*
X52095000Y-56800000D03*
X105500000Y-64684302D03*
X48800000Y-73520771D03*
X58480384Y-74657269D03*
D24*
X82473632Y-69400000D03*
D23*
X136800000Y-72800000D03*
X56900000Y-71400000D03*
X122800000Y-67200000D03*
X117208941Y-59359422D03*
X60400000Y-65200000D03*
X47000000Y-56800000D03*
X136200000Y-68000000D03*
X146000000Y-63000000D03*
X108000000Y-67500000D03*
X83493552Y-50329326D03*
X108493552Y-50329326D03*
X150435838Y-67985153D03*
X123100000Y-54300000D03*
X59000000Y-74000000D03*
X130993552Y-50329326D03*
X85993552Y-50329326D03*
X45034000Y-63080000D03*
X52671020Y-73524592D03*
X43325000Y-51500000D03*
X93711643Y-59220566D03*
X110000000Y-54000000D03*
X64800000Y-71800000D03*
D24*
X143500000Y-65200000D03*
D23*
X43325000Y-68500000D03*
X43325000Y-58500000D03*
X65300000Y-54400000D03*
X56710891Y-70259421D03*
X150435838Y-62985153D03*
X119967137Y-74670965D03*
X43325000Y-65500000D03*
X43325000Y-71500000D03*
X58711098Y-72545282D03*
X106100000Y-63200000D03*
X56895000Y-62800000D03*
X85576878Y-66803831D03*
X86000000Y-56800000D03*
X150400000Y-52400000D03*
X61145350Y-65193243D03*
X117231210Y-65349925D03*
X43400000Y-73524592D03*
X51295000Y-55800000D03*
X118099722Y-67153757D03*
X43325000Y-70500000D03*
X60342228Y-64415544D03*
X57605224Y-71226887D03*
X124967137Y-74670965D03*
X88493552Y-50329326D03*
X121000000Y-54000000D03*
X45100000Y-72300000D03*
X51295000Y-63800000D03*
X56764404Y-72380358D03*
X129967137Y-74670965D03*
X150276587Y-51019051D03*
X45034000Y-60540000D03*
X87300000Y-56300000D03*
X74600000Y-58700000D03*
X109967137Y-74670965D03*
X54062317Y-73524594D03*
X61497318Y-57350000D03*
X79493552Y-50329326D03*
X53700000Y-72700000D03*
%TO.N,/POWER/USBDN*%
X143485438Y-62763088D03*
X143473382Y-61503088D03*
%TO.N,+2V0*%
X82214559Y-71651850D03*
X77400000Y-63900000D03*
X56017399Y-50653333D03*
X56000000Y-51800000D03*
X45000000Y-65300000D03*
X83200000Y-71800000D03*
D24*
%TO.N,VCC*%
X80815686Y-67200000D03*
D23*
X60933355Y-68403730D03*
D24*
X65725833Y-52325000D03*
X72300000Y-70900000D03*
D23*
X73100000Y-72100000D03*
D24*
X72350000Y-65965686D03*
X45105542Y-54418770D03*
X45233111Y-53591773D03*
X81656386Y-67189070D03*
D23*
X64529631Y-69533063D03*
D24*
X71400000Y-70900000D03*
X65000000Y-52875000D03*
D23*
X79435093Y-69598432D03*
D24*
X72950000Y-66565686D03*
D23*
%TO.N,+5VL*%
X143500000Y-64200000D03*
X142799997Y-64200000D03*
X142700000Y-59600000D03*
X143500000Y-59600000D03*
D24*
X72181832Y-67124634D03*
X135600000Y-54600000D03*
X71515686Y-66500000D03*
D23*
%TO.N,+BATT*%
X67500000Y-65800000D03*
%TO.N,/POWER/CC1*%
X141000000Y-63700000D03*
X73242637Y-70452178D03*
%TO.N,/POWER/CC2*%
X74015686Y-69900000D03*
X142600000Y-60400000D03*
%TO.N,+1V8SIM*%
X48204062Y-67750000D03*
X64080025Y-58387130D03*
%TO.N,P0.06*%
X94277263Y-56850000D03*
X62269323Y-51570683D03*
%TO.N,P0.07*%
X61400000Y-51300000D03*
X91100000Y-56550000D03*
%TO.N,P0.05*%
X62800000Y-52200000D03*
X97986091Y-57150000D03*
%TO.N,~{RESET}*%
X46113580Y-56997464D03*
%TO.N,SWDIO*%
X48113107Y-63924999D03*
%TO.N,SWDCLK*%
X48197919Y-62654999D03*
%TO.N,SWO*%
X60697315Y-57350000D03*
%TO.N,SIM_RST*%
X46594637Y-67335173D03*
X65218934Y-58576667D03*
%TO.N,SIM_CLK*%
X48588348Y-65809569D03*
X64912341Y-60509841D03*
%TO.N,SIM_IO*%
X48196841Y-66950030D03*
X62546459Y-60455766D03*
%TO.N,P0.12*%
X132400000Y-57800000D03*
X49332938Y-52131393D03*
%TO.N,P0.29*%
X76924265Y-61475735D03*
X126769222Y-68180222D03*
X145800000Y-50724997D03*
X60515579Y-60547937D03*
%TO.N,P0.31*%
X110400000Y-68250000D03*
X60815484Y-59806279D03*
%TO.N,P0.15{slash}AIN2*%
X48229499Y-54841147D03*
X132572919Y-60825000D03*
%TO.N,P0.11*%
X103000000Y-57375000D03*
X49841493Y-51513839D03*
%TO.N,P0.16{slash}AIN3*%
X137800000Y-59800000D03*
X48167472Y-55641294D03*
X133400000Y-63600000D03*
X131703520Y-60733419D03*
%TO.N,P0.19{slash}AIN6*%
X47767062Y-57027199D03*
X127893686Y-67525000D03*
%TO.N,P0.26*%
X60700000Y-63700000D03*
X128624696Y-67850000D03*
%TO.N,P0.14{slash}AIN1*%
X48520500Y-54088730D03*
X132400000Y-58600000D03*
%TO.N,P0.28*%
X145800000Y-51600000D03*
X60434045Y-61343774D03*
X126000000Y-68400000D03*
X77322101Y-62200000D03*
%TO.N,P0.27*%
X60632750Y-62854932D03*
X111200000Y-68250000D03*
%TO.N,P0.04*%
X60300757Y-54449621D03*
X119100000Y-56100000D03*
%TO.N,P0.18{slash}AIN5*%
X130212653Y-67387347D03*
X48556147Y-56717246D03*
%TD*%
D25*
%TO.N,GND*%
X60413342Y-62100889D02*
X59800000Y-61487547D01*
D26*
X43555000Y-59270000D02*
X43325000Y-59500000D01*
X45034000Y-58534000D02*
X44800000Y-58300000D01*
X146400000Y-53200000D02*
X145575000Y-52375000D01*
D27*
X43355000Y-58470000D02*
X43325000Y-58500000D01*
D26*
X150276587Y-52276587D02*
X150400000Y-52400000D01*
D27*
X45034000Y-58470000D02*
X45034000Y-57734000D01*
D26*
X140225000Y-52375000D02*
X139800000Y-52800000D01*
D25*
X60851397Y-59148603D02*
X60360000Y-59148603D01*
D26*
X145575000Y-52375000D02*
X140225000Y-52375000D01*
D27*
X45034000Y-58470000D02*
X43355000Y-58470000D01*
X45034000Y-57734000D02*
X44800000Y-57500000D01*
D25*
X60900000Y-62100889D02*
X60413342Y-62100889D01*
X61100000Y-58900000D02*
X60851397Y-59148603D01*
D26*
X48924000Y-60550000D02*
X48934000Y-60540000D01*
X48400000Y-60550000D02*
X48924000Y-60550000D01*
D25*
X59800000Y-59708603D02*
X60360000Y-59148603D01*
D26*
X149600000Y-53200000D02*
X146400000Y-53200000D01*
X150276587Y-51019051D02*
X150276587Y-52276587D01*
X150400000Y-52400000D02*
X149600000Y-53200000D01*
X45034000Y-59270000D02*
X43555000Y-59270000D01*
D25*
X59800000Y-61487547D02*
X59800000Y-59708603D01*
D26*
X46349000Y-59270000D02*
X45034000Y-59270000D01*
X45034000Y-59270000D02*
X45034000Y-58534000D01*
D28*
%TO.N,/POWER/USBDN*%
X143485438Y-62763088D02*
X143485438Y-61515144D01*
X143485438Y-61515144D02*
X143473382Y-61503088D01*
D29*
%TO.N,+2V0*%
X45000000Y-65300000D02*
X45000000Y-64384000D01*
X45000000Y-64384000D02*
X45034000Y-64350000D01*
D30*
%TO.N,VCC*%
X74829409Y-65965686D02*
X75395095Y-65400000D01*
X72950000Y-66565686D02*
X72350000Y-65965686D01*
X62062688Y-69533063D02*
X64529631Y-69533063D01*
X60933355Y-68403730D02*
X62062688Y-69533063D01*
D26*
X73550000Y-65965686D02*
X73800000Y-65965686D01*
D30*
X73800000Y-65965686D02*
X74829409Y-65965686D01*
X81645456Y-67200000D02*
X81656386Y-67189070D01*
X80815686Y-67200000D02*
X81645456Y-67200000D01*
X72350000Y-65965686D02*
X73800000Y-65965686D01*
X79015686Y-65400000D02*
X80815686Y-67200000D01*
D26*
X72950000Y-66565686D02*
X73550000Y-65965686D01*
D30*
X75395095Y-65400000D02*
X79015686Y-65400000D01*
%TO.N,+5VL*%
X140800000Y-65768629D02*
X142368629Y-64200000D01*
X73557198Y-68500000D02*
X73600000Y-68500000D01*
X71557198Y-66500000D02*
X72181832Y-67124634D01*
X140600000Y-59600000D02*
X135600000Y-54600000D01*
X143500000Y-64200000D02*
X144400000Y-64200000D01*
X93200000Y-73800000D02*
X139000000Y-73800000D01*
X72181832Y-67124634D02*
X73557198Y-68500000D01*
X139000000Y-73800000D02*
X140800000Y-72000000D01*
X79100000Y-68500000D02*
X87900000Y-68500000D01*
X87900000Y-68500000D02*
X93200000Y-73800000D01*
X142700000Y-59600000D02*
X140600000Y-59600000D01*
X144600000Y-60000000D02*
X144200000Y-59600000D01*
X144200000Y-59600000D02*
X143500000Y-59600000D01*
X140800000Y-72000000D02*
X140800000Y-65768629D01*
X74300000Y-69200000D02*
X78400000Y-69200000D01*
X144400000Y-64200000D02*
X144600000Y-64000000D01*
X71515686Y-66500000D02*
X71557198Y-66500000D01*
X78400000Y-69200000D02*
X79100000Y-68500000D01*
X73600000Y-68500000D02*
X74300000Y-69200000D01*
X142368629Y-64200000D02*
X142799997Y-64200000D01*
X144600000Y-64000000D02*
X144600000Y-60000000D01*
D25*
%TO.N,/POWER/CC1*%
X81405330Y-63700000D02*
X78451472Y-63700000D01*
X77740381Y-62988909D02*
X76710170Y-62988909D01*
X141000000Y-63700000D02*
X141000000Y-64375736D01*
X107524264Y-69500000D02*
X103643198Y-65618934D01*
X70590686Y-65809314D02*
X70590686Y-66899264D01*
X70590686Y-66899264D02*
X73242637Y-69551215D01*
X71359314Y-65040686D02*
X70590686Y-65809314D01*
X73242637Y-69551215D02*
X73242637Y-70452178D01*
X122312132Y-69136396D02*
X121948528Y-69500000D01*
X141000000Y-64375736D02*
X135875736Y-69500000D01*
X103643198Y-65618934D02*
X83324264Y-65618934D01*
X121948528Y-69500000D02*
X107524264Y-69500000D01*
X125836396Y-69136396D02*
X122312132Y-69136396D01*
X135875736Y-69500000D02*
X126200000Y-69500000D01*
X83324264Y-65618934D02*
X81405330Y-63700000D01*
X74658393Y-65040686D02*
X71359314Y-65040686D01*
X126200000Y-69500000D02*
X125836396Y-69136396D01*
X76710170Y-62988909D02*
X74658393Y-65040686D01*
X78451472Y-63700000D02*
X77740381Y-62988909D01*
%TO.N,/POWER/CC2*%
X142600000Y-63200000D02*
X136000000Y-69800000D01*
X70890686Y-66775000D02*
X74015686Y-69900000D01*
X76834434Y-63288909D02*
X74782657Y-65340686D01*
X74782657Y-65340686D02*
X71659314Y-65340686D01*
X77616117Y-63288909D02*
X76834434Y-63288909D01*
X80246142Y-65918934D02*
X77616117Y-63288909D01*
X107400000Y-69800000D02*
X103518934Y-65918934D01*
X70890686Y-66109314D02*
X70890686Y-66775000D01*
X136000000Y-69800000D02*
X107400000Y-69800000D01*
X103518934Y-65918934D02*
X80246142Y-65918934D01*
X142600000Y-60400000D02*
X142600000Y-63200000D01*
X71659314Y-65340686D02*
X70890686Y-66109314D01*
%TO.N,+1V8SIM*%
X61900000Y-60315100D02*
X61900000Y-65251472D01*
X64080025Y-58387130D02*
X63827970Y-58387130D01*
X48603945Y-67350117D02*
X48204062Y-67750000D01*
X59801355Y-67350117D02*
X48603945Y-67350117D01*
X63827970Y-58387130D02*
X61900000Y-60315100D01*
X61900000Y-65251472D02*
X59801355Y-67350117D01*
%TO.N,P0.06*%
X95077263Y-56050000D02*
X115350000Y-56050000D01*
X94277263Y-56850000D02*
X95077263Y-56050000D01*
X94277263Y-56850000D02*
X94027263Y-57100000D01*
X64975736Y-51100000D02*
X64505053Y-51570683D01*
X121620000Y-54600000D02*
X124620000Y-51600000D01*
X94027263Y-57100000D02*
X87200000Y-57100000D01*
X76648528Y-52400000D02*
X71548528Y-52400000D01*
X80448528Y-56200000D02*
X76648528Y-52400000D01*
X86300000Y-56200000D02*
X80448528Y-56200000D01*
X64505053Y-51570683D02*
X62269323Y-51570683D01*
X115350000Y-56050000D02*
X116800000Y-54600000D01*
X70248528Y-51100000D02*
X64975736Y-51100000D01*
X116800000Y-54600000D02*
X121620000Y-54600000D01*
X71548528Y-52400000D02*
X70248528Y-51100000D01*
X87200000Y-57100000D02*
X86300000Y-56200000D01*
%TO.N,P0.07*%
X90150000Y-55600000D02*
X80600000Y-55600000D01*
X114100000Y-55500000D02*
X115800000Y-53800000D01*
X62520683Y-51020683D02*
X61679317Y-51020683D01*
X119880000Y-53800000D02*
X122080000Y-51600000D01*
X62750000Y-51250000D02*
X62520683Y-51020683D01*
X64851472Y-50800000D02*
X64401472Y-51250000D01*
X77000000Y-52000000D02*
X71572792Y-52000000D01*
X70372792Y-50800000D02*
X64851472Y-50800000D01*
X64401472Y-51250000D02*
X62750000Y-51250000D01*
X115800000Y-53800000D02*
X119880000Y-53800000D01*
X80600000Y-55600000D02*
X77000000Y-52000000D01*
X92150000Y-55500000D02*
X114100000Y-55500000D01*
X61679317Y-51020683D02*
X61400000Y-51300000D01*
X91100000Y-56550000D02*
X90150000Y-55600000D01*
X91100000Y-56550000D02*
X92150000Y-55500000D01*
X71572792Y-52000000D02*
X70372792Y-50800000D01*
%TO.N,P0.05*%
X64600000Y-51900000D02*
X65100000Y-51400000D01*
X97736091Y-57400000D02*
X97986091Y-57150000D01*
X81224264Y-57400000D02*
X97736091Y-57400000D01*
X97986091Y-57150000D02*
X98736091Y-56400000D01*
X71424264Y-52700000D02*
X76524264Y-52700000D01*
X63100000Y-51900000D02*
X64600000Y-51900000D01*
X123560000Y-55200000D02*
X127160000Y-51600000D01*
X70124264Y-51400000D02*
X71424264Y-52700000D01*
X65100000Y-51400000D02*
X70124264Y-51400000D01*
X62800000Y-52200000D02*
X63100000Y-51900000D01*
X76524264Y-52700000D02*
X81224264Y-57400000D01*
X98736091Y-56400000D02*
X116700000Y-56400000D01*
X117900000Y-55200000D02*
X123560000Y-55200000D01*
X116700000Y-56400000D02*
X117900000Y-55200000D01*
%TO.N,~{RESET}*%
X46113580Y-56997464D02*
X47249700Y-58133584D01*
X47249700Y-58900700D02*
X47619000Y-59270000D01*
X47249700Y-58133584D02*
X47249700Y-58900700D01*
%TO.N,SWDCLK*%
X48197919Y-62654999D02*
X48622920Y-63080000D01*
X48622920Y-63080000D02*
X48934000Y-63080000D01*
%TO.N,SWO*%
X54250000Y-61250000D02*
X54722818Y-61250000D01*
X50932180Y-61385002D02*
X51067182Y-61250000D01*
X51772818Y-61500000D02*
X52250000Y-61500000D01*
X59950000Y-57350000D02*
X60697315Y-57350000D01*
X57150000Y-61350000D02*
X58400000Y-60100000D01*
X58400000Y-58900000D02*
X59950000Y-57350000D01*
X54722818Y-61250000D02*
X54972818Y-61500000D01*
X56500000Y-61250000D02*
X56600000Y-61350000D01*
X55500000Y-61500000D02*
X55750000Y-61250000D01*
X50932180Y-61385002D02*
X48934000Y-61810000D01*
X53372818Y-61500000D02*
X54000000Y-61500000D01*
X54972818Y-61500000D02*
X55500000Y-61500000D01*
X56600000Y-61350000D02*
X57150000Y-61350000D01*
X55750000Y-61250000D02*
X56500000Y-61250000D01*
X54000000Y-61500000D02*
X54250000Y-61250000D01*
X51067182Y-61250000D02*
X51522818Y-61250000D01*
X53122818Y-61250000D02*
X53372818Y-61500000D01*
X52500000Y-61250000D02*
X53122818Y-61250000D01*
X51522818Y-61250000D02*
X51772818Y-61500000D01*
X52250000Y-61500000D02*
X52500000Y-61250000D01*
X58400000Y-60100000D02*
X58400000Y-58900000D01*
%TO.N,SIM_RST*%
X65500000Y-58857733D02*
X65500000Y-60700000D01*
X62800000Y-61511647D02*
X62800000Y-65624264D01*
X65218934Y-58576667D02*
X65500000Y-58857733D01*
X46594637Y-68018901D02*
X46594637Y-67335173D01*
X47475736Y-68900000D02*
X46594637Y-68018901D01*
X63251806Y-61059841D02*
X62800000Y-61511647D01*
X65140159Y-61059841D02*
X63251806Y-61059841D01*
X65500000Y-60700000D02*
X65140159Y-61059841D01*
X60174147Y-68250117D02*
X49749883Y-68250117D01*
X62800000Y-65624264D02*
X60174147Y-68250117D01*
X49100000Y-68900000D02*
X47475736Y-68900000D01*
X49749883Y-68250117D02*
X49100000Y-68900000D01*
%TO.N,SIM_CLK*%
X48850117Y-68600000D02*
X49500000Y-67950117D01*
X63400000Y-60253748D02*
X63755234Y-59898514D01*
X62500000Y-61400000D02*
X62500000Y-61387383D01*
X60049883Y-67950117D02*
X62500000Y-65500000D01*
X47250000Y-67075736D02*
X47250000Y-68250000D01*
X47250000Y-68250000D02*
X47600000Y-68600000D01*
X63400000Y-60487383D02*
X63400000Y-60253748D01*
X48588348Y-65809569D02*
X48516167Y-65809569D01*
X63755234Y-59898514D02*
X64301014Y-59898514D01*
X47600000Y-68600000D02*
X48850117Y-68600000D01*
X64301014Y-59898514D02*
X64912341Y-60509841D01*
X49500000Y-67950117D02*
X60049883Y-67950117D01*
X62500000Y-65500000D02*
X62500000Y-61400000D01*
X62500000Y-61387383D02*
X63400000Y-60487383D01*
X48516167Y-65809569D02*
X47250000Y-67075736D01*
%TO.N,SIM_IO*%
X62200000Y-65375736D02*
X59925619Y-67650117D01*
X47724264Y-68300000D02*
X47550000Y-68125736D01*
X47550000Y-68125736D02*
X47550000Y-67596871D01*
X59925619Y-67650117D02*
X49356769Y-67650117D01*
X62546459Y-60455766D02*
X62200000Y-60802225D01*
X47550000Y-67596871D02*
X48196841Y-66950030D01*
X62200000Y-60802225D02*
X62200000Y-65375736D01*
X49356769Y-67650117D02*
X48706886Y-68300000D01*
X48706886Y-68300000D02*
X47724264Y-68300000D01*
%TO.N,P0.12*%
X69851472Y-52400000D02*
X71251472Y-53800000D01*
X80372792Y-58300000D02*
X131900000Y-58300000D01*
X58974264Y-55300000D02*
X61000000Y-55300000D01*
X62500000Y-53800000D02*
X65558981Y-53800000D01*
X131900000Y-58300000D02*
X132400000Y-57800000D01*
X50750000Y-53950000D02*
X57624264Y-53950000D01*
X61000000Y-55300000D02*
X62500000Y-53800000D01*
X75872792Y-53800000D02*
X80372792Y-58300000D01*
X71251472Y-53800000D02*
X75872792Y-53800000D01*
X49332938Y-52532938D02*
X50750000Y-53950000D01*
X65558981Y-53800000D02*
X66958981Y-52400000D01*
X66958981Y-52400000D02*
X69851472Y-52400000D01*
X49332938Y-52131393D02*
X49332938Y-52532938D01*
X57624264Y-53950000D02*
X58974264Y-55300000D01*
%TO.N,P0.29*%
X81653858Y-63100000D02*
X83553858Y-65000000D01*
X145800000Y-50724997D02*
X144824997Y-51700000D01*
X103872792Y-65000000D02*
X107672792Y-68800000D01*
X144824997Y-51700000D02*
X141000000Y-51700000D01*
X63550376Y-57525360D02*
X74225360Y-57525360D01*
X107672792Y-68800000D02*
X121800000Y-68800000D01*
X61300000Y-60147937D02*
X61300000Y-60066572D01*
X134500000Y-59675736D02*
X132500000Y-61675736D01*
X129372614Y-68100001D02*
X129072615Y-68400000D01*
X63100000Y-58266572D02*
X63100000Y-57975736D01*
X75600000Y-58900000D02*
X75600000Y-60151470D01*
X121800000Y-68800000D02*
X122750000Y-67850000D01*
X140500000Y-51200000D02*
X136975736Y-51200000D01*
X74225360Y-57525360D02*
X75600000Y-58900000D01*
X75600000Y-60151470D02*
X76924265Y-61475735D01*
X76924265Y-61475735D02*
X77048530Y-61600000D01*
X132500000Y-66075736D02*
X130475735Y-68100001D01*
X79100000Y-63100000D02*
X81653858Y-63100000D01*
X60900000Y-60547937D02*
X61300000Y-60147937D01*
X77048530Y-61600000D02*
X77600000Y-61600000D01*
X83553858Y-65000000D02*
X103872792Y-65000000D01*
X129072615Y-68400000D02*
X126989000Y-68400000D01*
X130475735Y-68100001D02*
X129372614Y-68100001D01*
X134500000Y-53675736D02*
X134500000Y-59675736D01*
X77600000Y-61600000D02*
X79100000Y-63100000D01*
X126439000Y-67850000D02*
X126769222Y-68180222D01*
X132500000Y-61675736D02*
X132500000Y-66075736D01*
X126989000Y-68400000D02*
X126769222Y-68180222D01*
X61300000Y-60066572D02*
X63100000Y-58266572D01*
X136975736Y-51200000D02*
X134500000Y-53675736D01*
X63100000Y-57975736D02*
X63550376Y-57525360D01*
X60515579Y-60547937D02*
X60900000Y-60547937D01*
X122750000Y-67850000D02*
X126439000Y-67850000D01*
X141000000Y-51700000D02*
X140500000Y-51200000D01*
%TO.N,P0.31*%
X90700000Y-62700000D02*
X92087868Y-64087868D01*
X75900000Y-59324264D02*
X79275736Y-62700000D01*
X60971539Y-59806279D02*
X61650000Y-59127818D01*
X75900000Y-58600000D02*
X75900000Y-59324264D01*
X61650000Y-59001472D02*
X63426112Y-57225360D01*
X79275736Y-62700000D02*
X90700000Y-62700000D01*
X63426112Y-57225360D02*
X74525360Y-57225360D01*
X74525360Y-57225360D02*
X75900000Y-58600000D01*
X106237868Y-64087868D02*
X110400000Y-68250000D01*
X92087868Y-64087868D02*
X106237868Y-64087868D01*
X60815484Y-59806279D02*
X60971539Y-59806279D01*
X61650000Y-59127818D02*
X61650000Y-59001472D01*
%TO.N,P0.15{slash}AIN2*%
X76649624Y-55425360D02*
X62680528Y-55425360D01*
X62205888Y-55900000D02*
X58572818Y-55900000D01*
X53272818Y-55400000D02*
X53072818Y-55200000D01*
X51872182Y-55350000D02*
X51722182Y-55200000D01*
X57922818Y-55250000D02*
X55622818Y-55250000D01*
X54950000Y-55350000D02*
X54850000Y-55250000D01*
X54150000Y-55250000D02*
X54000000Y-55400000D01*
X51722182Y-55200000D02*
X48588352Y-55200000D01*
X123225000Y-59600000D02*
X122000000Y-60825000D01*
X53072818Y-55200000D02*
X52717182Y-55200000D01*
X55522818Y-55350000D02*
X54950000Y-55350000D01*
X55622818Y-55250000D02*
X55522818Y-55350000D01*
X82049264Y-60825000D02*
X76649624Y-55425360D01*
X54000000Y-55400000D02*
X53272818Y-55400000D01*
X58572818Y-55900000D02*
X57922818Y-55250000D01*
X122000000Y-60825000D02*
X82049264Y-60825000D01*
X52567182Y-55350000D02*
X51872182Y-55350000D01*
X62680528Y-55425360D02*
X62205888Y-55900000D01*
X52717182Y-55200000D02*
X52567182Y-55350000D01*
X54850000Y-55250000D02*
X54150000Y-55250000D01*
X131347919Y-59600000D02*
X123225000Y-59600000D01*
X48588352Y-55200000D02*
X48229499Y-54841147D01*
X132572919Y-60825000D02*
X131347919Y-59600000D01*
%TO.N,P0.11*%
X50874264Y-53650000D02*
X57748528Y-53650000D01*
X50000000Y-51672346D02*
X50000000Y-52775736D01*
X124300000Y-57000000D02*
X129700000Y-51600000D01*
X69975736Y-52100000D02*
X71375736Y-53500000D01*
X50000000Y-52775736D02*
X50874264Y-53650000D01*
X76475736Y-53500000D02*
X80975736Y-58000000D01*
X59098528Y-55000000D02*
X60875736Y-55000000D01*
X65434717Y-53500000D02*
X66834717Y-52100000D01*
X71375736Y-53500000D02*
X76475736Y-53500000D01*
X103375000Y-57000000D02*
X124300000Y-57000000D01*
X49841493Y-51513839D02*
X50000000Y-51672346D01*
X80975736Y-58000000D02*
X102375000Y-58000000D01*
X57748528Y-53650000D02*
X59098528Y-55000000D01*
X102375000Y-58000000D02*
X103000000Y-57375000D01*
X103000000Y-57375000D02*
X103375000Y-57000000D01*
X60875736Y-55000000D02*
X62375736Y-53500000D01*
X62375736Y-53500000D02*
X65434717Y-53500000D01*
X66834717Y-52100000D02*
X69975736Y-52100000D01*
%TO.N,P0.16{slash}AIN3*%
X137800000Y-59800000D02*
X135400000Y-59800000D01*
X55545000Y-56027818D02*
X55867182Y-56350000D01*
X55867182Y-56350000D02*
X56322818Y-56350000D01*
X81446320Y-61125000D02*
X122124264Y-61125000D01*
X56322818Y-56350000D02*
X56422818Y-56250000D01*
X51717182Y-56400000D02*
X51867182Y-56250000D01*
X123349264Y-59900000D02*
X130900000Y-59900000D01*
X58456434Y-56200000D02*
X62330152Y-56200000D01*
X133400000Y-61800000D02*
X133400000Y-63600000D01*
X51867182Y-56250000D02*
X52322818Y-56250000D01*
X135400000Y-59800000D02*
X133400000Y-61800000D01*
X57122818Y-56250000D02*
X57445000Y-56572182D01*
X62330152Y-56200000D02*
X62804792Y-55725360D01*
X130900000Y-59900000D02*
X131703520Y-60703520D01*
X62804792Y-55725360D02*
X76046680Y-55725360D01*
X52422818Y-56350000D02*
X53122818Y-56350000D01*
X48167472Y-55641294D02*
X49041294Y-55641294D01*
X52322818Y-56250000D02*
X52422818Y-56350000D01*
X49041294Y-55641294D02*
X49800000Y-56400000D01*
X55172182Y-56027818D02*
X55545000Y-56027818D01*
X58084252Y-56572182D02*
X58456434Y-56200000D01*
X56422818Y-56250000D02*
X57122818Y-56250000D01*
X53872818Y-56200000D02*
X54022818Y-56350000D01*
X53272818Y-56200000D02*
X53872818Y-56200000D01*
X131703520Y-60703520D02*
X131703520Y-60733419D01*
X122124264Y-61125000D02*
X123349264Y-59900000D01*
X76046680Y-55725360D02*
X81446320Y-61125000D01*
X57445000Y-56572182D02*
X58084252Y-56572182D01*
X53122818Y-56350000D02*
X53272818Y-56200000D01*
X49800000Y-56400000D02*
X51717182Y-56400000D01*
X54850000Y-56350000D02*
X55172182Y-56027818D01*
X54022818Y-56350000D02*
X54850000Y-56350000D01*
%TO.N,P0.19{slash}AIN6*%
X52322818Y-58250000D02*
X52645000Y-58572182D01*
X62578680Y-56800000D02*
X63053320Y-56325360D01*
X55750000Y-58350000D02*
X56322818Y-58350000D01*
X49461084Y-58400000D02*
X51717182Y-58400000D01*
X117024264Y-61800000D02*
X121574264Y-66350000D01*
X52645000Y-58572182D02*
X53145000Y-58572182D01*
X121574264Y-66350000D02*
X126718686Y-66350000D01*
X59700000Y-56800000D02*
X62578680Y-56800000D01*
X58014963Y-58485037D02*
X59700000Y-56800000D01*
X48088283Y-57027199D02*
X49461084Y-58400000D01*
X47767062Y-57027199D02*
X48088283Y-57027199D01*
X81272792Y-61800000D02*
X117024264Y-61800000D01*
X54950000Y-58250000D02*
X55650000Y-58250000D01*
X54800000Y-58400000D02*
X54950000Y-58250000D01*
X53467182Y-58250000D02*
X53922818Y-58250000D01*
X55650000Y-58250000D02*
X55750000Y-58350000D01*
X75798152Y-56325360D02*
X81272792Y-61800000D01*
X63053320Y-56325360D02*
X75798152Y-56325360D01*
X56322818Y-58350000D02*
X56472818Y-58200000D01*
X51867182Y-58250000D02*
X52322818Y-58250000D01*
X57476331Y-58485037D02*
X58014963Y-58485037D01*
X57191294Y-58200000D02*
X57476331Y-58485037D01*
X56472818Y-58200000D02*
X57191294Y-58200000D01*
X54072818Y-58400000D02*
X54800000Y-58400000D01*
X53145000Y-58572182D02*
X53467182Y-58250000D01*
X53922818Y-58250000D02*
X54072818Y-58400000D01*
X51717182Y-58400000D02*
X51867182Y-58250000D01*
X126718686Y-66350000D02*
X127893686Y-67525000D01*
%TO.N,P0.26*%
X80075736Y-62100000D02*
X116900000Y-62100000D01*
X121450000Y-66650000D02*
X126150000Y-66650000D01*
X59900000Y-57900000D02*
X61902944Y-57900000D01*
X63177584Y-56625360D02*
X74773888Y-56625360D01*
X76937868Y-58789340D02*
X76937868Y-58962132D01*
X60700000Y-63700000D02*
X59100000Y-62100000D01*
X126150000Y-66650000D02*
X127575000Y-68075000D01*
X128399696Y-68075000D02*
X128624696Y-67850000D01*
X116900000Y-62100000D02*
X121450000Y-66650000D01*
X127575000Y-68075000D02*
X128399696Y-68075000D01*
X74773888Y-56625360D02*
X76937868Y-58789340D01*
X76937868Y-58962132D02*
X80075736Y-62100000D01*
X61902944Y-57900000D02*
X63177584Y-56625360D01*
X59100000Y-58700000D02*
X59900000Y-57900000D01*
X59100000Y-62100000D02*
X59100000Y-58700000D01*
%TO.N,P0.14{slash}AIN1*%
X49031770Y-54600000D02*
X48520500Y-54088730D01*
X50200000Y-54600000D02*
X49031770Y-54600000D01*
X50550000Y-54250000D02*
X50200000Y-54600000D01*
X58850000Y-55600000D02*
X57500000Y-54250000D01*
X62556264Y-55125360D02*
X62081624Y-55600000D01*
X132400000Y-58600000D02*
X80248528Y-58600000D01*
X76773888Y-55125360D02*
X62556264Y-55125360D01*
X62081624Y-55600000D02*
X58850000Y-55600000D01*
X57500000Y-54250000D02*
X50550000Y-54250000D01*
X80248528Y-58600000D02*
X76773888Y-55125360D01*
%TO.N,P0.28*%
X136600000Y-52000000D02*
X134800000Y-53800000D01*
X121924264Y-69100000D02*
X122624264Y-68400000D01*
X60578408Y-61343774D02*
X61600000Y-60322182D01*
X78575736Y-63400000D02*
X77375736Y-62200000D01*
X132800000Y-61800000D02*
X132800000Y-66200000D01*
X129496878Y-68400001D02*
X129166657Y-68730222D01*
X145800000Y-51600000D02*
X145400000Y-52000000D01*
X145400000Y-52000000D02*
X136600000Y-52000000D01*
X122624264Y-68400000D02*
X126000000Y-68400000D01*
X130599999Y-68400001D02*
X129496878Y-68400001D01*
X60434045Y-61343774D02*
X60578408Y-61343774D01*
X63400000Y-58100000D02*
X63674640Y-57825360D01*
X72496072Y-57825360D02*
X76870712Y-62200000D01*
X81529594Y-63400000D02*
X78575736Y-63400000D01*
X63674640Y-57825360D02*
X72496072Y-57825360D01*
X134800000Y-53800000D02*
X134800000Y-59800000D01*
X121924264Y-69100000D02*
X107548528Y-69100000D01*
X107548528Y-69100000D02*
X103767462Y-65318934D01*
X77375736Y-62200000D02*
X77322101Y-62200000D01*
X76870712Y-62200000D02*
X77322101Y-62200000D01*
X83448528Y-65318934D02*
X81529594Y-63400000D01*
X129166657Y-68730222D02*
X126330222Y-68730222D01*
X126330222Y-68730222D02*
X126000000Y-68400000D01*
X132800000Y-66200000D02*
X130599999Y-68400001D01*
X103767462Y-65318934D02*
X83448528Y-65318934D01*
X63400000Y-58390836D02*
X63400000Y-58100000D01*
X134800000Y-59800000D02*
X132800000Y-61800000D01*
X61600000Y-60190836D02*
X63400000Y-58390836D01*
X61600000Y-60322182D02*
X61600000Y-60190836D01*
%TO.N,P0.27*%
X60024264Y-58200000D02*
X62027208Y-58200000D01*
X106737868Y-63787868D02*
X111200000Y-68250000D01*
X92212132Y-63787868D02*
X106737868Y-63787868D01*
X79400000Y-62400000D02*
X90824264Y-62400000D01*
X76475736Y-59475736D02*
X79400000Y-62400000D01*
X63301848Y-56925360D02*
X74649624Y-56925360D01*
X62027208Y-58200000D02*
X63301848Y-56925360D01*
X90824264Y-62400000D02*
X92212132Y-63787868D01*
X59400000Y-61622182D02*
X59400000Y-58824264D01*
X59400000Y-58824264D02*
X60024264Y-58200000D01*
X76475736Y-58751472D02*
X76475736Y-59475736D01*
X74649624Y-56925360D02*
X76475736Y-58751472D01*
X60632750Y-62854932D02*
X59400000Y-61622182D01*
%TO.N,P0.04*%
X62251472Y-53200000D02*
X62600000Y-53200000D01*
X71300000Y-53000000D02*
X76400000Y-53000000D01*
X70000000Y-51700000D02*
X71300000Y-53000000D01*
X119200000Y-56200000D02*
X119100000Y-56100000D01*
X119200000Y-56400000D02*
X119200000Y-56200000D01*
X65224264Y-51700000D02*
X70000000Y-51700000D01*
X76400000Y-53000000D02*
X81100000Y-57700000D01*
X81100000Y-57700000D02*
X98300000Y-57700000D01*
X118900000Y-56700000D02*
X119200000Y-56400000D01*
X63724264Y-53200000D02*
X65224264Y-51700000D01*
X99300000Y-56700000D02*
X118900000Y-56700000D01*
X62600000Y-53200000D02*
X63724264Y-53200000D01*
X60300757Y-54449621D02*
X61001851Y-54449621D01*
X98300000Y-57700000D02*
X99300000Y-56700000D01*
X61001851Y-54449621D02*
X62251472Y-53200000D01*
%TO.N,P0.18{slash}AIN5*%
X53250000Y-57250000D02*
X53358591Y-57358591D01*
X55867182Y-57250000D02*
X56450000Y-57250000D01*
X58580698Y-56500000D02*
X62454416Y-56500000D01*
X126842950Y-66050000D02*
X127696475Y-66903525D01*
X55758591Y-57358591D02*
X55867182Y-57250000D01*
X51845000Y-57572182D02*
X52345000Y-57572182D01*
X56550000Y-57350000D02*
X57730698Y-57350000D01*
X52345000Y-57572182D02*
X52667182Y-57250000D01*
X54267182Y-57250000D02*
X54850000Y-57250000D01*
X62454416Y-56500000D02*
X62929056Y-56025360D01*
X57730698Y-57350000D02*
X58580698Y-56500000D01*
X53358591Y-57358591D02*
X54158591Y-57358591D01*
X121698528Y-66050000D02*
X126842950Y-66050000D01*
X48556147Y-56717246D02*
X50990064Y-56717246D01*
X127696475Y-66903525D02*
X129728831Y-66903525D01*
X54158591Y-57358591D02*
X54267182Y-57250000D01*
X62929056Y-56025360D02*
X75922416Y-56025360D01*
X50990064Y-56717246D02*
X51845000Y-57572182D01*
X52667182Y-57250000D02*
X53250000Y-57250000D01*
X129728831Y-66903525D02*
X130212653Y-67387347D01*
X75922416Y-56025360D02*
X81397056Y-61500000D01*
X54850000Y-57250000D02*
X54958591Y-57358591D01*
X54958591Y-57358591D02*
X55758591Y-57358591D01*
X117148528Y-61500000D02*
X121698528Y-66050000D01*
X81397056Y-61500000D02*
X117148528Y-61500000D01*
X56450000Y-57250000D02*
X56550000Y-57350000D01*
%TD*%
%TA.AperFunction,Conductor*%
%TO.N,GND*%
G36*
X55799227Y-50019685D02*
G01*
X55844982Y-50072489D01*
X55854926Y-50141647D01*
X55825901Y-50205203D01*
X55799229Y-50228313D01*
X55752694Y-50258219D01*
X55702809Y-50290278D01*
X55702808Y-50290279D01*
X55613271Y-50393611D01*
X55613266Y-50393618D01*
X55556469Y-50517987D01*
X55556467Y-50517995D01*
X55537009Y-50653333D01*
X55556467Y-50788670D01*
X55556469Y-50788678D01*
X55613266Y-50913047D01*
X55613271Y-50913054D01*
X55702808Y-51016386D01*
X55702812Y-51016390D01*
X55741823Y-51041460D01*
X55817836Y-51090310D01*
X55817840Y-51090312D01*
X55868322Y-51105135D01*
X55927101Y-51142909D01*
X55956126Y-51206465D01*
X55946183Y-51275623D01*
X55900428Y-51328427D01*
X55868323Y-51343089D01*
X55800440Y-51363021D01*
X55685413Y-51436942D01*
X55685409Y-51436946D01*
X55595872Y-51540278D01*
X55595867Y-51540285D01*
X55539070Y-51664654D01*
X55539068Y-51664662D01*
X55519610Y-51800000D01*
X55539068Y-51935337D01*
X55539070Y-51935345D01*
X55595867Y-52059714D01*
X55595872Y-52059721D01*
X55685409Y-52163053D01*
X55685413Y-52163057D01*
X55737453Y-52196500D01*
X55800439Y-52236978D01*
X55866036Y-52256239D01*
X55931632Y-52275500D01*
X55931633Y-52275500D01*
X56068367Y-52275500D01*
X56199561Y-52236978D01*
X56314589Y-52163055D01*
X56404130Y-52059718D01*
X56408401Y-52050367D01*
X56427904Y-52007661D01*
X56460931Y-51935342D01*
X56480390Y-51800000D01*
X56460931Y-51664658D01*
X56446406Y-51632853D01*
X56404132Y-51540285D01*
X56404127Y-51540278D01*
X56314590Y-51436946D01*
X56314586Y-51436942D01*
X56199559Y-51363021D01*
X56149074Y-51348197D01*
X56090296Y-51310422D01*
X56061272Y-51246866D01*
X56071216Y-51177708D01*
X56116971Y-51124904D01*
X56149069Y-51110245D01*
X56216960Y-51090311D01*
X56331988Y-51016388D01*
X56421529Y-50913051D01*
X56478330Y-50788675D01*
X56497789Y-50653333D01*
X56478330Y-50517991D01*
X56466076Y-50491160D01*
X56421531Y-50393618D01*
X56421526Y-50393611D01*
X56331989Y-50290279D01*
X56331988Y-50290278D01*
X56328912Y-50288301D01*
X56235569Y-50228314D01*
X56189816Y-50175512D01*
X56179872Y-50106354D01*
X56208896Y-50042798D01*
X56267674Y-50005023D01*
X56302610Y-50000000D01*
X140076000Y-50000000D01*
X140143039Y-50019685D01*
X140188794Y-50072489D01*
X140200000Y-50124000D01*
X140200000Y-50850500D01*
X140180315Y-50917539D01*
X140127511Y-50963294D01*
X140076000Y-50974500D01*
X137020590Y-50974500D01*
X136930881Y-50974500D01*
X136930879Y-50974500D01*
X136930877Y-50974501D01*
X136848002Y-51008827D01*
X134308830Y-53547999D01*
X134308830Y-53548001D01*
X134274499Y-53630880D01*
X134274499Y-53735024D01*
X134274500Y-53735033D01*
X134274500Y-59530968D01*
X134254815Y-59598007D01*
X134238181Y-59618649D01*
X133201932Y-60654897D01*
X133140609Y-60688382D01*
X133070917Y-60683398D01*
X133014984Y-60641526D01*
X133001457Y-60618727D01*
X132977051Y-60565285D01*
X132977046Y-60565278D01*
X132887509Y-60461946D01*
X132887505Y-60461942D01*
X132781748Y-60393978D01*
X132772480Y-60388022D01*
X132772479Y-60388021D01*
X132772478Y-60388021D01*
X132641287Y-60349500D01*
X132641286Y-60349500D01*
X132504552Y-60349500D01*
X132495774Y-60350762D01*
X132495491Y-60348799D01*
X132437067Y-60348797D01*
X132384326Y-60317502D01*
X131556530Y-59489706D01*
X131556528Y-59489703D01*
X131475654Y-59408829D01*
X131454938Y-59400249D01*
X131448870Y-59397735D01*
X131448868Y-59397733D01*
X131392775Y-59374499D01*
X131392774Y-59374499D01*
X131303064Y-59374499D01*
X131288630Y-59374499D01*
X131288622Y-59374500D01*
X123284297Y-59374500D01*
X123284289Y-59374499D01*
X123269855Y-59374499D01*
X123180146Y-59374499D01*
X123180143Y-59374499D01*
X123146494Y-59388437D01*
X123146495Y-59388438D01*
X123097267Y-59408829D01*
X123097262Y-59408831D01*
X123062873Y-59443221D01*
X123033830Y-59472264D01*
X123033829Y-59472265D01*
X122470492Y-60035603D01*
X121942914Y-60563181D01*
X121881591Y-60596666D01*
X121855233Y-60599500D01*
X82194031Y-60599500D01*
X82126992Y-60579815D01*
X82106350Y-60563181D01*
X80580350Y-59037181D01*
X80546865Y-58975858D01*
X80551849Y-58906166D01*
X80593721Y-58850233D01*
X80659185Y-58825816D01*
X80668031Y-58825500D01*
X131909591Y-58825500D01*
X131976630Y-58845185D01*
X132003304Y-58868298D01*
X132085409Y-58963053D01*
X132085413Y-58963057D01*
X132132637Y-58993405D01*
X132200439Y-59036978D01*
X132247509Y-59050799D01*
X132331632Y-59075500D01*
X132331633Y-59075500D01*
X132468367Y-59075500D01*
X132599561Y-59036978D01*
X132714589Y-58963055D01*
X132804130Y-58859718D01*
X132806219Y-58855145D01*
X132821371Y-58821965D01*
X132860931Y-58735342D01*
X132880390Y-58600000D01*
X132879743Y-58595501D01*
X132870175Y-58528950D01*
X132860931Y-58464658D01*
X132845526Y-58430925D01*
X132804132Y-58340285D01*
X132804130Y-58340283D01*
X132804130Y-58340282D01*
X132752935Y-58281199D01*
X132723912Y-58217648D01*
X132733855Y-58148489D01*
X132752933Y-58118802D01*
X132804130Y-58059718D01*
X132804537Y-58058828D01*
X132831964Y-57998771D01*
X132860931Y-57935342D01*
X132880390Y-57800000D01*
X132860931Y-57664658D01*
X132832321Y-57602011D01*
X132804132Y-57540285D01*
X132804127Y-57540278D01*
X132714590Y-57436946D01*
X132714586Y-57436942D01*
X132605978Y-57367146D01*
X132599561Y-57363022D01*
X132599560Y-57363021D01*
X132599559Y-57363021D01*
X132468368Y-57324500D01*
X132468367Y-57324500D01*
X132331633Y-57324500D01*
X132331632Y-57324500D01*
X132200440Y-57363021D01*
X132085413Y-57436942D01*
X132085409Y-57436946D01*
X131995872Y-57540278D01*
X131995867Y-57540285D01*
X131939070Y-57664654D01*
X131939068Y-57664662D01*
X131919610Y-57800000D01*
X131931075Y-57879747D01*
X131921131Y-57948905D01*
X131896020Y-57985073D01*
X131842915Y-58038180D01*
X131781592Y-58071666D01*
X131755232Y-58074500D01*
X103167933Y-58074500D01*
X103100894Y-58054815D01*
X103055139Y-58002011D01*
X103045195Y-57932853D01*
X103074220Y-57869297D01*
X103132998Y-57831523D01*
X103158165Y-57824132D01*
X103199561Y-57811978D01*
X103314589Y-57738055D01*
X103404130Y-57634718D01*
X103460931Y-57510342D01*
X103480390Y-57375000D01*
X103479261Y-57367146D01*
X103489205Y-57297987D01*
X103534961Y-57245184D01*
X103601999Y-57225500D01*
X124240703Y-57225500D01*
X124240711Y-57225501D01*
X124255145Y-57225501D01*
X124344853Y-57225501D01*
X124344855Y-57225501D01*
X124403460Y-57201225D01*
X124427736Y-57191170D01*
X124491170Y-57127736D01*
X124491170Y-57127735D01*
X124508608Y-57110297D01*
X124508610Y-57110294D01*
X129103500Y-52515403D01*
X129164821Y-52481920D01*
X129234513Y-52486904D01*
X129249622Y-52493723D01*
X129315273Y-52528814D01*
X129503868Y-52586024D01*
X129700000Y-52605341D01*
X129896132Y-52586024D01*
X130084727Y-52528814D01*
X130098894Y-52521242D01*
X130181165Y-52477267D01*
X130258538Y-52435910D01*
X130410883Y-52310883D01*
X130535910Y-52158538D01*
X130594265Y-52049364D01*
X130628811Y-51984733D01*
X130628813Y-51984728D01*
X130628814Y-51984727D01*
X130686024Y-51796132D01*
X130705341Y-51600000D01*
X130686024Y-51403868D01*
X130628814Y-51215273D01*
X130628811Y-51215269D01*
X130628811Y-51215266D01*
X130535913Y-51041467D01*
X130535909Y-51041460D01*
X130410883Y-50889116D01*
X130258539Y-50764090D01*
X130258532Y-50764086D01*
X130084733Y-50671188D01*
X130084727Y-50671186D01*
X129896132Y-50613976D01*
X129896129Y-50613975D01*
X129700000Y-50594659D01*
X129503870Y-50613975D01*
X129315266Y-50671188D01*
X129141467Y-50764086D01*
X129141460Y-50764090D01*
X128989116Y-50889116D01*
X128864090Y-51041460D01*
X128864086Y-51041467D01*
X128771188Y-51215266D01*
X128713975Y-51403870D01*
X128694659Y-51600000D01*
X128713975Y-51796129D01*
X128714693Y-51798495D01*
X128771186Y-51984727D01*
X128798963Y-52036695D01*
X128806271Y-52050367D01*
X128820512Y-52118770D01*
X128795511Y-52184013D01*
X128784593Y-52196500D01*
X124242914Y-56738181D01*
X124181591Y-56771666D01*
X124155233Y-56774500D01*
X119443769Y-56774500D01*
X119376730Y-56754815D01*
X119330975Y-56702011D01*
X119321031Y-56632853D01*
X119350056Y-56569297D01*
X119356088Y-56562819D01*
X119391168Y-56527739D01*
X119391169Y-56527737D01*
X119391170Y-56527736D01*
X119403643Y-56497624D01*
X119413361Y-56474160D01*
X119434207Y-56440413D01*
X119504130Y-56359718D01*
X119506656Y-56354188D01*
X119526670Y-56310363D01*
X119560931Y-56235342D01*
X119580390Y-56100000D01*
X119560931Y-55964658D01*
X119531863Y-55901008D01*
X119504132Y-55840285D01*
X119504127Y-55840278D01*
X119414590Y-55736946D01*
X119414586Y-55736942D01*
X119307805Y-55668320D01*
X119299561Y-55663022D01*
X119299560Y-55663021D01*
X119299559Y-55663021D01*
X119297963Y-55662292D01*
X119296637Y-55661143D01*
X119292101Y-55658228D01*
X119292520Y-55657575D01*
X119245161Y-55616536D01*
X119225479Y-55549495D01*
X119245166Y-55482457D01*
X119297972Y-55436704D01*
X119349479Y-55425500D01*
X123500703Y-55425500D01*
X123500711Y-55425501D01*
X123515145Y-55425501D01*
X123604853Y-55425501D01*
X123604855Y-55425501D01*
X123663460Y-55401225D01*
X123687736Y-55391170D01*
X123751170Y-55327736D01*
X123751170Y-55327735D01*
X123768608Y-55310297D01*
X123768610Y-55310294D01*
X126563500Y-52515403D01*
X126624821Y-52481920D01*
X126694513Y-52486904D01*
X126709622Y-52493723D01*
X126775273Y-52528814D01*
X126963868Y-52586024D01*
X127160000Y-52605341D01*
X127356132Y-52586024D01*
X127544727Y-52528814D01*
X127558894Y-52521242D01*
X127641165Y-52477267D01*
X127718538Y-52435910D01*
X127870883Y-52310883D01*
X127995910Y-52158538D01*
X128054265Y-52049364D01*
X128088811Y-51984733D01*
X128088813Y-51984728D01*
X128088814Y-51984727D01*
X128146024Y-51796132D01*
X128165341Y-51600000D01*
X128146024Y-51403868D01*
X128088814Y-51215273D01*
X128088811Y-51215269D01*
X128088811Y-51215266D01*
X127995913Y-51041467D01*
X127995909Y-51041460D01*
X127870883Y-50889116D01*
X127718539Y-50764090D01*
X127718532Y-50764086D01*
X127544733Y-50671188D01*
X127544727Y-50671186D01*
X127356132Y-50613976D01*
X127356129Y-50613975D01*
X127160000Y-50594659D01*
X126963870Y-50613975D01*
X126775266Y-50671188D01*
X126601467Y-50764086D01*
X126601460Y-50764090D01*
X126449116Y-50889116D01*
X126324090Y-51041460D01*
X126324086Y-51041467D01*
X126231188Y-51215266D01*
X126173975Y-51403870D01*
X126154659Y-51600000D01*
X126173975Y-51796129D01*
X126174693Y-51798495D01*
X126231186Y-51984727D01*
X126258963Y-52036695D01*
X126266271Y-52050367D01*
X126280512Y-52118770D01*
X126255511Y-52184013D01*
X126244593Y-52196500D01*
X123502914Y-54938181D01*
X123441591Y-54971666D01*
X123415233Y-54974500D01*
X121863768Y-54974500D01*
X121796729Y-54954815D01*
X121750974Y-54902011D01*
X121741030Y-54832853D01*
X121770055Y-54769297D01*
X121776087Y-54762819D01*
X121800725Y-54738181D01*
X121811170Y-54727736D01*
X121811170Y-54727735D01*
X121828608Y-54710297D01*
X121828610Y-54710294D01*
X124023500Y-52515403D01*
X124084821Y-52481920D01*
X124154513Y-52486904D01*
X124169622Y-52493723D01*
X124235273Y-52528814D01*
X124423868Y-52586024D01*
X124620000Y-52605341D01*
X124816132Y-52586024D01*
X125004727Y-52528814D01*
X125018894Y-52521242D01*
X125101165Y-52477267D01*
X125178538Y-52435910D01*
X125330883Y-52310883D01*
X125455910Y-52158538D01*
X125514265Y-52049364D01*
X125548811Y-51984733D01*
X125548813Y-51984728D01*
X125548814Y-51984727D01*
X125606024Y-51796132D01*
X125625341Y-51600000D01*
X125606024Y-51403868D01*
X125548814Y-51215273D01*
X125548811Y-51215269D01*
X125548811Y-51215266D01*
X125455913Y-51041467D01*
X125455909Y-51041460D01*
X125330883Y-50889116D01*
X125178539Y-50764090D01*
X125178532Y-50764086D01*
X125004733Y-50671188D01*
X125004727Y-50671186D01*
X124816132Y-50613976D01*
X124816129Y-50613975D01*
X124620000Y-50594659D01*
X124423870Y-50613975D01*
X124235266Y-50671188D01*
X124061467Y-50764086D01*
X124061460Y-50764090D01*
X123909116Y-50889116D01*
X123784090Y-51041460D01*
X123784086Y-51041467D01*
X123691188Y-51215266D01*
X123633975Y-51403870D01*
X123614659Y-51600000D01*
X123633975Y-51796129D01*
X123634693Y-51798495D01*
X123691186Y-51984727D01*
X123718963Y-52036695D01*
X123726271Y-52050367D01*
X123740512Y-52118770D01*
X123715511Y-52184013D01*
X123704593Y-52196500D01*
X121562914Y-54338181D01*
X121501591Y-54371666D01*
X121475233Y-54374500D01*
X116859297Y-54374500D01*
X116859289Y-54374499D01*
X116844855Y-54374499D01*
X116755146Y-54374499D01*
X116755144Y-54374499D01*
X116755142Y-54374500D01*
X116706594Y-54394609D01*
X116672265Y-54408828D01*
X116640548Y-54440546D01*
X116608830Y-54472264D01*
X116608829Y-54472265D01*
X115933030Y-55148065D01*
X115292914Y-55788181D01*
X115231591Y-55821666D01*
X115205233Y-55824500D01*
X114393768Y-55824500D01*
X114326729Y-55804815D01*
X114280974Y-55752011D01*
X114271030Y-55682853D01*
X114277666Y-55668320D01*
X114275994Y-55667902D01*
X114275995Y-55667898D01*
X114285635Y-55650870D01*
X114300055Y-55619297D01*
X114306087Y-55612819D01*
X114308608Y-55610297D01*
X114308609Y-55610294D01*
X115857086Y-54061819D01*
X115918409Y-54028334D01*
X115944767Y-54025500D01*
X119820703Y-54025500D01*
X119820711Y-54025501D01*
X119835145Y-54025501D01*
X119924853Y-54025501D01*
X119924855Y-54025501D01*
X119983460Y-54001225D01*
X120007736Y-53991170D01*
X120071170Y-53927736D01*
X120071170Y-53927735D01*
X120088608Y-53910297D01*
X120088610Y-53910294D01*
X121483500Y-52515403D01*
X121544821Y-52481920D01*
X121614513Y-52486904D01*
X121629622Y-52493723D01*
X121695273Y-52528814D01*
X121883868Y-52586024D01*
X122080000Y-52605341D01*
X122276132Y-52586024D01*
X122464727Y-52528814D01*
X122478894Y-52521242D01*
X122561165Y-52477267D01*
X122638538Y-52435910D01*
X122790883Y-52310883D01*
X122915910Y-52158538D01*
X122974265Y-52049364D01*
X123008811Y-51984733D01*
X123008813Y-51984728D01*
X123008814Y-51984727D01*
X123066024Y-51796132D01*
X123085341Y-51600000D01*
X123066024Y-51403868D01*
X123008814Y-51215273D01*
X123008811Y-51215269D01*
X123008811Y-51215266D01*
X122915913Y-51041467D01*
X122915909Y-51041460D01*
X122790883Y-50889116D01*
X122638539Y-50764090D01*
X122638532Y-50764086D01*
X122464733Y-50671188D01*
X122464727Y-50671186D01*
X122276132Y-50613976D01*
X122276129Y-50613975D01*
X122080000Y-50594659D01*
X121883870Y-50613975D01*
X121695266Y-50671188D01*
X121521467Y-50764086D01*
X121521460Y-50764090D01*
X121369116Y-50889116D01*
X121244090Y-51041460D01*
X121244086Y-51041467D01*
X121151188Y-51215266D01*
X121093975Y-51403870D01*
X121074659Y-51600000D01*
X121093975Y-51796129D01*
X121094693Y-51798495D01*
X121151186Y-51984727D01*
X121178963Y-52036695D01*
X121186271Y-52050367D01*
X121200512Y-52118770D01*
X121175511Y-52184013D01*
X121164593Y-52196500D01*
X119822914Y-53538181D01*
X119761591Y-53571666D01*
X119735233Y-53574500D01*
X115859297Y-53574500D01*
X115859289Y-53574499D01*
X115844855Y-53574499D01*
X115755145Y-53574499D01*
X115755143Y-53574499D01*
X115720813Y-53588719D01*
X115696539Y-53598774D01*
X115696537Y-53598774D01*
X115672264Y-53608829D01*
X115629343Y-53651751D01*
X115608830Y-53672264D01*
X115608829Y-53672265D01*
X114808830Y-54472265D01*
X114042914Y-55238181D01*
X113981591Y-55271666D01*
X113955233Y-55274500D01*
X92105145Y-55274500D01*
X92105143Y-55274500D01*
X92105141Y-55274501D01*
X92022266Y-55308827D01*
X92022264Y-55308829D01*
X91958829Y-55372265D01*
X91288592Y-56042501D01*
X91227269Y-56075986D01*
X91177368Y-56074207D01*
X91177145Y-56075762D01*
X91168367Y-56074500D01*
X91031633Y-56074500D01*
X91022855Y-56075762D01*
X91022572Y-56073799D01*
X90964148Y-56073797D01*
X90911407Y-56042502D01*
X90358611Y-55489706D01*
X90358609Y-55489703D01*
X90277737Y-55408831D01*
X90277736Y-55408830D01*
X90243995Y-55394854D01*
X90194855Y-55374499D01*
X90105145Y-55374499D01*
X90090711Y-55374499D01*
X90090703Y-55374500D01*
X80744767Y-55374500D01*
X80677728Y-55354815D01*
X80657086Y-55338181D01*
X77783727Y-52464822D01*
X105839499Y-52464822D01*
X105848231Y-52508717D01*
X105848234Y-52508724D01*
X105881495Y-52558503D01*
X105881496Y-52558504D01*
X105931278Y-52591767D01*
X105931281Y-52591767D01*
X105931282Y-52591768D01*
X105975177Y-52600500D01*
X105975180Y-52600500D01*
X107704822Y-52600500D01*
X107748717Y-52591768D01*
X107748717Y-52591767D01*
X107748722Y-52591767D01*
X107798504Y-52558504D01*
X107831767Y-52508722D01*
X107831947Y-52507817D01*
X107840500Y-52464822D01*
X107840500Y-51600000D01*
X108374659Y-51600000D01*
X108393975Y-51796129D01*
X108394693Y-51798495D01*
X108447405Y-51972264D01*
X108451188Y-51984733D01*
X108544086Y-52158532D01*
X108544090Y-52158539D01*
X108669116Y-52310883D01*
X108821460Y-52435909D01*
X108821467Y-52435913D01*
X108995266Y-52528811D01*
X108995269Y-52528811D01*
X108995273Y-52528814D01*
X109183868Y-52586024D01*
X109380000Y-52605341D01*
X109576132Y-52586024D01*
X109764727Y-52528814D01*
X109778894Y-52521242D01*
X109861165Y-52477267D01*
X109938538Y-52435910D01*
X110090883Y-52310883D01*
X110215910Y-52158538D01*
X110274265Y-52049364D01*
X110308811Y-51984733D01*
X110308813Y-51984728D01*
X110308814Y-51984727D01*
X110366024Y-51796132D01*
X110385341Y-51600000D01*
X110914659Y-51600000D01*
X110933975Y-51796129D01*
X110934693Y-51798495D01*
X110987405Y-51972264D01*
X110991188Y-51984733D01*
X111084086Y-52158532D01*
X111084090Y-52158539D01*
X111209116Y-52310883D01*
X111361460Y-52435909D01*
X111361467Y-52435913D01*
X111535266Y-52528811D01*
X111535269Y-52528811D01*
X111535273Y-52528814D01*
X111723868Y-52586024D01*
X111920000Y-52605341D01*
X112116132Y-52586024D01*
X112304727Y-52528814D01*
X112318894Y-52521242D01*
X112401165Y-52477267D01*
X112478538Y-52435910D01*
X112630883Y-52310883D01*
X112755910Y-52158538D01*
X112814265Y-52049364D01*
X112848811Y-51984733D01*
X112848813Y-51984728D01*
X112848814Y-51984727D01*
X112906024Y-51796132D01*
X112925341Y-51600000D01*
X112910567Y-51449999D01*
X113419693Y-51449999D01*
X113419693Y-51450000D01*
X113982555Y-51450000D01*
X113960000Y-51534174D01*
X113960000Y-51665826D01*
X113982555Y-51750000D01*
X113419693Y-51750000D01*
X113425191Y-51805834D01*
X113485233Y-52003766D01*
X113582728Y-52186166D01*
X113582732Y-52186173D01*
X113713944Y-52346055D01*
X113873826Y-52477267D01*
X113873833Y-52477271D01*
X114056233Y-52574766D01*
X114254165Y-52634808D01*
X114309999Y-52640306D01*
X114310000Y-52640306D01*
X114310000Y-52077445D01*
X114394174Y-52100000D01*
X114525826Y-52100000D01*
X114610000Y-52077445D01*
X114610000Y-52640306D01*
X114665834Y-52634808D01*
X114863766Y-52574766D01*
X115046166Y-52477271D01*
X115046173Y-52477267D01*
X115206055Y-52346055D01*
X115337267Y-52186173D01*
X115337271Y-52186166D01*
X115434766Y-52003766D01*
X115494808Y-51805834D01*
X115500307Y-51750000D01*
X114937445Y-51750000D01*
X114960000Y-51665826D01*
X114960000Y-51600000D01*
X115994659Y-51600000D01*
X116013975Y-51796129D01*
X116014693Y-51798495D01*
X116067405Y-51972264D01*
X116071188Y-51984733D01*
X116164086Y-52158532D01*
X116164090Y-52158539D01*
X116289116Y-52310883D01*
X116441460Y-52435909D01*
X116441467Y-52435913D01*
X116615266Y-52528811D01*
X116615269Y-52528811D01*
X116615273Y-52528814D01*
X116803868Y-52586024D01*
X117000000Y-52605341D01*
X117196132Y-52586024D01*
X117384727Y-52528814D01*
X117398894Y-52521242D01*
X117481165Y-52477267D01*
X117558538Y-52435910D01*
X117710883Y-52310883D01*
X117835910Y-52158538D01*
X117894265Y-52049364D01*
X117928811Y-51984733D01*
X117928813Y-51984728D01*
X117928814Y-51984727D01*
X117986024Y-51796132D01*
X118005341Y-51600000D01*
X117990567Y-51449999D01*
X118499693Y-51449999D01*
X118499693Y-51450000D01*
X119062555Y-51450000D01*
X119040000Y-51534174D01*
X119040000Y-51665826D01*
X119062555Y-51750000D01*
X118499693Y-51750000D01*
X118505191Y-51805834D01*
X118565233Y-52003766D01*
X118662728Y-52186166D01*
X118662732Y-52186173D01*
X118793944Y-52346055D01*
X118953826Y-52477267D01*
X118953833Y-52477271D01*
X119136233Y-52574766D01*
X119334165Y-52634808D01*
X119389999Y-52640306D01*
X119390000Y-52640306D01*
X119390000Y-52077445D01*
X119474174Y-52100000D01*
X119605826Y-52100000D01*
X119690000Y-52077445D01*
X119690000Y-52640306D01*
X119745834Y-52634808D01*
X119943766Y-52574766D01*
X120126166Y-52477271D01*
X120126173Y-52477267D01*
X120286055Y-52346055D01*
X120417267Y-52186173D01*
X120417271Y-52186166D01*
X120514766Y-52003766D01*
X120574808Y-51805834D01*
X120580307Y-51750000D01*
X120017445Y-51750000D01*
X120040000Y-51665826D01*
X120040000Y-51534174D01*
X120017445Y-51450000D01*
X120580307Y-51450000D01*
X120580306Y-51449999D01*
X120574808Y-51394165D01*
X120514766Y-51196233D01*
X120417271Y-51013833D01*
X120417267Y-51013826D01*
X120286055Y-50853944D01*
X120126173Y-50722732D01*
X120126166Y-50722728D01*
X119943766Y-50625233D01*
X119745833Y-50565191D01*
X119690000Y-50559692D01*
X119690000Y-51122554D01*
X119605826Y-51100000D01*
X119474174Y-51100000D01*
X119390000Y-51122554D01*
X119390000Y-50559692D01*
X119334166Y-50565191D01*
X119334165Y-50565191D01*
X119136233Y-50625233D01*
X118953833Y-50722728D01*
X118953826Y-50722732D01*
X118793944Y-50853944D01*
X118662732Y-51013826D01*
X118662728Y-51013833D01*
X118565233Y-51196233D01*
X118505191Y-51394165D01*
X118499693Y-51449999D01*
X117990567Y-51449999D01*
X117986024Y-51403868D01*
X117928814Y-51215273D01*
X117928811Y-51215269D01*
X117928811Y-51215266D01*
X117835913Y-51041467D01*
X117835909Y-51041460D01*
X117710883Y-50889116D01*
X117558539Y-50764090D01*
X117558532Y-50764086D01*
X117384733Y-50671188D01*
X117384727Y-50671186D01*
X117196132Y-50613976D01*
X117196129Y-50613975D01*
X117000000Y-50594659D01*
X116803870Y-50613975D01*
X116615266Y-50671188D01*
X116441467Y-50764086D01*
X116441460Y-50764090D01*
X116289116Y-50889116D01*
X116164090Y-51041460D01*
X116164086Y-51041467D01*
X116071188Y-51215266D01*
X116013975Y-51403870D01*
X115994659Y-51600000D01*
X114960000Y-51600000D01*
X114960000Y-51534174D01*
X114937445Y-51450000D01*
X115500307Y-51450000D01*
X115500306Y-51449999D01*
X115494808Y-51394165D01*
X115434766Y-51196233D01*
X115337271Y-51013833D01*
X115337267Y-51013826D01*
X115206055Y-50853944D01*
X115046173Y-50722732D01*
X115046166Y-50722728D01*
X114863766Y-50625233D01*
X114665833Y-50565191D01*
X114610000Y-50559692D01*
X114610000Y-51122554D01*
X114525826Y-51100000D01*
X114394174Y-51100000D01*
X114310000Y-51122554D01*
X114310000Y-50559692D01*
X114254166Y-50565191D01*
X114254165Y-50565191D01*
X114056233Y-50625233D01*
X113873833Y-50722728D01*
X113873826Y-50722732D01*
X113713944Y-50853944D01*
X113582732Y-51013826D01*
X113582728Y-51013833D01*
X113485233Y-51196233D01*
X113425191Y-51394165D01*
X113419693Y-51449999D01*
X112910567Y-51449999D01*
X112906024Y-51403868D01*
X112848814Y-51215273D01*
X112848811Y-51215269D01*
X112848811Y-51215266D01*
X112755913Y-51041467D01*
X112755909Y-51041460D01*
X112630883Y-50889116D01*
X112478539Y-50764090D01*
X112478532Y-50764086D01*
X112304733Y-50671188D01*
X112304727Y-50671186D01*
X112116132Y-50613976D01*
X112116129Y-50613975D01*
X111920000Y-50594659D01*
X111723870Y-50613975D01*
X111535266Y-50671188D01*
X111361467Y-50764086D01*
X111361460Y-50764090D01*
X111209116Y-50889116D01*
X111084090Y-51041460D01*
X111084086Y-51041467D01*
X110991188Y-51215266D01*
X110933975Y-51403870D01*
X110914659Y-51600000D01*
X110385341Y-51600000D01*
X110366024Y-51403868D01*
X110308814Y-51215273D01*
X110308811Y-51215269D01*
X110308811Y-51215266D01*
X110215913Y-51041467D01*
X110215909Y-51041460D01*
X110090883Y-50889116D01*
X109938539Y-50764090D01*
X109938532Y-50764086D01*
X109764733Y-50671188D01*
X109764727Y-50671186D01*
X109576132Y-50613976D01*
X109576129Y-50613975D01*
X109380000Y-50594659D01*
X109183870Y-50613975D01*
X108995266Y-50671188D01*
X108821467Y-50764086D01*
X108821460Y-50764090D01*
X108669116Y-50889116D01*
X108544090Y-51041460D01*
X108544086Y-51041467D01*
X108451188Y-51215266D01*
X108393975Y-51403870D01*
X108374659Y-51600000D01*
X107840500Y-51600000D01*
X107840500Y-50735177D01*
X107831768Y-50691282D01*
X107831767Y-50691281D01*
X107831767Y-50691278D01*
X107798504Y-50641496D01*
X107774165Y-50625233D01*
X107748724Y-50608234D01*
X107748717Y-50608231D01*
X107704822Y-50599500D01*
X107704820Y-50599500D01*
X105975180Y-50599500D01*
X105975178Y-50599500D01*
X105931282Y-50608231D01*
X105931275Y-50608234D01*
X105881496Y-50641495D01*
X105881495Y-50641496D01*
X105848234Y-50691275D01*
X105848231Y-50691282D01*
X105839500Y-50735177D01*
X105839500Y-50735180D01*
X105839500Y-52464820D01*
X105839500Y-52464822D01*
X105839499Y-52464822D01*
X77783727Y-52464822D01*
X77208611Y-51889706D01*
X77208609Y-51889703D01*
X77127737Y-51808831D01*
X77127736Y-51808830D01*
X77102785Y-51798495D01*
X77044855Y-51774499D01*
X76955145Y-51774499D01*
X76940711Y-51774499D01*
X76940703Y-51774500D01*
X71717559Y-51774500D01*
X71650520Y-51754815D01*
X71629878Y-51738181D01*
X70581403Y-50689706D01*
X70581401Y-50689703D01*
X70500529Y-50608831D01*
X70500528Y-50608830D01*
X70466316Y-50594659D01*
X70466313Y-50594658D01*
X70466311Y-50594656D01*
X70417648Y-50574499D01*
X70417647Y-50574499D01*
X70327937Y-50574499D01*
X70313503Y-50574499D01*
X70313495Y-50574500D01*
X64910769Y-50574500D01*
X64910761Y-50574499D01*
X64896327Y-50574499D01*
X64806617Y-50574499D01*
X64806615Y-50574499D01*
X64757946Y-50594659D01*
X64723738Y-50608828D01*
X64723734Y-50608831D01*
X64691071Y-50641495D01*
X64660302Y-50672264D01*
X64660301Y-50672265D01*
X64488042Y-50844525D01*
X64344386Y-50988181D01*
X64283063Y-51021666D01*
X64256705Y-51024500D01*
X62894767Y-51024500D01*
X62827728Y-51004815D01*
X62807086Y-50988181D01*
X62729293Y-50910388D01*
X62711853Y-50892947D01*
X62648419Y-50829513D01*
X62648418Y-50829512D01*
X62624140Y-50819455D01*
X62624140Y-50819454D01*
X62565541Y-50795183D01*
X62565539Y-50795182D01*
X62565538Y-50795182D01*
X62475828Y-50795182D01*
X62461394Y-50795182D01*
X62461386Y-50795183D01*
X61738614Y-50795183D01*
X61738606Y-50795182D01*
X61724172Y-50795182D01*
X61634462Y-50795182D01*
X61634460Y-50795182D01*
X61600130Y-50809402D01*
X61575856Y-50819457D01*
X61564559Y-50824137D01*
X61495090Y-50831606D01*
X61482171Y-50828553D01*
X61468368Y-50824500D01*
X61468367Y-50824500D01*
X61331633Y-50824500D01*
X61331632Y-50824500D01*
X61200440Y-50863021D01*
X61085413Y-50936942D01*
X61085409Y-50936946D01*
X60995872Y-51040278D01*
X60995867Y-51040285D01*
X60939070Y-51164654D01*
X60939068Y-51164662D01*
X60919610Y-51300000D01*
X60939068Y-51435337D01*
X60939070Y-51435345D01*
X60995867Y-51559714D01*
X60995872Y-51559721D01*
X61085409Y-51663053D01*
X61085413Y-51663057D01*
X61134207Y-51694414D01*
X61200439Y-51736978D01*
X61244788Y-51750000D01*
X61331632Y-51775500D01*
X61331633Y-51775500D01*
X61468367Y-51775500D01*
X61599561Y-51736978D01*
X61651553Y-51703565D01*
X61718589Y-51683882D01*
X61785629Y-51703567D01*
X61831383Y-51756369D01*
X61865193Y-51830401D01*
X61865195Y-51830404D01*
X61954732Y-51933736D01*
X61954736Y-51933740D01*
X62014682Y-51972264D01*
X62069762Y-52007661D01*
X62135359Y-52026922D01*
X62200955Y-52046183D01*
X62209733Y-52047445D01*
X62209457Y-52049364D01*
X62265661Y-52065868D01*
X62311416Y-52118672D01*
X62321360Y-52187830D01*
X62321360Y-52187831D01*
X62319610Y-52200000D01*
X62339068Y-52335337D01*
X62339070Y-52335345D01*
X62395867Y-52459714D01*
X62395872Y-52459721D01*
X62485409Y-52563053D01*
X62485413Y-52563057D01*
X62530085Y-52591765D01*
X62600439Y-52636978D01*
X62663839Y-52655594D01*
X62731632Y-52675500D01*
X62731633Y-52675500D01*
X62868367Y-52675500D01*
X62999561Y-52636978D01*
X63114589Y-52563055D01*
X63204130Y-52459718D01*
X63260931Y-52335342D01*
X63275810Y-52231853D01*
X63304835Y-52168298D01*
X63363613Y-52130523D01*
X63398548Y-52125500D01*
X64180496Y-52125500D01*
X64247535Y-52145185D01*
X64293290Y-52197989D01*
X64303234Y-52267147D01*
X64274209Y-52330703D01*
X64268177Y-52337181D01*
X63667178Y-52938181D01*
X63605855Y-52971666D01*
X63579497Y-52974500D01*
X62310769Y-52974500D01*
X62310761Y-52974499D01*
X62296327Y-52974499D01*
X62206617Y-52974499D01*
X62206615Y-52974499D01*
X62172285Y-52988719D01*
X62148011Y-52998774D01*
X62148009Y-52998774D01*
X62123736Y-53008829D01*
X62077123Y-53055443D01*
X62060302Y-53072264D01*
X62060301Y-53072265D01*
X61501686Y-53630881D01*
X60944765Y-54187802D01*
X60883442Y-54221287D01*
X60857084Y-54224121D01*
X60791166Y-54224121D01*
X60724127Y-54204436D01*
X60697453Y-54181323D01*
X60615347Y-54086567D01*
X60615343Y-54086563D01*
X60520324Y-54025500D01*
X60500318Y-54012643D01*
X60500317Y-54012642D01*
X60500316Y-54012642D01*
X60369125Y-53974121D01*
X60369124Y-53974121D01*
X60232390Y-53974121D01*
X60232389Y-53974121D01*
X60101197Y-54012642D01*
X59986170Y-54086563D01*
X59986166Y-54086567D01*
X59896629Y-54189899D01*
X59896624Y-54189906D01*
X59839827Y-54314275D01*
X59839825Y-54314283D01*
X59820367Y-54449621D01*
X59839825Y-54584958D01*
X59839827Y-54584966D01*
X59846232Y-54598991D01*
X59856175Y-54668149D01*
X59827148Y-54731705D01*
X59768369Y-54769478D01*
X59733437Y-54774500D01*
X59243296Y-54774500D01*
X59176257Y-54754815D01*
X59155615Y-54738181D01*
X57957139Y-53539706D01*
X57957137Y-53539703D01*
X57876266Y-53458832D01*
X57876264Y-53458830D01*
X57850272Y-53448064D01*
X57850270Y-53448063D01*
X57793385Y-53424499D01*
X57793383Y-53424499D01*
X57703673Y-53424499D01*
X57689239Y-53424499D01*
X57689231Y-53424500D01*
X51019031Y-53424500D01*
X50951992Y-53404815D01*
X50931350Y-53388181D01*
X50261819Y-52718650D01*
X50228334Y-52657327D01*
X50225500Y-52630969D01*
X50225500Y-51841278D01*
X50242888Y-51782058D01*
X50241939Y-51781625D01*
X50244956Y-51775018D01*
X50245185Y-51774239D01*
X50245187Y-51774234D01*
X50245614Y-51773566D01*
X50245623Y-51773557D01*
X50302424Y-51649181D01*
X50321883Y-51513839D01*
X50302424Y-51378497D01*
X50271335Y-51310422D01*
X50245625Y-51254124D01*
X50245620Y-51254117D01*
X50156083Y-51150785D01*
X50156079Y-51150781D01*
X50058468Y-51088052D01*
X50041054Y-51076861D01*
X50041053Y-51076860D01*
X50041052Y-51076860D01*
X49909861Y-51038339D01*
X49909860Y-51038339D01*
X49773126Y-51038339D01*
X49773125Y-51038339D01*
X49641933Y-51076860D01*
X49526906Y-51150781D01*
X49526902Y-51150785D01*
X49437365Y-51254117D01*
X49437360Y-51254124D01*
X49380563Y-51378493D01*
X49380561Y-51378501D01*
X49361103Y-51513839D01*
X49361103Y-51513844D01*
X49361511Y-51516683D01*
X49361103Y-51519520D01*
X49361103Y-51522708D01*
X49360645Y-51522708D01*
X49351566Y-51585841D01*
X49305809Y-51638644D01*
X49272414Y-51651123D01*
X49273081Y-51653394D01*
X49133378Y-51694414D01*
X49018351Y-51768335D01*
X49018347Y-51768339D01*
X48928810Y-51871671D01*
X48928805Y-51871678D01*
X48872008Y-51996047D01*
X48872006Y-51996055D01*
X48852548Y-52131393D01*
X48872006Y-52266730D01*
X48872008Y-52266738D01*
X48928805Y-52391107D01*
X48928810Y-52391114D01*
X49011812Y-52486904D01*
X49018349Y-52494448D01*
X49060046Y-52521244D01*
X49105799Y-52574045D01*
X49107562Y-52578095D01*
X49127198Y-52625499D01*
X49127199Y-52625503D01*
X49127200Y-52625503D01*
X49129060Y-52629995D01*
X49141766Y-52660672D01*
X49222638Y-52741544D01*
X49222643Y-52741548D01*
X50393414Y-53912320D01*
X50426898Y-53973641D01*
X50421914Y-54043333D01*
X50393415Y-54087679D01*
X50358830Y-54122264D01*
X50358829Y-54122265D01*
X50142914Y-54338181D01*
X50081591Y-54371666D01*
X50055233Y-54374500D01*
X49176537Y-54374500D01*
X49109498Y-54354815D01*
X49088856Y-54338181D01*
X49024480Y-54273805D01*
X48990995Y-54212482D01*
X48989423Y-54168483D01*
X49000890Y-54088730D01*
X48981431Y-53953388D01*
X48961749Y-53910291D01*
X48924632Y-53829015D01*
X48924627Y-53829008D01*
X48835090Y-53725676D01*
X48835086Y-53725672D01*
X48744236Y-53667288D01*
X48720061Y-53651752D01*
X48720060Y-53651751D01*
X48720059Y-53651751D01*
X48588868Y-53613230D01*
X48588867Y-53613230D01*
X48452133Y-53613230D01*
X48452132Y-53613230D01*
X48320940Y-53651751D01*
X48205913Y-53725672D01*
X48205909Y-53725676D01*
X48116372Y-53829008D01*
X48116367Y-53829015D01*
X48059570Y-53953384D01*
X48059568Y-53953392D01*
X48040110Y-54088730D01*
X48059568Y-54224067D01*
X48059568Y-54224069D01*
X48059568Y-54224070D01*
X48059569Y-54224072D01*
X48071797Y-54250848D01*
X48081740Y-54320005D01*
X48052714Y-54383561D01*
X48026041Y-54406673D01*
X47914910Y-54478092D01*
X47914908Y-54478093D01*
X47825371Y-54581425D01*
X47825366Y-54581432D01*
X47768569Y-54705801D01*
X47768567Y-54705809D01*
X47749109Y-54841147D01*
X47768567Y-54976484D01*
X47768569Y-54976492D01*
X47825366Y-55100861D01*
X47825371Y-55100868D01*
X47845611Y-55124227D01*
X47874635Y-55187783D01*
X47864691Y-55256941D01*
X47845611Y-55286629D01*
X47763344Y-55381572D01*
X47763339Y-55381579D01*
X47706542Y-55505948D01*
X47706540Y-55505956D01*
X47687082Y-55641294D01*
X47706540Y-55776631D01*
X47706542Y-55776639D01*
X47763339Y-55901008D01*
X47763344Y-55901015D01*
X47852881Y-56004347D01*
X47852885Y-56004351D01*
X47903970Y-56037180D01*
X47967911Y-56078272D01*
X48001648Y-56088178D01*
X48099104Y-56116794D01*
X48188650Y-56116794D01*
X48255689Y-56136479D01*
X48301444Y-56189283D01*
X48311388Y-56258441D01*
X48282363Y-56321997D01*
X48255688Y-56345110D01*
X48241560Y-56354188D01*
X48241556Y-56354192D01*
X48152019Y-56457524D01*
X48152016Y-56457529D01*
X48121297Y-56524794D01*
X48075542Y-56577598D01*
X48008502Y-56597282D01*
X47973569Y-56592259D01*
X47835431Y-56551699D01*
X47835429Y-56551699D01*
X47698695Y-56551699D01*
X47698694Y-56551699D01*
X47567502Y-56590220D01*
X47452475Y-56664141D01*
X47452471Y-56664145D01*
X47362934Y-56767477D01*
X47362929Y-56767484D01*
X47306132Y-56891853D01*
X47306130Y-56891861D01*
X47286672Y-57027199D01*
X47306130Y-57162536D01*
X47306132Y-57162544D01*
X47362929Y-57286913D01*
X47362934Y-57286920D01*
X47452471Y-57390252D01*
X47459178Y-57396064D01*
X47456959Y-57398624D01*
X47491985Y-57439034D01*
X47501939Y-57508191D01*
X47477560Y-57563539D01*
X47478456Y-57564138D01*
X47401117Y-57679882D01*
X47401112Y-57679891D01*
X47388303Y-57710815D01*
X47344460Y-57765217D01*
X47278166Y-57787280D01*
X47210467Y-57769999D01*
X47186062Y-57751040D01*
X46617560Y-57182539D01*
X46584075Y-57121216D01*
X46582503Y-57077217D01*
X46593970Y-56997464D01*
X46574511Y-56862122D01*
X46540179Y-56786945D01*
X46517712Y-56737749D01*
X46517707Y-56737742D01*
X46428170Y-56634410D01*
X46428166Y-56634406D01*
X46313139Y-56560485D01*
X46181948Y-56521964D01*
X46181947Y-56521964D01*
X46045213Y-56521964D01*
X46045212Y-56521964D01*
X45914020Y-56560485D01*
X45798993Y-56634406D01*
X45798989Y-56634410D01*
X45709452Y-56737742D01*
X45709447Y-56737749D01*
X45652650Y-56862118D01*
X45652648Y-56862126D01*
X45633190Y-56997464D01*
X45652648Y-57132801D01*
X45652650Y-57132809D01*
X45701815Y-57240465D01*
X45711759Y-57309623D01*
X45682734Y-57373179D01*
X45652619Y-57397229D01*
X45652954Y-57397729D01*
X45537203Y-57475071D01*
X45537199Y-57475074D01*
X45443074Y-57569199D01*
X45443071Y-57569203D01*
X45369117Y-57679882D01*
X45369112Y-57679891D01*
X45318171Y-57802875D01*
X45318169Y-57802881D01*
X45292200Y-57933437D01*
X45292200Y-57933440D01*
X45292200Y-58066560D01*
X45292200Y-58066562D01*
X45292199Y-58066562D01*
X45318169Y-58197118D01*
X45318171Y-58197124D01*
X45369112Y-58320108D01*
X45369117Y-58320117D01*
X45443071Y-58430796D01*
X45443074Y-58430800D01*
X45500593Y-58488319D01*
X45534078Y-58549642D01*
X45529094Y-58619334D01*
X45487222Y-58675267D01*
X45421758Y-58699684D01*
X45412912Y-58700000D01*
X45184000Y-58700000D01*
X45184000Y-59296000D01*
X45164315Y-59363039D01*
X45111511Y-59408794D01*
X45060000Y-59420000D01*
X43634000Y-59420000D01*
X43634000Y-59659702D01*
X43645602Y-59718033D01*
X43645603Y-59718034D01*
X43689808Y-59784191D01*
X43716307Y-59801898D01*
X43761112Y-59855511D01*
X43769819Y-59924836D01*
X43739664Y-59987863D01*
X43716307Y-60008102D01*
X43689808Y-60025808D01*
X43645603Y-60091965D01*
X43645602Y-60091966D01*
X43634000Y-60150297D01*
X43634000Y-60390000D01*
X45060000Y-60390000D01*
X45127039Y-60409685D01*
X45172794Y-60462489D01*
X45184000Y-60514000D01*
X45184000Y-60566000D01*
X45164315Y-60633039D01*
X45111511Y-60678794D01*
X45060000Y-60690000D01*
X43634000Y-60690000D01*
X43634000Y-60929702D01*
X43645602Y-60988033D01*
X43645603Y-60988034D01*
X43689808Y-61054191D01*
X43716307Y-61071898D01*
X43761112Y-61125511D01*
X43769819Y-61194836D01*
X43739664Y-61257863D01*
X43716307Y-61278102D01*
X43689808Y-61295808D01*
X43645603Y-61361965D01*
X43645602Y-61361966D01*
X43634000Y-61420297D01*
X43634000Y-61660000D01*
X45060000Y-61660000D01*
X45127039Y-61679685D01*
X45172794Y-61732489D01*
X45184000Y-61784000D01*
X45184000Y-61836000D01*
X45164315Y-61903039D01*
X45111511Y-61948794D01*
X45060000Y-61960000D01*
X43634000Y-61960000D01*
X43634000Y-62199702D01*
X43645602Y-62258033D01*
X43645603Y-62258034D01*
X43689808Y-62324191D01*
X43716307Y-62341898D01*
X43761112Y-62395511D01*
X43769819Y-62464836D01*
X43739664Y-62527863D01*
X43716307Y-62548102D01*
X43689808Y-62565808D01*
X43645603Y-62631965D01*
X43645602Y-62631966D01*
X43634000Y-62690297D01*
X43634000Y-62930000D01*
X45060000Y-62930000D01*
X45127039Y-62949685D01*
X45172794Y-63002489D01*
X45184000Y-63054000D01*
X45184000Y-63106000D01*
X45164315Y-63173039D01*
X45111511Y-63218794D01*
X45060000Y-63230000D01*
X43634000Y-63230000D01*
X43634000Y-63469702D01*
X43645602Y-63528033D01*
X43645603Y-63528034D01*
X43689808Y-63594191D01*
X43760857Y-63641665D01*
X43805662Y-63695277D01*
X43814369Y-63764602D01*
X43784215Y-63827629D01*
X43760856Y-63847869D01*
X43725496Y-63871495D01*
X43725495Y-63871496D01*
X43692234Y-63921275D01*
X43692231Y-63921282D01*
X43683500Y-63965177D01*
X43683500Y-63965180D01*
X43683500Y-64734820D01*
X43683500Y-64734822D01*
X43683499Y-64734822D01*
X43692231Y-64778717D01*
X43692234Y-64778724D01*
X43725495Y-64828503D01*
X43725496Y-64828504D01*
X43775278Y-64861767D01*
X43775281Y-64861767D01*
X43775282Y-64861768D01*
X43819177Y-64870500D01*
X43819180Y-64870500D01*
X44480459Y-64870500D01*
X44547498Y-64890185D01*
X44593253Y-64942989D01*
X44603197Y-65012147D01*
X44593253Y-65046011D01*
X44539070Y-65164654D01*
X44539068Y-65164662D01*
X44519610Y-65300000D01*
X44539068Y-65435337D01*
X44539070Y-65435345D01*
X44595867Y-65559714D01*
X44595872Y-65559721D01*
X44685409Y-65663053D01*
X44685413Y-65663057D01*
X44732682Y-65693434D01*
X44800439Y-65736978D01*
X44851589Y-65751997D01*
X44931632Y-65775500D01*
X44931633Y-65775500D01*
X45068367Y-65775500D01*
X45199561Y-65736978D01*
X45314589Y-65663055D01*
X45404130Y-65559718D01*
X45406999Y-65553437D01*
X45425869Y-65512117D01*
X45460931Y-65435342D01*
X45480390Y-65300000D01*
X45460931Y-65164658D01*
X45427009Y-65090380D01*
X45406747Y-65046011D01*
X45396803Y-64976853D01*
X45425828Y-64913297D01*
X45484606Y-64875523D01*
X45519541Y-64870500D01*
X46158869Y-64870500D01*
X46198979Y-64878478D01*
X46199084Y-64878089D01*
X46205021Y-64879679D01*
X46206319Y-64879938D01*
X46206935Y-64880193D01*
X46277967Y-64889544D01*
X46348999Y-64898896D01*
X46349000Y-64898896D01*
X46447916Y-64885873D01*
X46516948Y-64896638D01*
X46569204Y-64943018D01*
X46588090Y-65010287D01*
X46567610Y-65077087D01*
X46551781Y-65096493D01*
X46459071Y-65189203D01*
X46385117Y-65299882D01*
X46385112Y-65299891D01*
X46334171Y-65422875D01*
X46334169Y-65422881D01*
X46308200Y-65553437D01*
X46308200Y-65553440D01*
X46308200Y-65686560D01*
X46308200Y-65686562D01*
X46308199Y-65686562D01*
X46334169Y-65817118D01*
X46334171Y-65817124D01*
X46385112Y-65940108D01*
X46385117Y-65940117D01*
X46459071Y-66050796D01*
X46459074Y-66050800D01*
X46553199Y-66144925D01*
X46553203Y-66144928D01*
X46663882Y-66218882D01*
X46663888Y-66218885D01*
X46663889Y-66218886D01*
X46786876Y-66269829D01*
X46786880Y-66269829D01*
X46786881Y-66269830D01*
X46917437Y-66295800D01*
X46917440Y-66295800D01*
X47050562Y-66295800D01*
X47152614Y-66275500D01*
X47181124Y-66269829D01*
X47304111Y-66218886D01*
X47414797Y-66144928D01*
X47508928Y-66050797D01*
X47582886Y-65940111D01*
X47633829Y-65817124D01*
X47646784Y-65751997D01*
X47659800Y-65686562D01*
X47659800Y-65553437D01*
X47633830Y-65422881D01*
X47633829Y-65422880D01*
X47633829Y-65422876D01*
X47582886Y-65299889D01*
X47582885Y-65299888D01*
X47582882Y-65299882D01*
X47508928Y-65189203D01*
X47508925Y-65189199D01*
X47416219Y-65096493D01*
X47382734Y-65035170D01*
X47387718Y-64965478D01*
X47429590Y-64909545D01*
X47495054Y-64885128D01*
X47520077Y-64885872D01*
X47619000Y-64898896D01*
X47619001Y-64898896D01*
X47688813Y-64889705D01*
X47761065Y-64880193D01*
X47761681Y-64879938D01*
X47762978Y-64879679D01*
X47768916Y-64878089D01*
X47769020Y-64878478D01*
X47809131Y-64870500D01*
X50148822Y-64870500D01*
X50192717Y-64861768D01*
X50192717Y-64861767D01*
X50192722Y-64861767D01*
X50242504Y-64828504D01*
X50275767Y-64778722D01*
X50276607Y-64774499D01*
X50284500Y-64734822D01*
X50284500Y-63965177D01*
X50275768Y-63921282D01*
X50275767Y-63921281D01*
X50275767Y-63921278D01*
X50242504Y-63871496D01*
X50242503Y-63871495D01*
X50192724Y-63838234D01*
X50192718Y-63838231D01*
X50184601Y-63836617D01*
X50122690Y-63804232D01*
X50088116Y-63743516D01*
X50091856Y-63673747D01*
X50132723Y-63617075D01*
X50184601Y-63593383D01*
X50192718Y-63591768D01*
X50192718Y-63591767D01*
X50192722Y-63591767D01*
X50242504Y-63558504D01*
X50275767Y-63508722D01*
X50275768Y-63508717D01*
X50284500Y-63464822D01*
X50284500Y-62695177D01*
X50275768Y-62651282D01*
X50275767Y-62651281D01*
X50275767Y-62651278D01*
X50242504Y-62601496D01*
X50242503Y-62601495D01*
X50192724Y-62568234D01*
X50192718Y-62568231D01*
X50184601Y-62566617D01*
X50122690Y-62534232D01*
X50088116Y-62473516D01*
X50091856Y-62403747D01*
X50132723Y-62347075D01*
X50184601Y-62323383D01*
X50192718Y-62321768D01*
X50192718Y-62321767D01*
X50192722Y-62321767D01*
X50242504Y-62288504D01*
X50275767Y-62238722D01*
X50277953Y-62227735D01*
X50284500Y-62194822D01*
X50284500Y-61853702D01*
X50304185Y-61786663D01*
X50356989Y-61740908D01*
X50382694Y-61732417D01*
X50943137Y-61613215D01*
X50968934Y-61610503D01*
X50977034Y-61610503D01*
X50977035Y-61610503D01*
X50988833Y-61605615D01*
X51010479Y-61598892D01*
X51022966Y-61596237D01*
X51029635Y-61591651D01*
X51052432Y-61579271D01*
X51059915Y-61576172D01*
X51068939Y-61567146D01*
X51086379Y-61552642D01*
X51086466Y-61552581D01*
X51096892Y-61545415D01*
X51101302Y-61538620D01*
X51117624Y-61518461D01*
X51124275Y-61511810D01*
X51185599Y-61478332D01*
X51211948Y-61475500D01*
X51378051Y-61475500D01*
X51445090Y-61495185D01*
X51465730Y-61511817D01*
X51557400Y-61603488D01*
X51645082Y-61691170D01*
X51645084Y-61691172D01*
X51709183Y-61717721D01*
X51727963Y-61725500D01*
X51817672Y-61725500D01*
X52190703Y-61725500D01*
X52190711Y-61725501D01*
X52205145Y-61725501D01*
X52294853Y-61725501D01*
X52294855Y-61725501D01*
X52353460Y-61701225D01*
X52377736Y-61691170D01*
X52441170Y-61627736D01*
X52441170Y-61627735D01*
X52458599Y-61610306D01*
X52458604Y-61610300D01*
X52540128Y-61528777D01*
X52557089Y-61511817D01*
X52618413Y-61478333D01*
X52644769Y-61475500D01*
X52978051Y-61475500D01*
X53045090Y-61495185D01*
X53065730Y-61511817D01*
X53157400Y-61603488D01*
X53245082Y-61691170D01*
X53245084Y-61691172D01*
X53309183Y-61717721D01*
X53327963Y-61725500D01*
X53417672Y-61725500D01*
X53940703Y-61725500D01*
X53940711Y-61725501D01*
X53955145Y-61725501D01*
X54044853Y-61725501D01*
X54044855Y-61725501D01*
X54103460Y-61701225D01*
X54127736Y-61691170D01*
X54191170Y-61627736D01*
X54191170Y-61627735D01*
X54208599Y-61610306D01*
X54208604Y-61610300D01*
X54290128Y-61528777D01*
X54307089Y-61511817D01*
X54368413Y-61478333D01*
X54394769Y-61475500D01*
X54578050Y-61475500D01*
X54645089Y-61495185D01*
X54665731Y-61511819D01*
X54845084Y-61691172D01*
X54909183Y-61717721D01*
X54927963Y-61725500D01*
X55440703Y-61725500D01*
X55440711Y-61725501D01*
X55455145Y-61725501D01*
X55544853Y-61725501D01*
X55544855Y-61725501D01*
X55603460Y-61701225D01*
X55627736Y-61691170D01*
X55691170Y-61627736D01*
X55691170Y-61627735D01*
X55708599Y-61610306D01*
X55708604Y-61610300D01*
X55790128Y-61528777D01*
X55807089Y-61511817D01*
X55868413Y-61478333D01*
X55894769Y-61475500D01*
X56355232Y-61475500D01*
X56422271Y-61495185D01*
X56442913Y-61511819D01*
X56472266Y-61541172D01*
X56530027Y-61565096D01*
X56555145Y-61575500D01*
X57090703Y-61575500D01*
X57090711Y-61575501D01*
X57105145Y-61575501D01*
X57194854Y-61575501D01*
X57194855Y-61575501D01*
X57261244Y-61548001D01*
X57261247Y-61548000D01*
X57263243Y-61547173D01*
X57277736Y-61541170D01*
X57341170Y-61477736D01*
X57341170Y-61477735D01*
X57358608Y-61460297D01*
X57358610Y-61460294D01*
X58510294Y-60308610D01*
X58510297Y-60308608D01*
X58527735Y-60291170D01*
X58527736Y-60291170D01*
X58591170Y-60227736D01*
X58599238Y-60208259D01*
X58604182Y-60196324D01*
X58625500Y-60144857D01*
X58625501Y-60144855D01*
X58625501Y-60055145D01*
X58625501Y-60045156D01*
X58625500Y-60045142D01*
X58625500Y-59044767D01*
X58645185Y-58977728D01*
X58661819Y-58957086D01*
X58662819Y-58956086D01*
X58724142Y-58922601D01*
X58793834Y-58927585D01*
X58849767Y-58969457D01*
X58874184Y-59034921D01*
X58874500Y-59043767D01*
X58874500Y-62045142D01*
X58874499Y-62045156D01*
X58874499Y-62144853D01*
X58874500Y-62144858D01*
X58898772Y-62203457D01*
X58908829Y-62227735D01*
X58908830Y-62227736D01*
X58972264Y-62291170D01*
X58972265Y-62291170D01*
X58989705Y-62308610D01*
X60196019Y-63514924D01*
X60229504Y-63576247D01*
X60231075Y-63620251D01*
X60225342Y-63660132D01*
X60219610Y-63700000D01*
X60239068Y-63835337D01*
X60239070Y-63835345D01*
X60295867Y-63959714D01*
X60295872Y-63959721D01*
X60385409Y-64063053D01*
X60385413Y-64063057D01*
X60445979Y-64101979D01*
X60500439Y-64136978D01*
X60566036Y-64156239D01*
X60631632Y-64175500D01*
X60631633Y-64175500D01*
X60768367Y-64175500D01*
X60899561Y-64136978D01*
X61014589Y-64063055D01*
X61104130Y-63959718D01*
X61160931Y-63835342D01*
X61180390Y-63700000D01*
X61160931Y-63564658D01*
X61135386Y-63508722D01*
X61104132Y-63440285D01*
X61104127Y-63440278D01*
X61014589Y-63336945D01*
X61011015Y-63333848D01*
X60973242Y-63275068D01*
X60973244Y-63205199D01*
X60998508Y-63158934D01*
X61036877Y-63114654D01*
X61036878Y-63114652D01*
X61036880Y-63114650D01*
X61038099Y-63111982D01*
X61074313Y-63032683D01*
X61093681Y-62990274D01*
X61113140Y-62854932D01*
X61093681Y-62719590D01*
X61062484Y-62651278D01*
X61036882Y-62595217D01*
X61036877Y-62595210D01*
X60947340Y-62491878D01*
X60947336Y-62491874D01*
X60844050Y-62425498D01*
X60832311Y-62417954D01*
X60832310Y-62417953D01*
X60832309Y-62417953D01*
X60701118Y-62379432D01*
X60701117Y-62379432D01*
X60564383Y-62379432D01*
X60555605Y-62380694D01*
X60555322Y-62378731D01*
X60496898Y-62378729D01*
X60444157Y-62347434D01*
X60050961Y-61954238D01*
X60017476Y-61892915D01*
X60022460Y-61823223D01*
X60064332Y-61767290D01*
X60129796Y-61742873D01*
X60198069Y-61757725D01*
X60205667Y-61762232D01*
X60234484Y-61780752D01*
X60234486Y-61780752D01*
X60234487Y-61780753D01*
X60365677Y-61819274D01*
X60365678Y-61819274D01*
X60502412Y-61819274D01*
X60633606Y-61780752D01*
X60748634Y-61706829D01*
X60838175Y-61603492D01*
X60894976Y-61479116D01*
X60911437Y-61364624D01*
X60940460Y-61301071D01*
X60946478Y-61294607D01*
X61462820Y-60778266D01*
X61524142Y-60744782D01*
X61593834Y-60749766D01*
X61649767Y-60791638D01*
X61674184Y-60857102D01*
X61674500Y-60865948D01*
X61674500Y-65106705D01*
X61654815Y-65173744D01*
X61638181Y-65194386D01*
X59744269Y-67088298D01*
X59682946Y-67121783D01*
X59656588Y-67124617D01*
X48795233Y-67124617D01*
X48728194Y-67104932D01*
X48682439Y-67052128D01*
X48672495Y-66982970D01*
X48674055Y-66972118D01*
X48677231Y-66950030D01*
X48657772Y-66814688D01*
X48645518Y-66787857D01*
X48600973Y-66690315D01*
X48600968Y-66690308D01*
X48511431Y-66586976D01*
X48511427Y-66586972D01*
X48396400Y-66513051D01*
X48392215Y-66511822D01*
X48388545Y-66509463D01*
X48388330Y-66509365D01*
X48388344Y-66509334D01*
X48333439Y-66474045D01*
X48304416Y-66410488D01*
X48314363Y-66341330D01*
X48339481Y-66305159D01*
X48343967Y-66300672D01*
X48405293Y-66267195D01*
X48466573Y-66269386D01*
X48484968Y-66274788D01*
X48519980Y-66285069D01*
X48519981Y-66285069D01*
X48656715Y-66285069D01*
X48787909Y-66246547D01*
X48902937Y-66172624D01*
X48992478Y-66069287D01*
X48995373Y-66062949D01*
X49015604Y-66018649D01*
X49049279Y-65944911D01*
X49068738Y-65809569D01*
X49049279Y-65674227D01*
X49023666Y-65618143D01*
X48992480Y-65549854D01*
X48992475Y-65549847D01*
X48902938Y-65446515D01*
X48902934Y-65446511D01*
X48787907Y-65372590D01*
X48656716Y-65334069D01*
X48656715Y-65334069D01*
X48519981Y-65334069D01*
X48519980Y-65334069D01*
X48388788Y-65372590D01*
X48273761Y-65446511D01*
X48273757Y-65446515D01*
X48184220Y-65549847D01*
X48184215Y-65549854D01*
X48127418Y-65674223D01*
X48127416Y-65674231D01*
X48107958Y-65809569D01*
X48107958Y-65809571D01*
X48110350Y-65826211D01*
X48100405Y-65895369D01*
X48075293Y-65931536D01*
X47598222Y-66408608D01*
X47122265Y-66884565D01*
X47122264Y-66884566D01*
X47082308Y-66924522D01*
X47056275Y-66950555D01*
X46994951Y-66984039D01*
X46925260Y-66979054D01*
X46901560Y-66967191D01*
X46794198Y-66898195D01*
X46794196Y-66898194D01*
X46794194Y-66898193D01*
X46663005Y-66859673D01*
X46663004Y-66859673D01*
X46526270Y-66859673D01*
X46526269Y-66859673D01*
X46395077Y-66898194D01*
X46280050Y-66972115D01*
X46280046Y-66972119D01*
X46190509Y-67075451D01*
X46190504Y-67075458D01*
X46133707Y-67199827D01*
X46133705Y-67199835D01*
X46114247Y-67335173D01*
X46133705Y-67470510D01*
X46133707Y-67470518D01*
X46190504Y-67594887D01*
X46190509Y-67594894D01*
X46265000Y-67680862D01*
X46280048Y-67698228D01*
X46312175Y-67718874D01*
X46357930Y-67771676D01*
X46369137Y-67823190D01*
X46369137Y-67964043D01*
X46369136Y-67964057D01*
X46369136Y-67974046D01*
X46369136Y-68063756D01*
X46373586Y-68074500D01*
X46380965Y-68092312D01*
X46380965Y-68092314D01*
X46380966Y-68092314D01*
X46380966Y-68092315D01*
X46403467Y-68146637D01*
X46403468Y-68146638D01*
X46484337Y-68227507D01*
X46484343Y-68227512D01*
X47277495Y-69020664D01*
X47277498Y-69020668D01*
X47348002Y-69091172D01*
X47412101Y-69117721D01*
X47430881Y-69125500D01*
X49040703Y-69125500D01*
X49040711Y-69125501D01*
X49055145Y-69125501D01*
X49144853Y-69125501D01*
X49144855Y-69125501D01*
X49203460Y-69101225D01*
X49227736Y-69091170D01*
X49291170Y-69027736D01*
X49291170Y-69027735D01*
X49308606Y-69010299D01*
X49308607Y-69010296D01*
X49806971Y-68511933D01*
X49868293Y-68478451D01*
X49894651Y-68475617D01*
X60114850Y-68475617D01*
X60114858Y-68475618D01*
X60129292Y-68475618D01*
X60219001Y-68475618D01*
X60219002Y-68475618D01*
X60287431Y-68447273D01*
X60301883Y-68441287D01*
X60301883Y-68441286D01*
X60302102Y-68441196D01*
X60371572Y-68433732D01*
X60434049Y-68465010D01*
X60469698Y-68525101D01*
X60472286Y-68538113D01*
X60472423Y-68539067D01*
X60472425Y-68539075D01*
X60529222Y-68663444D01*
X60529227Y-68663451D01*
X60584302Y-68727011D01*
X60618766Y-68766785D01*
X60733794Y-68840708D01*
X60802732Y-68860949D01*
X60855477Y-68892245D01*
X61816775Y-69853543D01*
X61908100Y-69906270D01*
X62009961Y-69933563D01*
X62115415Y-69933563D01*
X64236898Y-69933563D01*
X64303936Y-69953247D01*
X64330065Y-69970038D01*
X64330072Y-69970042D01*
X64461263Y-70008563D01*
X64461264Y-70008563D01*
X64597998Y-70008563D01*
X64729192Y-69970041D01*
X64844220Y-69896118D01*
X64933761Y-69792781D01*
X64990562Y-69668405D01*
X65010021Y-69533063D01*
X64990562Y-69397721D01*
X64963614Y-69338714D01*
X64933763Y-69273348D01*
X64933758Y-69273341D01*
X64844221Y-69170009D01*
X64844217Y-69170005D01*
X64744158Y-69105703D01*
X64729192Y-69096085D01*
X64729191Y-69096084D01*
X64729190Y-69096084D01*
X64597999Y-69057563D01*
X64597998Y-69057563D01*
X64461264Y-69057563D01*
X64461263Y-69057563D01*
X64330072Y-69096083D01*
X64330065Y-69096087D01*
X64303936Y-69112879D01*
X64236898Y-69132563D01*
X62279943Y-69132563D01*
X62212904Y-69112878D01*
X62192262Y-69096244D01*
X61428486Y-68332468D01*
X61397953Y-68276551D01*
X61396784Y-68276895D01*
X61395206Y-68271520D01*
X61395001Y-68271145D01*
X61394850Y-68270308D01*
X61394286Y-68268387D01*
X61349468Y-68170252D01*
X61337485Y-68144012D01*
X61325221Y-68129859D01*
X61247945Y-68040676D01*
X61247941Y-68040672D01*
X61141496Y-67972266D01*
X61132916Y-67966752D01*
X61132915Y-67966751D01*
X61132914Y-67966751D01*
X61057858Y-67944712D01*
X60999080Y-67906937D01*
X60970056Y-67843381D01*
X60980000Y-67774223D01*
X61005110Y-67738057D01*
X62910294Y-65832874D01*
X62910297Y-65832872D01*
X62927735Y-65815434D01*
X62927736Y-65815434D01*
X62943170Y-65800000D01*
X67019610Y-65800000D01*
X67039068Y-65935337D01*
X67039070Y-65935345D01*
X67095867Y-66059714D01*
X67095872Y-66059721D01*
X67185409Y-66163053D01*
X67185413Y-66163057D01*
X67224648Y-66188271D01*
X67300439Y-66236978D01*
X67366036Y-66256239D01*
X67431632Y-66275500D01*
X67431633Y-66275500D01*
X67568367Y-66275500D01*
X67699561Y-66236978D01*
X67812933Y-66164119D01*
X67814586Y-66163057D01*
X67814586Y-66163056D01*
X67814589Y-66163055D01*
X67904130Y-66059718D01*
X67905871Y-66055907D01*
X67928748Y-66005813D01*
X67960931Y-65935342D01*
X67980390Y-65800000D01*
X67960931Y-65664658D01*
X67939688Y-65618143D01*
X67904132Y-65540285D01*
X67904127Y-65540278D01*
X67814590Y-65436946D01*
X67814586Y-65436942D01*
X67714449Y-65372590D01*
X67699561Y-65363022D01*
X67699560Y-65363021D01*
X67699559Y-65363021D01*
X67568368Y-65324500D01*
X67568367Y-65324500D01*
X67431633Y-65324500D01*
X67431632Y-65324500D01*
X67300440Y-65363021D01*
X67185413Y-65436942D01*
X67185409Y-65436946D01*
X67095872Y-65540278D01*
X67095867Y-65540285D01*
X67039070Y-65664654D01*
X67039068Y-65664662D01*
X67019610Y-65800000D01*
X62943170Y-65800000D01*
X62991170Y-65752000D01*
X63006122Y-65715902D01*
X63006684Y-65714547D01*
X63025500Y-65669121D01*
X63025501Y-65669118D01*
X63025501Y-65574863D01*
X63045186Y-65507824D01*
X63097990Y-65462069D01*
X63167148Y-65452125D01*
X63230704Y-65481150D01*
X63237182Y-65487182D01*
X63250000Y-65500000D01*
X66750000Y-65500000D01*
X67250000Y-65000000D01*
X67250000Y-61750000D01*
X66500000Y-61000000D01*
X65805395Y-61000000D01*
X65738356Y-60980315D01*
X65692601Y-60927511D01*
X65682657Y-60858353D01*
X65690834Y-60828548D01*
X65703414Y-60798175D01*
X65703453Y-60798081D01*
X65725501Y-60744855D01*
X65725501Y-60655145D01*
X65725501Y-60645156D01*
X65725500Y-60645142D01*
X65725500Y-58812879D01*
X65725498Y-58812874D01*
X65724887Y-58811400D01*
X65715290Y-58788229D01*
X65693876Y-58736528D01*
X65685699Y-58671429D01*
X65699324Y-58576667D01*
X65679865Y-58441325D01*
X65636643Y-58346682D01*
X65623066Y-58316952D01*
X65623063Y-58316948D01*
X65589619Y-58278351D01*
X65570305Y-58256061D01*
X65541281Y-58192507D01*
X65551225Y-58123348D01*
X65596980Y-58070544D01*
X65664019Y-58050860D01*
X72351305Y-58050860D01*
X72418344Y-58070545D01*
X72438986Y-58087179D01*
X76672471Y-62320664D01*
X76672474Y-62320668D01*
X76742978Y-62391172D01*
X76807077Y-62417721D01*
X76825857Y-62425500D01*
X76831692Y-62425500D01*
X76898731Y-62445185D01*
X76925405Y-62468298D01*
X77003311Y-62558207D01*
X77032336Y-62621762D01*
X77022392Y-62690921D01*
X76976637Y-62743725D01*
X76909598Y-62763409D01*
X76769467Y-62763409D01*
X76769459Y-62763408D01*
X76755025Y-62763408D01*
X76665315Y-62763408D01*
X76665313Y-62763408D01*
X76634137Y-62776322D01*
X76606709Y-62787683D01*
X76606707Y-62787683D01*
X76582434Y-62797738D01*
X76544019Y-62836154D01*
X76519000Y-62861173D01*
X76518999Y-62861174D01*
X75543557Y-63836617D01*
X74601307Y-64778867D01*
X74539984Y-64812352D01*
X74513626Y-64815186D01*
X71314459Y-64815186D01*
X71314457Y-64815186D01*
X71314455Y-64815187D01*
X71231580Y-64849513D01*
X70399515Y-65681578D01*
X70389460Y-65705851D01*
X70389460Y-65705853D01*
X70385296Y-65715906D01*
X70365185Y-65764457D01*
X70365185Y-65868602D01*
X70365186Y-65868611D01*
X70365186Y-66844406D01*
X70365185Y-66844420D01*
X70365185Y-66854409D01*
X70365185Y-66944119D01*
X70380431Y-66980925D01*
X70380432Y-66980927D01*
X70380431Y-66980927D01*
X70399514Y-67026997D01*
X70399517Y-67027001D01*
X70480386Y-67107870D01*
X70480392Y-67107875D01*
X72980818Y-69608301D01*
X73014303Y-69669624D01*
X73017137Y-69695982D01*
X73017137Y-69964160D01*
X72997452Y-70031199D01*
X72960177Y-70068474D01*
X72951686Y-70073932D01*
X72928047Y-70089123D01*
X72838507Y-70192460D01*
X72838504Y-70192463D01*
X72781707Y-70316832D01*
X72781705Y-70316840D01*
X72778330Y-70340315D01*
X72749304Y-70403871D01*
X72690526Y-70441644D01*
X72620656Y-70441644D01*
X72580105Y-70421042D01*
X72577625Y-70419139D01*
X72577624Y-70419138D01*
X72577622Y-70419137D01*
X72443712Y-70363671D01*
X72443710Y-70363670D01*
X72443709Y-70363670D01*
X72371854Y-70354210D01*
X72300001Y-70344750D01*
X72299999Y-70344750D01*
X72156291Y-70363670D01*
X72156287Y-70363671D01*
X72022377Y-70419137D01*
X72019896Y-70421041D01*
X71925484Y-70493485D01*
X71860318Y-70518679D01*
X71791873Y-70504641D01*
X71774519Y-70493489D01*
X71677625Y-70419139D01*
X71677624Y-70419138D01*
X71677622Y-70419137D01*
X71543712Y-70363671D01*
X71543710Y-70363670D01*
X71543709Y-70363670D01*
X71471854Y-70354210D01*
X71400001Y-70344750D01*
X71399999Y-70344750D01*
X71256291Y-70363670D01*
X71256287Y-70363671D01*
X71122377Y-70419137D01*
X71007379Y-70507379D01*
X70919137Y-70622377D01*
X70863671Y-70756287D01*
X70863670Y-70756291D01*
X70844750Y-70899999D01*
X70844750Y-70900000D01*
X70863670Y-71043708D01*
X70863671Y-71043712D01*
X70919137Y-71177622D01*
X70919138Y-71177624D01*
X70919139Y-71177625D01*
X71007379Y-71292621D01*
X71122375Y-71380861D01*
X71256291Y-71436330D01*
X71383280Y-71453048D01*
X71399999Y-71455250D01*
X71400000Y-71455250D01*
X71400001Y-71455250D01*
X71414977Y-71453278D01*
X71543709Y-71436330D01*
X71677625Y-71380861D01*
X71774515Y-71306514D01*
X71839682Y-71281321D01*
X71908127Y-71295359D01*
X71925480Y-71306510D01*
X72022375Y-71380861D01*
X72156291Y-71436330D01*
X72283280Y-71453048D01*
X72299999Y-71455250D01*
X72300000Y-71455250D01*
X72300001Y-71455250D01*
X72314977Y-71453278D01*
X72443709Y-71436330D01*
X72577625Y-71380861D01*
X72692621Y-71292621D01*
X72780861Y-71177625D01*
X72836330Y-71043709D01*
X72845701Y-70972529D01*
X72873966Y-70908636D01*
X72932290Y-70870164D01*
X73002155Y-70869332D01*
X73035676Y-70884400D01*
X73043076Y-70889156D01*
X73108673Y-70908417D01*
X73174269Y-70927678D01*
X73174270Y-70927678D01*
X73311004Y-70927678D01*
X73442198Y-70889156D01*
X73557226Y-70815233D01*
X73646767Y-70711896D01*
X73703568Y-70587520D01*
X73722324Y-70457062D01*
X73751348Y-70393508D01*
X73810126Y-70355733D01*
X73879996Y-70355733D01*
X73947316Y-70375499D01*
X73947318Y-70375500D01*
X73947319Y-70375500D01*
X74084053Y-70375500D01*
X74215247Y-70336978D01*
X74330275Y-70263055D01*
X74419816Y-70159718D01*
X74476617Y-70035342D01*
X74496076Y-69900000D01*
X74476617Y-69764658D01*
X74476613Y-69764650D01*
X74475084Y-69759440D01*
X74475081Y-69689570D01*
X74512853Y-69630790D01*
X74576408Y-69601763D01*
X74594060Y-69600500D01*
X78452725Y-69600500D01*
X78452727Y-69600500D01*
X78554588Y-69573207D01*
X78645913Y-69520480D01*
X78756208Y-69410184D01*
X78817527Y-69376702D01*
X78887219Y-69381686D01*
X78943153Y-69423557D01*
X78967570Y-69489021D01*
X78966624Y-69515514D01*
X78954703Y-69598431D01*
X78974161Y-69733769D01*
X78974163Y-69733777D01*
X79030960Y-69858146D01*
X79030965Y-69858153D01*
X79120502Y-69961485D01*
X79120506Y-69961489D01*
X79166692Y-69991170D01*
X79235532Y-70035410D01*
X79301129Y-70054671D01*
X79366725Y-70073932D01*
X79366726Y-70073932D01*
X79503460Y-70073932D01*
X79634654Y-70035410D01*
X79749682Y-69961487D01*
X79839223Y-69858150D01*
X79841328Y-69853542D01*
X79869078Y-69792777D01*
X79896024Y-69733774D01*
X79915483Y-69598432D01*
X79896024Y-69463090D01*
X79849810Y-69361896D01*
X79839225Y-69338717D01*
X79839220Y-69338710D01*
X79749683Y-69235378D01*
X79749679Y-69235374D01*
X79634652Y-69161453D01*
X79573431Y-69143477D01*
X79514653Y-69105703D01*
X79485628Y-69042147D01*
X79495572Y-68972989D01*
X79541326Y-68920185D01*
X79608366Y-68900500D01*
X87682745Y-68900500D01*
X87749784Y-68920185D01*
X87770426Y-68936819D01*
X92954087Y-74120480D01*
X93045412Y-74173207D01*
X93147273Y-74200500D01*
X93147275Y-74200500D01*
X139052725Y-74200500D01*
X139052727Y-74200500D01*
X139154588Y-74173207D01*
X139245913Y-74120480D01*
X139946393Y-73420000D01*
X142265000Y-73420000D01*
X148065000Y-73420000D01*
X148065000Y-67620000D01*
X142265000Y-67620000D01*
X142265000Y-73420000D01*
X139946393Y-73420000D01*
X141120480Y-72245913D01*
X141140507Y-72211225D01*
X141173207Y-72154587D01*
X141200500Y-72052727D01*
X141200500Y-65985883D01*
X141220185Y-65918844D01*
X141236814Y-65898207D01*
X142415189Y-64719831D01*
X142476510Y-64686348D01*
X142546202Y-64691332D01*
X142567407Y-64701633D01*
X142613150Y-64729516D01*
X142680189Y-64749201D01*
X142724000Y-64755500D01*
X142724003Y-64755500D01*
X145075991Y-64755500D01*
X145076000Y-64755500D01*
X145109055Y-64751946D01*
X145160566Y-64740740D01*
X145209996Y-64715996D01*
X145278755Y-64703591D01*
X145343306Y-64730329D01*
X145383154Y-64787722D01*
X145389500Y-64826881D01*
X145389500Y-64846550D01*
X145423949Y-64975116D01*
X145490499Y-65090384D01*
X145584616Y-65184501D01*
X145699884Y-65251051D01*
X145756517Y-65266225D01*
X145816177Y-65302590D01*
X145846706Y-65365437D01*
X145838411Y-65434812D01*
X145793926Y-65488690D01*
X145727374Y-65509965D01*
X145724423Y-65510000D01*
X145545000Y-65510000D01*
X145545000Y-65910000D01*
X145245000Y-65910000D01*
X145245000Y-65510000D01*
X144776054Y-65510000D01*
X144640823Y-65536899D01*
X144640813Y-65536902D01*
X144513433Y-65589664D01*
X144513420Y-65589671D01*
X144398773Y-65666275D01*
X144301275Y-65763773D01*
X144224671Y-65878420D01*
X144224664Y-65878433D01*
X144171901Y-66005815D01*
X144171899Y-66005823D01*
X144161122Y-66059999D01*
X144161123Y-66060000D01*
X144585192Y-66060000D01*
X144565444Y-66094204D01*
X144545000Y-66170504D01*
X144545000Y-66249496D01*
X144565444Y-66325796D01*
X144585192Y-66360000D01*
X144161123Y-66360000D01*
X144171899Y-66414176D01*
X144171901Y-66414184D01*
X144224664Y-66541566D01*
X144224671Y-66541579D01*
X144301275Y-66656226D01*
X144398773Y-66753724D01*
X144513420Y-66830328D01*
X144513433Y-66830335D01*
X144640813Y-66883097D01*
X144640823Y-66883100D01*
X144776053Y-66910000D01*
X145245000Y-66910000D01*
X145245000Y-66510000D01*
X145545000Y-66510000D01*
X145545000Y-66910000D01*
X146013946Y-66910000D01*
X146149176Y-66883100D01*
X146149186Y-66883097D01*
X146276566Y-66830335D01*
X146276579Y-66830328D01*
X146391226Y-66753724D01*
X146488724Y-66656226D01*
X146565328Y-66541579D01*
X146565335Y-66541566D01*
X146618098Y-66414184D01*
X146618100Y-66414176D01*
X146628877Y-66360000D01*
X146204808Y-66360000D01*
X146224556Y-66325796D01*
X146245000Y-66249496D01*
X146245000Y-66170504D01*
X146224556Y-66094204D01*
X146204808Y-66060000D01*
X146628877Y-66060000D01*
X146628877Y-66059999D01*
X146618100Y-66005823D01*
X146618098Y-66005815D01*
X146565335Y-65878433D01*
X146565328Y-65878420D01*
X146488724Y-65763773D01*
X146391226Y-65666275D01*
X146276579Y-65589671D01*
X146276566Y-65589664D01*
X146149186Y-65536902D01*
X146149176Y-65536899D01*
X146024590Y-65512117D01*
X145962679Y-65479732D01*
X145928105Y-65419016D01*
X145931846Y-65349246D01*
X145972712Y-65292575D01*
X146016686Y-65270726D01*
X146090116Y-65251051D01*
X146205384Y-65184501D01*
X146299501Y-65090384D01*
X146366051Y-64975116D01*
X146400500Y-64846550D01*
X146400500Y-64713450D01*
X146366051Y-64584884D01*
X146299501Y-64469616D01*
X146205384Y-64375499D01*
X146090116Y-64308949D01*
X145961550Y-64274500D01*
X145828450Y-64274500D01*
X145699884Y-64308949D01*
X145699881Y-64308950D01*
X145584619Y-64375497D01*
X145584613Y-64375501D01*
X145567181Y-64392934D01*
X145505858Y-64426419D01*
X145436166Y-64421435D01*
X145380233Y-64379563D01*
X145355816Y-64314099D01*
X145355500Y-64305253D01*
X145355500Y-59474747D01*
X145375185Y-59407708D01*
X145427989Y-59361953D01*
X145497147Y-59352009D01*
X145560703Y-59381034D01*
X145567181Y-59387066D01*
X145584616Y-59404501D01*
X145699884Y-59471051D01*
X145828450Y-59505500D01*
X145828452Y-59505500D01*
X145961548Y-59505500D01*
X145961550Y-59505500D01*
X146090116Y-59471051D01*
X146205384Y-59404501D01*
X146299501Y-59310384D01*
X146366051Y-59195116D01*
X146400500Y-59066550D01*
X146400500Y-58933450D01*
X146366051Y-58804884D01*
X146299501Y-58689616D01*
X146205384Y-58595499D01*
X146111287Y-58541172D01*
X146090118Y-58528950D01*
X146090117Y-58528949D01*
X146016688Y-58509274D01*
X145957027Y-58472908D01*
X145926499Y-58410061D01*
X145934794Y-58340686D01*
X145979280Y-58286808D01*
X146024591Y-58267882D01*
X146149174Y-58243100D01*
X146149186Y-58243097D01*
X146276566Y-58190335D01*
X146276579Y-58190328D01*
X146391226Y-58113724D01*
X146488724Y-58016226D01*
X146565328Y-57901579D01*
X146565335Y-57901566D01*
X146618098Y-57774184D01*
X146618100Y-57774176D01*
X146628877Y-57720000D01*
X146204808Y-57720000D01*
X146224556Y-57685796D01*
X146245000Y-57609496D01*
X146245000Y-57530504D01*
X146224556Y-57454204D01*
X146204808Y-57420000D01*
X146628877Y-57420000D01*
X146628877Y-57419999D01*
X146618100Y-57365823D01*
X146618098Y-57365815D01*
X146565335Y-57238433D01*
X146565328Y-57238420D01*
X146488724Y-57123773D01*
X146391229Y-57026278D01*
X146386520Y-57022414D01*
X146387686Y-57020992D01*
X146348406Y-56973990D01*
X146339699Y-56904665D01*
X146369854Y-56841637D01*
X146429297Y-56804918D01*
X146462102Y-56800500D01*
X148757898Y-56800500D01*
X148824937Y-56820185D01*
X148870692Y-56872989D01*
X148880636Y-56942147D01*
X148851611Y-57005703D01*
X148833139Y-57021999D01*
X148833480Y-57022414D01*
X148828770Y-57026278D01*
X148731275Y-57123773D01*
X148654671Y-57238420D01*
X148654664Y-57238433D01*
X148601901Y-57365815D01*
X148601899Y-57365823D01*
X148591122Y-57419999D01*
X148591123Y-57420000D01*
X149015192Y-57420000D01*
X148995444Y-57454204D01*
X148975000Y-57530504D01*
X148975000Y-57609496D01*
X148995444Y-57685796D01*
X149015192Y-57720000D01*
X148591123Y-57720000D01*
X148601899Y-57774176D01*
X148601901Y-57774184D01*
X148654664Y-57901566D01*
X148654671Y-57901579D01*
X148731275Y-58016226D01*
X148828773Y-58113724D01*
X148943420Y-58190328D01*
X148943433Y-58190335D01*
X149070813Y-58243097D01*
X149070823Y-58243100D01*
X149206053Y-58270000D01*
X149425000Y-58270000D01*
X149425000Y-57870000D01*
X149725000Y-57870000D01*
X149725000Y-58270000D01*
X149943946Y-58270000D01*
X150079176Y-58243100D01*
X150079186Y-58243097D01*
X150206566Y-58190335D01*
X150206579Y-58190328D01*
X150321226Y-58113724D01*
X150418724Y-58016226D01*
X150495328Y-57901579D01*
X150495335Y-57901566D01*
X150548097Y-57774186D01*
X150548100Y-57774176D01*
X150553883Y-57745106D01*
X150586268Y-57683195D01*
X150646984Y-57648621D01*
X150716753Y-57652361D01*
X150773425Y-57693228D01*
X150799007Y-57758246D01*
X150799500Y-57769298D01*
X150799500Y-66010701D01*
X150779815Y-66077740D01*
X150727011Y-66123495D01*
X150657853Y-66133439D01*
X150594297Y-66104414D01*
X150556523Y-66045636D01*
X150553883Y-66034893D01*
X150548100Y-66005823D01*
X150548097Y-66005813D01*
X150495335Y-65878433D01*
X150495328Y-65878420D01*
X150418724Y-65763773D01*
X150321226Y-65666275D01*
X150206579Y-65589671D01*
X150206566Y-65589664D01*
X150079186Y-65536902D01*
X150079176Y-65536899D01*
X149943946Y-65510000D01*
X149725000Y-65510000D01*
X149725000Y-65910000D01*
X149425000Y-65910000D01*
X149425000Y-65510000D01*
X149206054Y-65510000D01*
X149070823Y-65536899D01*
X149070813Y-65536902D01*
X148943433Y-65589664D01*
X148943420Y-65589671D01*
X148828773Y-65666275D01*
X148731275Y-65763773D01*
X148654671Y-65878420D01*
X148654664Y-65878433D01*
X148601901Y-66005815D01*
X148601899Y-66005823D01*
X148591122Y-66059999D01*
X148591123Y-66060000D01*
X149015192Y-66060000D01*
X148995444Y-66094204D01*
X148975000Y-66170504D01*
X148975000Y-66249496D01*
X148995444Y-66325796D01*
X149015192Y-66360000D01*
X148591123Y-66360000D01*
X148601899Y-66414176D01*
X148601901Y-66414184D01*
X148654664Y-66541566D01*
X148654671Y-66541579D01*
X148731275Y-66656226D01*
X148828773Y-66753724D01*
X148943420Y-66830328D01*
X148943433Y-66830335D01*
X149070813Y-66883097D01*
X149070823Y-66883100D01*
X149206053Y-66910000D01*
X149425000Y-66910000D01*
X149425000Y-66510000D01*
X149725000Y-66510000D01*
X149725000Y-66910000D01*
X149943946Y-66910000D01*
X150079176Y-66883100D01*
X150079186Y-66883097D01*
X150206566Y-66830335D01*
X150206579Y-66830328D01*
X150321226Y-66753724D01*
X150418724Y-66656226D01*
X150495328Y-66541579D01*
X150495335Y-66541566D01*
X150548097Y-66414186D01*
X150548100Y-66414176D01*
X150553883Y-66385106D01*
X150586268Y-66323195D01*
X150646984Y-66288621D01*
X150716753Y-66292361D01*
X150773425Y-66333228D01*
X150799007Y-66398246D01*
X150799500Y-66409298D01*
X150799500Y-74074545D01*
X150779815Y-74141584D01*
X150767253Y-74157956D01*
X150038658Y-74959411D01*
X149978997Y-74995775D01*
X149946905Y-75000000D01*
X43124000Y-75000000D01*
X43056961Y-74980315D01*
X43011206Y-74927511D01*
X43000000Y-74876000D01*
X43000000Y-72100000D01*
X72619610Y-72100000D01*
X72639068Y-72235337D01*
X72639070Y-72235345D01*
X72695867Y-72359714D01*
X72695872Y-72359721D01*
X72785409Y-72463053D01*
X72785413Y-72463057D01*
X72845979Y-72501979D01*
X72900439Y-72536978D01*
X72966036Y-72556239D01*
X73031632Y-72575500D01*
X73031633Y-72575500D01*
X73168367Y-72575500D01*
X73299561Y-72536978D01*
X73414589Y-72463055D01*
X73504130Y-72359718D01*
X73560931Y-72235342D01*
X73580390Y-72100000D01*
X73560931Y-71964658D01*
X73536687Y-71911571D01*
X73504132Y-71840285D01*
X73504127Y-71840278D01*
X73414590Y-71736946D01*
X73414586Y-71736942D01*
X73302113Y-71664662D01*
X73299561Y-71663022D01*
X73299560Y-71663021D01*
X73299559Y-71663021D01*
X73261514Y-71651850D01*
X81734169Y-71651850D01*
X81753627Y-71787187D01*
X81753629Y-71787195D01*
X81810426Y-71911564D01*
X81810431Y-71911571D01*
X81899968Y-72014903D01*
X81899972Y-72014907D01*
X81958820Y-72052725D01*
X82014998Y-72088828D01*
X82080595Y-72108089D01*
X82146191Y-72127350D01*
X82146192Y-72127350D01*
X82282926Y-72127350D01*
X82414120Y-72088828D01*
X82529148Y-72014905D01*
X82564059Y-71974615D01*
X82622834Y-71936842D01*
X82692703Y-71936841D01*
X82751482Y-71974615D01*
X82770564Y-72004307D01*
X82795869Y-72059716D01*
X82795872Y-72059721D01*
X82885409Y-72163053D01*
X82885413Y-72163057D01*
X82945979Y-72201979D01*
X83000439Y-72236978D01*
X83030869Y-72245913D01*
X83131632Y-72275500D01*
X83131633Y-72275500D01*
X83268367Y-72275500D01*
X83399561Y-72236978D01*
X83514589Y-72163055D01*
X83604130Y-72059718D01*
X83660931Y-71935342D01*
X83680390Y-71800000D01*
X83660931Y-71664658D01*
X83642591Y-71624500D01*
X83604132Y-71540285D01*
X83604127Y-71540278D01*
X83514590Y-71436946D01*
X83514586Y-71436942D01*
X83399559Y-71363021D01*
X83268368Y-71324500D01*
X83268367Y-71324500D01*
X83131633Y-71324500D01*
X83131632Y-71324500D01*
X83000440Y-71363021D01*
X82885413Y-71436942D01*
X82885412Y-71436944D01*
X82850500Y-71477234D01*
X82791721Y-71515008D01*
X82721852Y-71515007D01*
X82663074Y-71477232D01*
X82643994Y-71447541D01*
X82618691Y-71392135D01*
X82618686Y-71392128D01*
X82529149Y-71288796D01*
X82529145Y-71288792D01*
X82414118Y-71214871D01*
X82282927Y-71176350D01*
X82282926Y-71176350D01*
X82146192Y-71176350D01*
X82146191Y-71176350D01*
X82014999Y-71214871D01*
X81899972Y-71288792D01*
X81899968Y-71288796D01*
X81810431Y-71392128D01*
X81810426Y-71392135D01*
X81753629Y-71516504D01*
X81753627Y-71516512D01*
X81734169Y-71651850D01*
X73261514Y-71651850D01*
X73168368Y-71624500D01*
X73168367Y-71624500D01*
X73031633Y-71624500D01*
X73031632Y-71624500D01*
X72900440Y-71663021D01*
X72785413Y-71736942D01*
X72785409Y-71736946D01*
X72695872Y-71840278D01*
X72695867Y-71840285D01*
X72639070Y-71964654D01*
X72639068Y-71964662D01*
X72619610Y-72100000D01*
X43000000Y-72100000D01*
X43000000Y-58880297D01*
X43634000Y-58880297D01*
X43634000Y-59120000D01*
X44884000Y-59120000D01*
X44884000Y-58700000D01*
X43814297Y-58700000D01*
X43755966Y-58711602D01*
X43755965Y-58711603D01*
X43689808Y-58755808D01*
X43645603Y-58821965D01*
X43645602Y-58821966D01*
X43634000Y-58880297D01*
X43000000Y-58880297D01*
X43000000Y-54418769D01*
X44550292Y-54418769D01*
X44550292Y-54418770D01*
X44569212Y-54562478D01*
X44569213Y-54562482D01*
X44624679Y-54696392D01*
X44624680Y-54696394D01*
X44624681Y-54696395D01*
X44712921Y-54811391D01*
X44827917Y-54899631D01*
X44827918Y-54899631D01*
X44827919Y-54899632D01*
X44828472Y-54899861D01*
X44961833Y-54955100D01*
X45087662Y-54971666D01*
X45105541Y-54974020D01*
X45105542Y-54974020D01*
X45105543Y-54974020D01*
X45123422Y-54971666D01*
X45249251Y-54955100D01*
X45383167Y-54899631D01*
X45498163Y-54811391D01*
X45586403Y-54696395D01*
X45641872Y-54562479D01*
X45660792Y-54418770D01*
X45641872Y-54275061D01*
X45586403Y-54141145D01*
X45583293Y-54133636D01*
X45586435Y-54132334D01*
X45573658Y-54079753D01*
X45596485Y-54013717D01*
X45622036Y-53987229D01*
X45625732Y-53984394D01*
X45713972Y-53869398D01*
X45769441Y-53735482D01*
X45788361Y-53591773D01*
X45769441Y-53448064D01*
X45713972Y-53314148D01*
X45625732Y-53199152D01*
X45510736Y-53110912D01*
X45510735Y-53110911D01*
X45510733Y-53110910D01*
X45376823Y-53055444D01*
X45376821Y-53055443D01*
X45376820Y-53055443D01*
X45304965Y-53045983D01*
X45233112Y-53036523D01*
X45233110Y-53036523D01*
X45089402Y-53055443D01*
X45089398Y-53055444D01*
X44955488Y-53110910D01*
X44840490Y-53199152D01*
X44752248Y-53314150D01*
X44696782Y-53448060D01*
X44696781Y-53448063D01*
X44696781Y-53448064D01*
X44677861Y-53591773D01*
X44695489Y-53725672D01*
X44696781Y-53735481D01*
X44696782Y-53735485D01*
X44755360Y-53876907D01*
X44752227Y-53878204D01*
X44764991Y-53930857D01*
X44742127Y-53996880D01*
X44716625Y-54023306D01*
X44712921Y-54026149D01*
X44624679Y-54141147D01*
X44569213Y-54275057D01*
X44569212Y-54275061D01*
X44550292Y-54418769D01*
X43000000Y-54418769D01*
X43000000Y-50124000D01*
X43019685Y-50056961D01*
X43072489Y-50011206D01*
X43124000Y-50000000D01*
X55732188Y-50000000D01*
X55799227Y-50019685D01*
G37*
%TD.AperFunction*%
%TA.AperFunction,Conductor*%
G36*
X140318834Y-65902584D02*
G01*
X140374767Y-65944456D01*
X140399184Y-66009920D01*
X140399500Y-66018766D01*
X140399500Y-71782745D01*
X140379815Y-71849784D01*
X140363181Y-71870426D01*
X138870426Y-73363181D01*
X138809103Y-73396666D01*
X138782745Y-73399500D01*
X93417255Y-73399500D01*
X93350216Y-73379815D01*
X93329574Y-73363181D01*
X88145915Y-68179522D01*
X88145913Y-68179520D01*
X88088960Y-68146638D01*
X88054589Y-68126793D01*
X87990067Y-68109505D01*
X87952727Y-68099500D01*
X79047273Y-68099500D01*
X79000000Y-68112166D01*
X79000000Y-65950707D01*
X80232361Y-67183068D01*
X80265846Y-67244391D01*
X80267619Y-67254563D01*
X80272464Y-67291365D01*
X80278479Y-67337050D01*
X80279356Y-67343707D01*
X80279357Y-67343712D01*
X80334823Y-67477622D01*
X80334824Y-67477624D01*
X80334825Y-67477625D01*
X80423065Y-67592621D01*
X80538061Y-67680861D01*
X80671977Y-67736330D01*
X80798966Y-67753048D01*
X80815685Y-67755250D01*
X80815686Y-67755250D01*
X80815687Y-67755250D01*
X80830663Y-67753278D01*
X80959395Y-67736330D01*
X81093311Y-67680861D01*
X81154187Y-67634149D01*
X81164646Y-67626124D01*
X81229815Y-67600930D01*
X81240132Y-67600500D01*
X81246184Y-67600500D01*
X81313223Y-67620185D01*
X81321669Y-67626123D01*
X81322429Y-67626706D01*
X81378761Y-67669931D01*
X81512677Y-67725400D01*
X81639666Y-67742118D01*
X81656385Y-67744320D01*
X81656386Y-67744320D01*
X81656387Y-67744320D01*
X81671363Y-67742348D01*
X81800095Y-67725400D01*
X81934011Y-67669931D01*
X82049007Y-67581691D01*
X82137247Y-67466695D01*
X82192716Y-67332779D01*
X82211636Y-67189070D01*
X82192716Y-67045361D01*
X82137247Y-66911445D01*
X82049007Y-66796449D01*
X81934011Y-66708209D01*
X81934010Y-66708208D01*
X81934008Y-66708207D01*
X81800098Y-66652741D01*
X81800096Y-66652740D01*
X81800095Y-66652740D01*
X81716285Y-66641706D01*
X81656387Y-66633820D01*
X81656385Y-66633820D01*
X81512677Y-66652740D01*
X81512673Y-66652741D01*
X81378762Y-66708208D01*
X81378760Y-66708209D01*
X81304400Y-66765268D01*
X81239231Y-66790462D01*
X81170786Y-66776424D01*
X81153428Y-66765268D01*
X81093311Y-66719139D01*
X81093309Y-66719138D01*
X80959398Y-66663671D01*
X80959396Y-66663670D01*
X80959395Y-66663670D01*
X80902855Y-66656226D01*
X80870249Y-66651933D01*
X80806352Y-66623666D01*
X80798754Y-66616675D01*
X80538194Y-66356115D01*
X80504709Y-66294792D01*
X80509693Y-66225100D01*
X80551565Y-66169167D01*
X80617029Y-66144750D01*
X80625875Y-66144434D01*
X103374167Y-66144434D01*
X103441206Y-66164119D01*
X103461848Y-66180753D01*
X107201759Y-69920664D01*
X107201762Y-69920668D01*
X107272266Y-69991172D01*
X107336365Y-70017721D01*
X107355145Y-70025500D01*
X135940703Y-70025500D01*
X135940711Y-70025501D01*
X135955145Y-70025501D01*
X136044853Y-70025501D01*
X136044855Y-70025501D01*
X136103460Y-70001225D01*
X136127736Y-69991170D01*
X136191170Y-69927736D01*
X136191170Y-69927735D01*
X136208608Y-69910297D01*
X136208609Y-69910294D01*
X140187821Y-65931083D01*
X140249142Y-65897600D01*
X140318834Y-65902584D01*
G37*
%TD.AperFunction*%
%TA.AperFunction,Conductor*%
G36*
X135224987Y-55006132D02*
G01*
X135322373Y-55080860D01*
X135322374Y-55080860D01*
X135322375Y-55080861D01*
X135456291Y-55136330D01*
X135545435Y-55148065D01*
X135609330Y-55176331D01*
X135616930Y-55183323D01*
X140354087Y-59920480D01*
X140445412Y-59973207D01*
X140547273Y-60000500D01*
X142066759Y-60000500D01*
X142133798Y-60020185D01*
X142179553Y-60072989D01*
X142189497Y-60142147D01*
X142179553Y-60176009D01*
X142170276Y-60196325D01*
X142139069Y-60264657D01*
X142139068Y-60264662D01*
X142119610Y-60400000D01*
X142139068Y-60535337D01*
X142139070Y-60535345D01*
X142195867Y-60659714D01*
X142195872Y-60659721D01*
X142285409Y-60763053D01*
X142285411Y-60763055D01*
X142317538Y-60783701D01*
X142363293Y-60836503D01*
X142374500Y-60888017D01*
X142374500Y-63055233D01*
X142354815Y-63122272D01*
X142338181Y-63142914D01*
X141692071Y-63789024D01*
X141630748Y-63822509D01*
X141561056Y-63817525D01*
X141505123Y-63775653D01*
X141480706Y-63710189D01*
X141480390Y-63701343D01*
X141480390Y-63700000D01*
X141474658Y-63660132D01*
X141460931Y-63564658D01*
X141435386Y-63508722D01*
X141404132Y-63440285D01*
X141404127Y-63440278D01*
X141314590Y-63336946D01*
X141314586Y-63336942D01*
X141199559Y-63263021D01*
X141068368Y-63224500D01*
X141068367Y-63224500D01*
X140931633Y-63224500D01*
X140931632Y-63224500D01*
X140800440Y-63263021D01*
X140685413Y-63336942D01*
X140685409Y-63336946D01*
X140595872Y-63440278D01*
X140595867Y-63440285D01*
X140539070Y-63564654D01*
X140539068Y-63564662D01*
X140519610Y-63700000D01*
X140539068Y-63835337D01*
X140539070Y-63835345D01*
X140595867Y-63959714D01*
X140595872Y-63959721D01*
X140684613Y-64062134D01*
X140685411Y-64063055D01*
X140717538Y-64083701D01*
X140763293Y-64136503D01*
X140774500Y-64188017D01*
X140774500Y-64230969D01*
X140754815Y-64298008D01*
X140738181Y-64318650D01*
X135818650Y-69238181D01*
X135757327Y-69271666D01*
X135730969Y-69274500D01*
X126344767Y-69274500D01*
X126277728Y-69254815D01*
X126257086Y-69238181D01*
X126186308Y-69167403D01*
X126152823Y-69106080D01*
X126157807Y-69036388D01*
X126199679Y-68980455D01*
X126265143Y-68956038D01*
X126273989Y-68955722D01*
X126285367Y-68955722D01*
X126375076Y-68955722D01*
X129107360Y-68955722D01*
X129107368Y-68955723D01*
X129121802Y-68955723D01*
X129211509Y-68955723D01*
X129211512Y-68955723D01*
X129279079Y-68927735D01*
X129294393Y-68921392D01*
X129357827Y-68857958D01*
X129357827Y-68857957D01*
X129375263Y-68840521D01*
X129375264Y-68840518D01*
X129553965Y-68661817D01*
X129615288Y-68628335D01*
X129641645Y-68625501D01*
X130540702Y-68625501D01*
X130540710Y-68625502D01*
X130555144Y-68625502D01*
X130644852Y-68625502D01*
X130644854Y-68625502D01*
X130703459Y-68601226D01*
X130727735Y-68591171D01*
X130791169Y-68527737D01*
X130791169Y-68527736D01*
X130808607Y-68510298D01*
X130808609Y-68510295D01*
X132910294Y-66408610D01*
X132910297Y-66408608D01*
X132927735Y-66391170D01*
X132927736Y-66391170D01*
X132991170Y-66327736D01*
X132991170Y-66327734D01*
X132991172Y-66327733D01*
X133008843Y-66285069D01*
X133025500Y-66244855D01*
X133025500Y-64150033D01*
X133045185Y-64082994D01*
X133097989Y-64037239D01*
X133167147Y-64027295D01*
X133191904Y-64034566D01*
X133191930Y-64034480D01*
X133331632Y-64075500D01*
X133331633Y-64075500D01*
X133468367Y-64075500D01*
X133599561Y-64036978D01*
X133714589Y-63963055D01*
X133804130Y-63859718D01*
X133813942Y-63838234D01*
X133842521Y-63775653D01*
X133860931Y-63735342D01*
X133880390Y-63600000D01*
X133860931Y-63464658D01*
X133846391Y-63432821D01*
X133804132Y-63340285D01*
X133804130Y-63340283D01*
X133804130Y-63340282D01*
X133725899Y-63249998D01*
X134940019Y-63249998D01*
X134940019Y-63250001D01*
X134959918Y-63528223D01*
X134959919Y-63528230D01*
X135019207Y-63800774D01*
X135116689Y-64062134D01*
X135250361Y-64306938D01*
X135250366Y-64306945D01*
X135411145Y-64521720D01*
X135411146Y-64521721D01*
X136089071Y-63843795D01*
X136118249Y-63887463D01*
X136257537Y-64026751D01*
X136301202Y-64055927D01*
X135623277Y-64733852D01*
X135623278Y-64733853D01*
X135838054Y-64894633D01*
X135838061Y-64894638D01*
X136082865Y-65028310D01*
X136344225Y-65125792D01*
X136616769Y-65185080D01*
X136616776Y-65185081D01*
X136894999Y-65204981D01*
X136895001Y-65204981D01*
X137173223Y-65185081D01*
X137173230Y-65185080D01*
X137445774Y-65125792D01*
X137707134Y-65028310D01*
X137951938Y-64894638D01*
X137951938Y-64894637D01*
X138166721Y-64733852D01*
X137488796Y-64055928D01*
X137532463Y-64026751D01*
X137671751Y-63887463D01*
X137700927Y-63843796D01*
X138378852Y-64521721D01*
X138539637Y-64306938D01*
X138539638Y-64306938D01*
X138673310Y-64062134D01*
X138770792Y-63800774D01*
X138830080Y-63528230D01*
X138830081Y-63528223D01*
X138849981Y-63250001D01*
X138849981Y-63249998D01*
X138830081Y-62971776D01*
X138830080Y-62971769D01*
X138770792Y-62699225D01*
X138673310Y-62437865D01*
X138539638Y-62193061D01*
X138539633Y-62193054D01*
X138378853Y-61978278D01*
X138378852Y-61978277D01*
X137700927Y-62656202D01*
X137671751Y-62612537D01*
X137532463Y-62473249D01*
X137488796Y-62444071D01*
X138166721Y-61766146D01*
X138166720Y-61766145D01*
X137951945Y-61605366D01*
X137951938Y-61605361D01*
X137707134Y-61471689D01*
X137445774Y-61374207D01*
X137173230Y-61314919D01*
X137173223Y-61314918D01*
X136895001Y-61295019D01*
X136894999Y-61295019D01*
X136616776Y-61314918D01*
X136616769Y-61314919D01*
X136344225Y-61374207D01*
X136082865Y-61471689D01*
X135838061Y-61605361D01*
X135838054Y-61605366D01*
X135623278Y-61766145D01*
X135623277Y-61766146D01*
X136301203Y-62444071D01*
X136257537Y-62473249D01*
X136118249Y-62612537D01*
X136089072Y-62656203D01*
X135411146Y-61978277D01*
X135411145Y-61978278D01*
X135250366Y-62193054D01*
X135250361Y-62193061D01*
X135116689Y-62437865D01*
X135019207Y-62699225D01*
X134959919Y-62971769D01*
X134959918Y-62971776D01*
X134940019Y-63249998D01*
X133725899Y-63249998D01*
X133714589Y-63236945D01*
X133682460Y-63216297D01*
X133636706Y-63163494D01*
X133625500Y-63111982D01*
X133625500Y-61944767D01*
X133645185Y-61877728D01*
X133661819Y-61857086D01*
X135457086Y-60061819D01*
X135518409Y-60028334D01*
X135544767Y-60025500D01*
X137309591Y-60025500D01*
X137376630Y-60045185D01*
X137403304Y-60068298D01*
X137485409Y-60163053D01*
X137485413Y-60163057D01*
X137536750Y-60196048D01*
X137600439Y-60236978D01*
X137646409Y-60250476D01*
X137731632Y-60275500D01*
X137731633Y-60275500D01*
X137868367Y-60275500D01*
X137999561Y-60236978D01*
X138114589Y-60163055D01*
X138204130Y-60059718D01*
X138206219Y-60055145D01*
X138222822Y-60018788D01*
X138260931Y-59935342D01*
X138280390Y-59800000D01*
X138260931Y-59664658D01*
X138239919Y-59618649D01*
X138204132Y-59540285D01*
X138204127Y-59540278D01*
X138114590Y-59436946D01*
X138114586Y-59436942D01*
X137999559Y-59363021D01*
X137868368Y-59324500D01*
X137868367Y-59324500D01*
X137731633Y-59324500D01*
X137731632Y-59324500D01*
X137600440Y-59363021D01*
X137485413Y-59436942D01*
X137485409Y-59436946D01*
X137403304Y-59531702D01*
X137344526Y-59569477D01*
X137309591Y-59574500D01*
X135459297Y-59574500D01*
X135459289Y-59574499D01*
X135444855Y-59574499D01*
X135355145Y-59574499D01*
X135355143Y-59574499D01*
X135306334Y-59594717D01*
X135272266Y-59608828D01*
X135272262Y-59608831D01*
X135237181Y-59643913D01*
X135175858Y-59677398D01*
X135106166Y-59672414D01*
X135050233Y-59630542D01*
X135025816Y-59565078D01*
X135025500Y-59556232D01*
X135025500Y-55104507D01*
X135045185Y-55037468D01*
X135097989Y-54991713D01*
X135167147Y-54981769D01*
X135224987Y-55006132D01*
G37*
%TD.AperFunction*%
%TA.AperFunction,Conductor*%
G36*
X75011125Y-68799500D02*
G01*
X74517255Y-68799500D01*
X74450216Y-68779815D01*
X74429574Y-68763181D01*
X73845915Y-68179522D01*
X73845913Y-68179520D01*
X73758775Y-68129210D01*
X73733096Y-68109505D01*
X73112473Y-67488882D01*
X73078988Y-67427559D01*
X73083972Y-67357867D01*
X73125844Y-67301934D01*
X73142586Y-67291375D01*
X73173319Y-67275271D01*
X73232276Y-67232692D01*
X73659818Y-66819537D01*
X73700372Y-66768891D01*
X73732910Y-66715567D01*
X73750104Y-66682062D01*
X73769776Y-66586976D01*
X73770301Y-66584440D01*
X73770301Y-66584435D01*
X73770836Y-66514585D01*
X73770836Y-66514583D01*
X73770835Y-66514581D01*
X73770836Y-66514570D01*
X73769668Y-66500290D01*
X73783824Y-66431871D01*
X73832724Y-66381965D01*
X73893256Y-66366186D01*
X74882134Y-66366186D01*
X74882136Y-66366186D01*
X74983997Y-66338893D01*
X75075322Y-66286166D01*
X75081100Y-66280387D01*
X75011125Y-68799500D01*
G37*
%TD.AperFunction*%
%TA.AperFunction,Conductor*%
G36*
X90622272Y-62945185D02*
G01*
X90642914Y-62961819D01*
X91889627Y-64208532D01*
X91889630Y-64208536D01*
X91896698Y-64215604D01*
X91960132Y-64279038D01*
X91960137Y-64279040D01*
X91974358Y-64284931D01*
X91974359Y-64284931D01*
X92043011Y-64313368D01*
X92043012Y-64313368D01*
X92043014Y-64313369D01*
X92043015Y-64313369D01*
X92147157Y-64313369D01*
X92147165Y-64313368D01*
X106093101Y-64313368D01*
X106160140Y-64333053D01*
X106180782Y-64349687D01*
X109896019Y-68064924D01*
X109929504Y-68126247D01*
X109931076Y-68170252D01*
X109919610Y-68250000D01*
X109939068Y-68385337D01*
X109939069Y-68385343D01*
X109945302Y-68398990D01*
X109955245Y-68468149D01*
X109926219Y-68531704D01*
X109867440Y-68569478D01*
X109832507Y-68574500D01*
X107817559Y-68574500D01*
X107750520Y-68554815D01*
X107729878Y-68538181D01*
X104081402Y-64889705D01*
X104063962Y-64872264D01*
X104000528Y-64808830D01*
X104000527Y-64808829D01*
X103976249Y-64798772D01*
X103976249Y-64798771D01*
X103917650Y-64774500D01*
X103917648Y-64774499D01*
X103917647Y-64774499D01*
X103827937Y-64774499D01*
X103813503Y-64774499D01*
X103813495Y-64774500D01*
X83698625Y-64774500D01*
X83631586Y-64754815D01*
X83610944Y-64738181D01*
X82009944Y-63137181D01*
X81976459Y-63075858D01*
X81981443Y-63006166D01*
X82023315Y-62950233D01*
X82088779Y-62925816D01*
X82097625Y-62925500D01*
X90555233Y-62925500D01*
X90622272Y-62945185D01*
G37*
%TD.AperFunction*%
%TA.AperFunction,Conductor*%
G36*
X116822272Y-62345185D02*
G01*
X116842914Y-62361819D01*
X121251759Y-66770664D01*
X121251762Y-66770668D01*
X121258830Y-66777736D01*
X121322264Y-66841170D01*
X121333944Y-66846007D01*
X121336363Y-66847010D01*
X121354226Y-66854409D01*
X121405146Y-66875501D01*
X121405147Y-66875501D01*
X121509289Y-66875501D01*
X121509297Y-66875500D01*
X126005233Y-66875500D01*
X126072272Y-66895185D01*
X126092914Y-66911819D01*
X126596435Y-67415341D01*
X126629920Y-67476664D01*
X126624936Y-67546356D01*
X126583064Y-67602289D01*
X126517600Y-67626706D01*
X126484567Y-67624640D01*
X126483858Y-67624499D01*
X126483855Y-67624499D01*
X126394145Y-67624499D01*
X126379711Y-67624499D01*
X126379703Y-67624500D01*
X122809297Y-67624500D01*
X122809289Y-67624499D01*
X122794855Y-67624499D01*
X122705145Y-67624499D01*
X122705143Y-67624499D01*
X122681847Y-67634149D01*
X122646539Y-67648774D01*
X122646537Y-67648774D01*
X122622264Y-67658829D01*
X122582868Y-67698226D01*
X122558830Y-67722264D01*
X122558829Y-67722265D01*
X122134457Y-68146638D01*
X121742914Y-68538181D01*
X121681591Y-68571666D01*
X121655233Y-68574500D01*
X111767493Y-68574500D01*
X111700454Y-68554815D01*
X111654699Y-68502011D01*
X111644755Y-68432853D01*
X111654698Y-68398990D01*
X111660931Y-68385342D01*
X111680390Y-68250000D01*
X111660931Y-68114658D01*
X111631293Y-68049760D01*
X111604132Y-67990285D01*
X111604127Y-67990278D01*
X111514590Y-67886946D01*
X111514586Y-67886942D01*
X111415383Y-67823190D01*
X111399561Y-67813022D01*
X111399560Y-67813021D01*
X111399559Y-67813021D01*
X111268368Y-67774500D01*
X111268367Y-67774500D01*
X111131633Y-67774500D01*
X111122855Y-67775762D01*
X111122572Y-67773799D01*
X111064148Y-67773797D01*
X111011407Y-67742502D01*
X106946479Y-63677574D01*
X106946477Y-63677571D01*
X106865604Y-63596698D01*
X106831771Y-63582684D01*
X106831768Y-63582682D01*
X106782724Y-63562367D01*
X106782723Y-63562367D01*
X106693013Y-63562367D01*
X106678579Y-63562367D01*
X106678571Y-63562368D01*
X92356899Y-63562368D01*
X92289860Y-63542683D01*
X92269218Y-63526049D01*
X91280350Y-62537181D01*
X91246865Y-62475858D01*
X91251849Y-62406166D01*
X91293721Y-62350233D01*
X91359185Y-62325816D01*
X91368031Y-62325500D01*
X116755233Y-62325500D01*
X116822272Y-62345185D01*
G37*
%TD.AperFunction*%
%TA.AperFunction,Conductor*%
G36*
X130822272Y-60145185D02*
G01*
X130842914Y-60161819D01*
X131203297Y-60522202D01*
X131236782Y-60583525D01*
X131238354Y-60627529D01*
X131223130Y-60733418D01*
X131242588Y-60868756D01*
X131242590Y-60868764D01*
X131299387Y-60993133D01*
X131299392Y-60993140D01*
X131388929Y-61096472D01*
X131388933Y-61096476D01*
X131429063Y-61122265D01*
X131503959Y-61170397D01*
X131530970Y-61178328D01*
X131635152Y-61208919D01*
X131635153Y-61208919D01*
X131771887Y-61208919D01*
X131903081Y-61170397D01*
X132018106Y-61096476D01*
X132025571Y-61091679D01*
X132026634Y-61093333D01*
X132079817Y-61069039D01*
X132148976Y-61078975D01*
X132191192Y-61110572D01*
X132258330Y-61188055D01*
X132373358Y-61261978D01*
X132373360Y-61261978D01*
X132378748Y-61265441D01*
X132424504Y-61318244D01*
X132434448Y-61387402D01*
X132405424Y-61450958D01*
X132399393Y-61457437D01*
X132372265Y-61484565D01*
X132372264Y-61484566D01*
X132355972Y-61500858D01*
X132308830Y-61547999D01*
X132308829Y-61548000D01*
X132303704Y-61560376D01*
X132303703Y-61560378D01*
X132274499Y-61630881D01*
X132274499Y-61735024D01*
X132274500Y-61735033D01*
X132274500Y-65930968D01*
X132254815Y-65998007D01*
X132238181Y-66018649D01*
X130890387Y-67366442D01*
X130829064Y-67399927D01*
X130759372Y-67394943D01*
X130703439Y-67353071D01*
X130679968Y-67296407D01*
X130676929Y-67275271D01*
X130673584Y-67252005D01*
X130650871Y-67202271D01*
X130616785Y-67127632D01*
X130616780Y-67127625D01*
X130527243Y-67024293D01*
X130527239Y-67024289D01*
X130412212Y-66950368D01*
X130281021Y-66911847D01*
X130281020Y-66911847D01*
X130144286Y-66911847D01*
X130135508Y-66913109D01*
X130135225Y-66911146D01*
X130076801Y-66911144D01*
X130024060Y-66879849D01*
X129937442Y-66793231D01*
X129937440Y-66793228D01*
X129856567Y-66712355D01*
X129814318Y-66694855D01*
X129803351Y-66690312D01*
X129773687Y-66678024D01*
X129773686Y-66678024D01*
X129683976Y-66678024D01*
X129669542Y-66678024D01*
X129669534Y-66678025D01*
X127841242Y-66678025D01*
X127774203Y-66658340D01*
X127753561Y-66641706D01*
X127051561Y-65939706D01*
X127051559Y-65939703D01*
X126970687Y-65858831D01*
X126970686Y-65858830D01*
X126935931Y-65844434D01*
X126887805Y-65824499D01*
X126798095Y-65824499D01*
X126783661Y-65824499D01*
X126783653Y-65824500D01*
X121843295Y-65824500D01*
X121776256Y-65804815D01*
X121755614Y-65788181D01*
X119100739Y-63133306D01*
X127369500Y-63133306D01*
X127369500Y-63366693D01*
X127369501Y-63366709D01*
X127399964Y-63598100D01*
X127460375Y-63823555D01*
X127549690Y-64039181D01*
X127549695Y-64039192D01*
X127666387Y-64241307D01*
X127666398Y-64241323D01*
X127808475Y-64426482D01*
X127808481Y-64426489D01*
X127973510Y-64591518D01*
X127973517Y-64591524D01*
X128103590Y-64691332D01*
X128158685Y-64733608D01*
X128158692Y-64733612D01*
X128360807Y-64850304D01*
X128360812Y-64850306D01*
X128360815Y-64850308D01*
X128512885Y-64913297D01*
X128548581Y-64928083D01*
X128576449Y-64939626D01*
X128801896Y-65000035D01*
X129033300Y-65030500D01*
X129033307Y-65030500D01*
X129266693Y-65030500D01*
X129266700Y-65030500D01*
X129498104Y-65000035D01*
X129723551Y-64939626D01*
X129939185Y-64850308D01*
X130141315Y-64733608D01*
X130326484Y-64591523D01*
X130491523Y-64426484D01*
X130633608Y-64241315D01*
X130750308Y-64039185D01*
X130839626Y-63823551D01*
X130900035Y-63598104D01*
X130930500Y-63366700D01*
X130930500Y-63133300D01*
X130900035Y-62901896D01*
X130839626Y-62676449D01*
X130750308Y-62460815D01*
X130750306Y-62460812D01*
X130750304Y-62460807D01*
X130633612Y-62258692D01*
X130633608Y-62258685D01*
X130491523Y-62073516D01*
X130491518Y-62073510D01*
X130326489Y-61908481D01*
X130326482Y-61908475D01*
X130141323Y-61766398D01*
X130141321Y-61766396D01*
X130141315Y-61766392D01*
X130141310Y-61766389D01*
X130141307Y-61766387D01*
X129939192Y-61649695D01*
X129939181Y-61649690D01*
X129723555Y-61560375D01*
X129509759Y-61503088D01*
X129498104Y-61499965D01*
X129498103Y-61499964D01*
X129498100Y-61499964D01*
X129266709Y-61469501D01*
X129266706Y-61469500D01*
X129266700Y-61469500D01*
X129033300Y-61469500D01*
X129033294Y-61469500D01*
X129033290Y-61469501D01*
X128801899Y-61499964D01*
X128576444Y-61560375D01*
X128360818Y-61649690D01*
X128360807Y-61649695D01*
X128158692Y-61766387D01*
X128158676Y-61766398D01*
X127973517Y-61908475D01*
X127973510Y-61908481D01*
X127808481Y-62073510D01*
X127808475Y-62073517D01*
X127666398Y-62258676D01*
X127666387Y-62258692D01*
X127549695Y-62460807D01*
X127549690Y-62460818D01*
X127460375Y-62676444D01*
X127399964Y-62901899D01*
X127369501Y-63133290D01*
X127369500Y-63133306D01*
X119100739Y-63133306D01*
X117529614Y-61562181D01*
X117496129Y-61500858D01*
X117501113Y-61431166D01*
X117542985Y-61375233D01*
X117608449Y-61350816D01*
X117617295Y-61350500D01*
X122064967Y-61350500D01*
X122064975Y-61350501D01*
X122079409Y-61350501D01*
X122169117Y-61350501D01*
X122169119Y-61350501D01*
X122227724Y-61326225D01*
X122252000Y-61316170D01*
X122315434Y-61252736D01*
X122315434Y-61252735D01*
X122332872Y-61235297D01*
X122332873Y-61235294D01*
X123406350Y-60161819D01*
X123467673Y-60128334D01*
X123494031Y-60125500D01*
X130755233Y-60125500D01*
X130822272Y-60145185D01*
G37*
%TD.AperFunction*%
%TA.AperFunction,Conductor*%
G36*
X81327602Y-63945185D02*
G01*
X81348244Y-63961819D01*
X82868177Y-65481753D01*
X82901662Y-65543076D01*
X82896678Y-65612768D01*
X82854806Y-65668701D01*
X82789342Y-65693118D01*
X82780496Y-65693434D01*
X80390909Y-65693434D01*
X80323870Y-65673749D01*
X80303228Y-65657115D01*
X78783294Y-64137181D01*
X78749809Y-64075858D01*
X78754793Y-64006166D01*
X78796665Y-63950233D01*
X78862129Y-63925816D01*
X78870975Y-63925500D01*
X81260563Y-63925500D01*
X81327602Y-63945185D01*
G37*
%TD.AperFunction*%
%TA.AperFunction,Conductor*%
G36*
X61674743Y-58445185D02*
G01*
X61720498Y-58497989D01*
X61730442Y-58567147D01*
X61701417Y-58630703D01*
X61695385Y-58637181D01*
X61458829Y-58873736D01*
X61448774Y-58898009D01*
X61448774Y-58898011D01*
X61443101Y-58911707D01*
X61424499Y-58956615D01*
X61424499Y-58983051D01*
X61404814Y-59050090D01*
X61388180Y-59070732D01*
X61124710Y-59334201D01*
X61063387Y-59367686D01*
X61002095Y-59365497D01*
X60883854Y-59330779D01*
X60883851Y-59330779D01*
X60747117Y-59330779D01*
X60747116Y-59330779D01*
X60615924Y-59369300D01*
X60500897Y-59443221D01*
X60500893Y-59443225D01*
X60411356Y-59546557D01*
X60411351Y-59546564D01*
X60354554Y-59670933D01*
X60354552Y-59670941D01*
X60335094Y-59806279D01*
X60354552Y-59941616D01*
X60354553Y-59941622D01*
X60360963Y-59955657D01*
X60370904Y-60024815D01*
X60341878Y-60088370D01*
X60315206Y-60111481D01*
X60200989Y-60184882D01*
X60200988Y-60184883D01*
X60111451Y-60288215D01*
X60111446Y-60288222D01*
X60054649Y-60412591D01*
X60054647Y-60412599D01*
X60035189Y-60547937D01*
X60054647Y-60683274D01*
X60054649Y-60683282D01*
X60111446Y-60807651D01*
X60111449Y-60807655D01*
X60117515Y-60814656D01*
X60120070Y-60817604D01*
X60149095Y-60881160D01*
X60139151Y-60950319D01*
X60120071Y-60980009D01*
X60029915Y-61084056D01*
X60029912Y-61084059D01*
X59973115Y-61208428D01*
X59973113Y-61208436D01*
X59953655Y-61343774D01*
X59973113Y-61479111D01*
X59973115Y-61479119D01*
X60021536Y-61585146D01*
X60031480Y-61654304D01*
X60002455Y-61717860D01*
X59943677Y-61755634D01*
X59873807Y-61755634D01*
X59821061Y-61724338D01*
X59661819Y-61565096D01*
X59628334Y-61503773D01*
X59625500Y-61477415D01*
X59625500Y-58969031D01*
X59645185Y-58901992D01*
X59661819Y-58881350D01*
X60081350Y-58461819D01*
X60142673Y-58428334D01*
X60169031Y-58425500D01*
X61607704Y-58425500D01*
X61674743Y-58445185D01*
G37*
%TD.AperFunction*%
%TA.AperFunction,Conductor*%
G36*
X57113566Y-58445185D02*
G01*
X57134208Y-58461819D01*
X57278090Y-58605701D01*
X57278093Y-58605705D01*
X57348597Y-58676209D01*
X57405274Y-58699684D01*
X57431476Y-58710537D01*
X57521185Y-58710537D01*
X57955666Y-58710537D01*
X57955674Y-58710538D01*
X58052169Y-58710538D01*
X58119208Y-58730223D01*
X58164963Y-58783027D01*
X58173577Y-58842932D01*
X58174499Y-58842932D01*
X58174499Y-58849347D01*
X58174907Y-58852185D01*
X58174499Y-58854566D01*
X58174499Y-58959288D01*
X58174500Y-58959297D01*
X58174500Y-59955233D01*
X58154815Y-60022272D01*
X58138181Y-60042914D01*
X57092914Y-61088181D01*
X57031591Y-61121666D01*
X57005233Y-61124500D01*
X56744769Y-61124500D01*
X56677730Y-61104815D01*
X56657088Y-61088181D01*
X56627737Y-61058830D01*
X56603457Y-61048772D01*
X56603457Y-61048771D01*
X56544858Y-61024500D01*
X56544856Y-61024499D01*
X56544855Y-61024499D01*
X56455145Y-61024499D01*
X56440711Y-61024499D01*
X56440703Y-61024500D01*
X55794854Y-61024500D01*
X55705145Y-61024500D01*
X55705143Y-61024500D01*
X55705141Y-61024501D01*
X55622266Y-61058827D01*
X55622264Y-61058829D01*
X55442914Y-61238181D01*
X55381591Y-61271666D01*
X55355233Y-61274500D01*
X55117587Y-61274500D01*
X55050548Y-61254815D01*
X55029906Y-61238182D01*
X54913988Y-61122265D01*
X54913988Y-61122264D01*
X54850554Y-61058830D01*
X54850553Y-61058829D01*
X54826275Y-61048772D01*
X54826275Y-61048771D01*
X54767676Y-61024500D01*
X54767674Y-61024499D01*
X54767673Y-61024499D01*
X54677963Y-61024499D01*
X54663529Y-61024499D01*
X54663521Y-61024500D01*
X54294854Y-61024500D01*
X54205145Y-61024500D01*
X54205143Y-61024500D01*
X54205141Y-61024501D01*
X54122266Y-61058827D01*
X54122264Y-61058829D01*
X53942914Y-61238181D01*
X53881591Y-61271666D01*
X53855233Y-61274500D01*
X53517587Y-61274500D01*
X53450548Y-61254815D01*
X53429906Y-61238182D01*
X53313988Y-61122265D01*
X53313988Y-61122264D01*
X53250554Y-61058830D01*
X53250553Y-61058829D01*
X53226275Y-61048772D01*
X53226275Y-61048771D01*
X53167676Y-61024500D01*
X53167674Y-61024499D01*
X53167673Y-61024499D01*
X53077963Y-61024499D01*
X53063529Y-61024499D01*
X53063521Y-61024500D01*
X52544854Y-61024500D01*
X52455145Y-61024500D01*
X52455143Y-61024500D01*
X52455141Y-61024501D01*
X52372266Y-61058827D01*
X52372264Y-61058829D01*
X52192914Y-61238181D01*
X52131591Y-61271666D01*
X52105233Y-61274500D01*
X51917587Y-61274500D01*
X51850548Y-61254815D01*
X51829906Y-61238182D01*
X51713988Y-61122265D01*
X51713988Y-61122264D01*
X51650554Y-61058830D01*
X51650553Y-61058829D01*
X51626275Y-61048772D01*
X51626275Y-61048771D01*
X51567676Y-61024500D01*
X51567674Y-61024499D01*
X51567673Y-61024499D01*
X51477963Y-61024499D01*
X51463529Y-61024499D01*
X51463521Y-61024500D01*
X51126479Y-61024500D01*
X51126471Y-61024499D01*
X51112037Y-61024499D01*
X51022328Y-61024499D01*
X51022325Y-61024499D01*
X50993205Y-61036561D01*
X50993206Y-61036562D01*
X50939449Y-61058829D01*
X50939444Y-61058831D01*
X50906597Y-61091679D01*
X50876012Y-61122264D01*
X50876011Y-61122265D01*
X50858246Y-61140030D01*
X50845913Y-61152363D01*
X50784589Y-61185847D01*
X50784030Y-61185967D01*
X50383719Y-61271110D01*
X50314051Y-61265803D01*
X50258312Y-61223673D01*
X50234198Y-61158096D01*
X50249366Y-61089893D01*
X50270243Y-61062139D01*
X50278194Y-61054188D01*
X50322396Y-60988034D01*
X50322397Y-60988033D01*
X50333999Y-60929702D01*
X50334000Y-60929699D01*
X50334000Y-60690000D01*
X48908000Y-60690000D01*
X48840961Y-60670315D01*
X48795206Y-60617511D01*
X48784000Y-60566000D01*
X48784000Y-60514000D01*
X48803685Y-60446961D01*
X48856489Y-60401206D01*
X48908000Y-60390000D01*
X50334000Y-60390000D01*
X50334000Y-60150301D01*
X50333999Y-60150297D01*
X50322397Y-60091966D01*
X50322396Y-60091965D01*
X50278191Y-60025808D01*
X50207142Y-59978334D01*
X50162337Y-59924722D01*
X50153630Y-59855397D01*
X50183785Y-59792369D01*
X50207135Y-59772136D01*
X50242504Y-59748504D01*
X50275767Y-59698722D01*
X50281295Y-59670933D01*
X50284500Y-59654822D01*
X50284500Y-58885177D01*
X50275768Y-58841282D01*
X50275767Y-58841281D01*
X50275767Y-58841278D01*
X50260473Y-58818389D01*
X50239596Y-58751713D01*
X50258081Y-58684333D01*
X50310059Y-58637643D01*
X50363576Y-58625500D01*
X51657885Y-58625500D01*
X51657893Y-58625501D01*
X51672327Y-58625501D01*
X51762034Y-58625501D01*
X51762037Y-58625501D01*
X51823600Y-58600000D01*
X51844918Y-58591170D01*
X51908352Y-58527736D01*
X51908352Y-58527735D01*
X51924269Y-58511819D01*
X51985592Y-58478334D01*
X52011950Y-58475500D01*
X52178051Y-58475500D01*
X52245090Y-58495185D01*
X52265732Y-58511819D01*
X52446759Y-58692846D01*
X52446762Y-58692850D01*
X52517266Y-58763354D01*
X52564764Y-58783027D01*
X52600145Y-58797682D01*
X53085703Y-58797682D01*
X53085711Y-58797683D01*
X53100145Y-58797683D01*
X53189852Y-58797683D01*
X53189855Y-58797683D01*
X53251220Y-58772264D01*
X53272736Y-58763352D01*
X53336170Y-58699918D01*
X53336170Y-58699917D01*
X53353606Y-58682481D01*
X53353607Y-58682478D01*
X53524269Y-58511816D01*
X53585592Y-58478334D01*
X53611949Y-58475500D01*
X53778051Y-58475500D01*
X53845090Y-58495185D01*
X53865732Y-58511819D01*
X53874577Y-58520664D01*
X53874580Y-58520668D01*
X53881648Y-58527736D01*
X53945082Y-58591170D01*
X53966396Y-58599998D01*
X53966398Y-58600000D01*
X54013075Y-58619334D01*
X54027963Y-58625501D01*
X54027966Y-58625501D01*
X54132107Y-58625501D01*
X54132115Y-58625500D01*
X54740703Y-58625500D01*
X54740711Y-58625501D01*
X54755145Y-58625501D01*
X54844852Y-58625501D01*
X54844855Y-58625501D01*
X54906418Y-58600000D01*
X54927736Y-58591170D01*
X54991170Y-58527736D01*
X54991170Y-58527735D01*
X55007087Y-58511819D01*
X55068410Y-58478334D01*
X55094768Y-58475500D01*
X55505232Y-58475500D01*
X55572271Y-58495185D01*
X55592913Y-58511819D01*
X55622266Y-58541172D01*
X55684979Y-58567147D01*
X55705145Y-58575500D01*
X55794854Y-58575500D01*
X56263521Y-58575500D01*
X56263529Y-58575501D01*
X56277963Y-58575501D01*
X56367671Y-58575501D01*
X56367673Y-58575501D01*
X56426278Y-58551225D01*
X56450554Y-58541170D01*
X56513988Y-58477736D01*
X56513988Y-58477735D01*
X56529905Y-58461819D01*
X56591228Y-58428334D01*
X56617586Y-58425500D01*
X57046527Y-58425500D01*
X57113566Y-58445185D01*
G37*
%TD.AperFunction*%
%TA.AperFunction,Conductor*%
G36*
X64223286Y-60143699D02*
G01*
X64243928Y-60160333D01*
X64408360Y-60324765D01*
X64441845Y-60386088D01*
X64443417Y-60430093D01*
X64431951Y-60509841D01*
X64451409Y-60645178D01*
X64451410Y-60645184D01*
X64457643Y-60658831D01*
X64467586Y-60727990D01*
X64438560Y-60791545D01*
X64379781Y-60829319D01*
X64344848Y-60834341D01*
X63671310Y-60834341D01*
X63604271Y-60814656D01*
X63558516Y-60761852D01*
X63548572Y-60692694D01*
X63577597Y-60629138D01*
X63583629Y-60622660D01*
X63591170Y-60615119D01*
X63591170Y-60615117D01*
X63591172Y-60615116D01*
X63611813Y-60565282D01*
X63625500Y-60532238D01*
X63625500Y-60398515D01*
X63645185Y-60331476D01*
X63661819Y-60310834D01*
X63812320Y-60160333D01*
X63873643Y-60126848D01*
X63900001Y-60124014D01*
X64156247Y-60124014D01*
X64223286Y-60143699D01*
G37*
%TD.AperFunction*%
%TA.AperFunction,Conductor*%
G36*
X74147632Y-57770545D02*
G01*
X74168274Y-57787179D01*
X75338181Y-58957086D01*
X75371666Y-59018409D01*
X75374500Y-59044767D01*
X75374500Y-60085521D01*
X75354815Y-60152560D01*
X75302011Y-60198315D01*
X75232853Y-60208259D01*
X75169297Y-60179234D01*
X75162819Y-60173202D01*
X72952158Y-57962541D01*
X72918673Y-57901218D01*
X72923657Y-57831526D01*
X72965529Y-57775593D01*
X73030993Y-57751176D01*
X73039839Y-57750860D01*
X74080593Y-57750860D01*
X74147632Y-57770545D01*
G37*
%TD.AperFunction*%
%TA.AperFunction,Conductor*%
G36*
X46797906Y-58017868D02*
G01*
X46844335Y-58047124D01*
X46987881Y-58190670D01*
X47021366Y-58251993D01*
X47024200Y-58278351D01*
X47024200Y-58844668D01*
X47004515Y-58911707D01*
X46951711Y-58957462D01*
X46892096Y-58968403D01*
X46864533Y-58966597D01*
X46597452Y-59233681D01*
X46536128Y-59267166D01*
X46509770Y-59270000D01*
X46436230Y-59270000D01*
X46369191Y-59250315D01*
X46323436Y-59197511D01*
X46313492Y-59128353D01*
X46342517Y-59064797D01*
X46348549Y-59058319D01*
X46652402Y-58754466D01*
X46652401Y-58754465D01*
X46648411Y-58751404D01*
X46648410Y-58751403D01*
X46503986Y-58691580D01*
X46497048Y-58689722D01*
X46437387Y-58653358D01*
X46406857Y-58590512D01*
X46415151Y-58521136D01*
X46441460Y-58482265D01*
X46492925Y-58430800D01*
X46492928Y-58430797D01*
X46566886Y-58320111D01*
X46617829Y-58197124D01*
X46635037Y-58110613D01*
X46667421Y-58048703D01*
X46728137Y-58014129D01*
X46797906Y-58017868D01*
G37*
%TD.AperFunction*%
%TA.AperFunction,Conductor*%
G36*
X140143039Y-52245185D02*
G01*
X140188794Y-52297989D01*
X140200000Y-52349500D01*
X140200000Y-53665088D01*
X140180315Y-53732127D01*
X140163681Y-53752769D01*
X140030025Y-53886424D01*
X140030024Y-53886425D01*
X139999500Y-53960116D01*
X139999500Y-56639883D01*
X140028572Y-56710069D01*
X140030024Y-56713574D01*
X140086426Y-56769976D01*
X140160118Y-56800500D01*
X144327898Y-56800500D01*
X144394937Y-56820185D01*
X144440692Y-56872989D01*
X144450636Y-56942147D01*
X144421611Y-57005703D01*
X144403139Y-57021999D01*
X144403480Y-57022414D01*
X144398770Y-57026278D01*
X144301275Y-57123773D01*
X144224671Y-57238420D01*
X144224664Y-57238433D01*
X144171901Y-57365815D01*
X144171899Y-57365823D01*
X144161122Y-57419999D01*
X144161123Y-57420000D01*
X144585192Y-57420000D01*
X144565444Y-57454204D01*
X144545000Y-57530504D01*
X144545000Y-57609496D01*
X144565444Y-57685796D01*
X144585192Y-57720000D01*
X144161123Y-57720000D01*
X144171899Y-57774176D01*
X144171901Y-57774184D01*
X144224664Y-57901566D01*
X144224671Y-57901579D01*
X144301275Y-58016226D01*
X144398773Y-58113724D01*
X144513420Y-58190328D01*
X144513433Y-58190335D01*
X144640813Y-58243097D01*
X144640823Y-58243100D01*
X144776053Y-58270000D01*
X145245000Y-58270000D01*
X145245000Y-57870000D01*
X145545000Y-57870000D01*
X145545000Y-58270000D01*
X145724423Y-58270000D01*
X145791462Y-58289685D01*
X145837217Y-58342489D01*
X145847161Y-58411647D01*
X145818136Y-58475203D01*
X145759358Y-58512977D01*
X145756549Y-58513765D01*
X145704411Y-58527736D01*
X145699884Y-58528949D01*
X145699881Y-58528950D01*
X145584619Y-58595497D01*
X145584613Y-58595501D01*
X145490501Y-58689613D01*
X145490497Y-58689619D01*
X145423950Y-58804881D01*
X145423949Y-58804884D01*
X145389500Y-58933450D01*
X145389500Y-58973205D01*
X145369815Y-59040244D01*
X145317011Y-59085999D01*
X145247853Y-59095943D01*
X145200961Y-59079085D01*
X145186854Y-59070486D01*
X145186848Y-59070483D01*
X145119812Y-59050799D01*
X145119802Y-59050797D01*
X145076003Y-59044500D01*
X145076000Y-59044500D01*
X142524000Y-59044500D01*
X142523991Y-59044500D01*
X142490944Y-59048054D01*
X142439433Y-59059260D01*
X142370657Y-59093686D01*
X142317860Y-59139436D01*
X142312381Y-59144418D01*
X142306738Y-59151254D01*
X142304630Y-59149514D01*
X142263335Y-59187044D01*
X142209169Y-59199500D01*
X140817255Y-59199500D01*
X140750216Y-59179815D01*
X140729574Y-59163181D01*
X136183323Y-54616930D01*
X136149838Y-54555607D01*
X136148067Y-54545448D01*
X136136330Y-54456291D01*
X136080861Y-54322375D01*
X135992621Y-54207379D01*
X135877625Y-54119139D01*
X135877624Y-54119138D01*
X135877622Y-54119137D01*
X135743712Y-54063671D01*
X135743710Y-54063670D01*
X135743709Y-54063670D01*
X135671854Y-54054210D01*
X135600001Y-54044750D01*
X135599999Y-54044750D01*
X135456291Y-54063670D01*
X135456287Y-54063671D01*
X135322376Y-54119138D01*
X135322374Y-54119139D01*
X135224986Y-54193868D01*
X135159817Y-54219062D01*
X135091372Y-54205024D01*
X135041383Y-54156210D01*
X135025500Y-54095492D01*
X135025500Y-53944767D01*
X135045185Y-53877728D01*
X135061819Y-53857086D01*
X136657087Y-52261819D01*
X136718410Y-52228334D01*
X136744768Y-52225500D01*
X140076000Y-52225500D01*
X140143039Y-52245185D01*
G37*
%TD.AperFunction*%
%TA.AperFunction,Conductor*%
G36*
X59223272Y-56745185D02*
G01*
X59269027Y-56797989D01*
X59278971Y-56867147D01*
X59249946Y-56930703D01*
X59243914Y-56937181D01*
X57957877Y-58223218D01*
X57896554Y-58256703D01*
X57870196Y-58259537D01*
X57621098Y-58259537D01*
X57554059Y-58239852D01*
X57533417Y-58223218D01*
X57399904Y-58089705D01*
X57382464Y-58072264D01*
X57319030Y-58008830D01*
X57319029Y-58008829D01*
X57294751Y-57998772D01*
X57294751Y-57998771D01*
X57236152Y-57974500D01*
X57236150Y-57974499D01*
X57236149Y-57974499D01*
X57146439Y-57974499D01*
X57132005Y-57974499D01*
X57131997Y-57974500D01*
X56532115Y-57974500D01*
X56532107Y-57974499D01*
X56517673Y-57974499D01*
X56427963Y-57974499D01*
X56427961Y-57974499D01*
X56399221Y-57986404D01*
X56369357Y-57998774D01*
X56369355Y-57998774D01*
X56345082Y-58008829D01*
X56281648Y-58072264D01*
X56281644Y-58072266D01*
X56265734Y-58088178D01*
X56204412Y-58121665D01*
X56178050Y-58124500D01*
X55894768Y-58124500D01*
X55827729Y-58104815D01*
X55807087Y-58088181D01*
X55777734Y-58058828D01*
X55743999Y-58044856D01*
X55743995Y-58044854D01*
X55694857Y-58024499D01*
X55694855Y-58024499D01*
X55605145Y-58024499D01*
X55590711Y-58024499D01*
X55590703Y-58024500D01*
X55009297Y-58024500D01*
X55009289Y-58024499D01*
X54994855Y-58024499D01*
X54905145Y-58024499D01*
X54905142Y-58024499D01*
X54856005Y-58044854D01*
X54856001Y-58044856D01*
X54822265Y-58058828D01*
X54822264Y-58058829D01*
X54758830Y-58122264D01*
X54758826Y-58122266D01*
X54742916Y-58138178D01*
X54681594Y-58171665D01*
X54655232Y-58174500D01*
X54217586Y-58174500D01*
X54150547Y-58154815D01*
X54129905Y-58138181D01*
X54050552Y-58058828D01*
X54016817Y-58044856D01*
X54016813Y-58044854D01*
X53967675Y-58024499D01*
X53967673Y-58024499D01*
X53877963Y-58024499D01*
X53863529Y-58024499D01*
X53863521Y-58024500D01*
X53422327Y-58024500D01*
X53422325Y-58024500D01*
X53422323Y-58024501D01*
X53339448Y-58058827D01*
X53339446Y-58058829D01*
X53302399Y-58095877D01*
X53276012Y-58122264D01*
X53276011Y-58122265D01*
X53171288Y-58226989D01*
X53087914Y-58310363D01*
X53026591Y-58343848D01*
X53000233Y-58346682D01*
X52789767Y-58346682D01*
X52722728Y-58326997D01*
X52702086Y-58310363D01*
X52531429Y-58139706D01*
X52531427Y-58139703D01*
X52450552Y-58058828D01*
X52416817Y-58044856D01*
X52416813Y-58044854D01*
X52381545Y-58030245D01*
X52327142Y-57986404D01*
X52305078Y-57920109D01*
X52322358Y-57852410D01*
X52373496Y-57804800D01*
X52381547Y-57801124D01*
X52389854Y-57797683D01*
X52389855Y-57797683D01*
X52451220Y-57772264D01*
X52472736Y-57763352D01*
X52536170Y-57699918D01*
X52536170Y-57699917D01*
X52553606Y-57682481D01*
X52553607Y-57682478D01*
X52724269Y-57511816D01*
X52785592Y-57478334D01*
X52811949Y-57475500D01*
X53105232Y-57475500D01*
X53172271Y-57495185D01*
X53192912Y-57511818D01*
X53230855Y-57549761D01*
X53255128Y-57559815D01*
X53255129Y-57559816D01*
X53255130Y-57559816D01*
X53313736Y-57584092D01*
X53313737Y-57584092D01*
X53417880Y-57584092D01*
X53417888Y-57584091D01*
X54099294Y-57584091D01*
X54099302Y-57584092D01*
X54113736Y-57584092D01*
X54203444Y-57584092D01*
X54203446Y-57584092D01*
X54262051Y-57559816D01*
X54286327Y-57549761D01*
X54324269Y-57511819D01*
X54385592Y-57478334D01*
X54411950Y-57475500D01*
X54705232Y-57475500D01*
X54772271Y-57495185D01*
X54792912Y-57511818D01*
X54830855Y-57549761D01*
X54855128Y-57559815D01*
X54855129Y-57559816D01*
X54855130Y-57559816D01*
X54913736Y-57584092D01*
X54913737Y-57584092D01*
X55017880Y-57584092D01*
X55017888Y-57584091D01*
X55699294Y-57584091D01*
X55699302Y-57584092D01*
X55713736Y-57584092D01*
X55803444Y-57584092D01*
X55803446Y-57584092D01*
X55862051Y-57559816D01*
X55886327Y-57549761D01*
X55924269Y-57511819D01*
X55985592Y-57478334D01*
X56011950Y-57475500D01*
X56305232Y-57475500D01*
X56372271Y-57495185D01*
X56392913Y-57511819D01*
X56422266Y-57541172D01*
X56476268Y-57563539D01*
X56505145Y-57575500D01*
X56594854Y-57575500D01*
X57671401Y-57575500D01*
X57671409Y-57575501D01*
X57685843Y-57575501D01*
X57775550Y-57575501D01*
X57775553Y-57575501D01*
X57837693Y-57549761D01*
X57858434Y-57541170D01*
X57921868Y-57477736D01*
X57921868Y-57477735D01*
X57939306Y-57460297D01*
X57939307Y-57460294D01*
X58637784Y-56761819D01*
X58699107Y-56728334D01*
X58725465Y-56725500D01*
X59156233Y-56725500D01*
X59223272Y-56745185D01*
G37*
%TD.AperFunction*%
%TA.AperFunction,Conductor*%
G36*
X50912336Y-56962431D02*
G01*
X50932978Y-56979065D01*
X51646759Y-57692846D01*
X51646762Y-57692850D01*
X51653830Y-57699918D01*
X51717264Y-57763352D01*
X51738776Y-57772262D01*
X51738778Y-57772264D01*
X51738779Y-57772264D01*
X51774553Y-57787082D01*
X51800145Y-57797683D01*
X51800146Y-57797683D01*
X51808453Y-57801124D01*
X51862856Y-57844965D01*
X51884921Y-57911259D01*
X51867642Y-57978959D01*
X51816504Y-58026569D01*
X51808455Y-58030245D01*
X51773185Y-58044855D01*
X51773183Y-58044856D01*
X51739447Y-58058828D01*
X51739446Y-58058829D01*
X51676012Y-58122264D01*
X51676008Y-58122266D01*
X51660098Y-58138178D01*
X51598776Y-58171665D01*
X51572414Y-58174500D01*
X49605851Y-58174500D01*
X49538812Y-58154815D01*
X49518170Y-58138181D01*
X48729674Y-57349685D01*
X48696189Y-57288362D01*
X48701173Y-57218670D01*
X48743045Y-57162737D01*
X48750317Y-57157688D01*
X48755706Y-57154224D01*
X48755708Y-57154224D01*
X48870736Y-57080301D01*
X48919088Y-57024499D01*
X48952843Y-56985544D01*
X49011621Y-56947769D01*
X49046556Y-56942746D01*
X50845297Y-56942746D01*
X50912336Y-56962431D01*
G37*
%TD.AperFunction*%
%TA.AperFunction,Conductor*%
G36*
X62226216Y-57045185D02*
G01*
X62271971Y-57097989D01*
X62281915Y-57167147D01*
X62252890Y-57230703D01*
X62246858Y-57237181D01*
X61845858Y-57638181D01*
X61784535Y-57671666D01*
X61758177Y-57674500D01*
X61264808Y-57674500D01*
X61197769Y-57654815D01*
X61152014Y-57602011D01*
X61142070Y-57532853D01*
X61152013Y-57498990D01*
X61157797Y-57486325D01*
X61158246Y-57485342D01*
X61177705Y-57350000D01*
X61158246Y-57214658D01*
X61152012Y-57201009D01*
X61142070Y-57131851D01*
X61171096Y-57068296D01*
X61229875Y-57030522D01*
X61264808Y-57025500D01*
X62159177Y-57025500D01*
X62226216Y-57045185D01*
G37*
%TD.AperFunction*%
%TA.AperFunction,Conductor*%
G36*
X55467272Y-56273003D02*
G01*
X55487914Y-56289637D01*
X55668941Y-56470664D01*
X55668944Y-56470668D01*
X55739448Y-56541172D01*
X55803547Y-56567721D01*
X55822327Y-56575500D01*
X56263521Y-56575500D01*
X56263529Y-56575501D01*
X56277963Y-56575501D01*
X56367670Y-56575501D01*
X56367673Y-56575501D01*
X56429236Y-56550000D01*
X56450554Y-56541170D01*
X56479905Y-56511819D01*
X56541228Y-56478334D01*
X56567586Y-56475500D01*
X56978051Y-56475500D01*
X57045090Y-56495185D01*
X57065732Y-56511819D01*
X57246759Y-56692846D01*
X57246762Y-56692850D01*
X57317266Y-56763354D01*
X57381365Y-56789903D01*
X57400145Y-56797682D01*
X57664749Y-56797682D01*
X57731788Y-56817367D01*
X57777543Y-56870171D01*
X57787487Y-56939329D01*
X57758462Y-57002885D01*
X57752430Y-57009363D01*
X57673612Y-57088181D01*
X57612289Y-57121666D01*
X57585931Y-57124500D01*
X56694768Y-57124500D01*
X56627729Y-57104815D01*
X56607087Y-57088181D01*
X56577734Y-57058828D01*
X56548308Y-57046640D01*
X56543997Y-57044855D01*
X56543995Y-57044854D01*
X56494857Y-57024499D01*
X56494855Y-57024499D01*
X56405145Y-57024499D01*
X56390711Y-57024499D01*
X56390703Y-57024500D01*
X55926479Y-57024500D01*
X55926471Y-57024499D01*
X55912037Y-57024499D01*
X55822327Y-57024499D01*
X55822324Y-57024499D01*
X55773187Y-57044854D01*
X55773185Y-57044855D01*
X55769889Y-57046220D01*
X55739447Y-57058828D01*
X55739446Y-57058829D01*
X55701504Y-57096772D01*
X55640181Y-57130257D01*
X55613823Y-57133091D01*
X55103359Y-57133091D01*
X55036320Y-57113406D01*
X55015678Y-57096772D01*
X54977734Y-57058828D01*
X54948308Y-57046640D01*
X54943997Y-57044855D01*
X54943995Y-57044854D01*
X54894857Y-57024499D01*
X54894855Y-57024499D01*
X54805145Y-57024499D01*
X54790711Y-57024499D01*
X54790703Y-57024500D01*
X54326479Y-57024500D01*
X54326471Y-57024499D01*
X54312037Y-57024499D01*
X54222327Y-57024499D01*
X54222324Y-57024499D01*
X54173187Y-57044854D01*
X54173185Y-57044855D01*
X54169889Y-57046220D01*
X54139447Y-57058828D01*
X54139446Y-57058829D01*
X54101504Y-57096772D01*
X54040181Y-57130257D01*
X54013823Y-57133091D01*
X53503359Y-57133091D01*
X53436320Y-57113406D01*
X53415678Y-57096772D01*
X53377734Y-57058828D01*
X53348308Y-57046640D01*
X53343997Y-57044855D01*
X53343995Y-57044854D01*
X53294857Y-57024499D01*
X53294855Y-57024499D01*
X53205145Y-57024499D01*
X53190711Y-57024499D01*
X53190703Y-57024500D01*
X52622327Y-57024500D01*
X52622325Y-57024500D01*
X52622323Y-57024501D01*
X52539448Y-57058827D01*
X52539446Y-57058829D01*
X52504442Y-57093834D01*
X52476012Y-57122264D01*
X52476011Y-57122265D01*
X52367574Y-57230703D01*
X52287914Y-57310363D01*
X52226591Y-57343848D01*
X52200233Y-57346682D01*
X51989767Y-57346682D01*
X51922728Y-57326997D01*
X51902086Y-57310363D01*
X51428904Y-56837181D01*
X51395419Y-56775858D01*
X51400403Y-56706166D01*
X51442275Y-56650233D01*
X51507739Y-56625816D01*
X51516585Y-56625500D01*
X51657885Y-56625500D01*
X51657893Y-56625501D01*
X51672327Y-56625501D01*
X51762034Y-56625501D01*
X51762037Y-56625501D01*
X51823600Y-56600000D01*
X51844918Y-56591170D01*
X51908352Y-56527736D01*
X51908352Y-56527735D01*
X51924269Y-56511819D01*
X51985592Y-56478334D01*
X52011950Y-56475500D01*
X52178050Y-56475500D01*
X52245089Y-56495185D01*
X52265731Y-56511819D01*
X52295084Y-56541172D01*
X52359183Y-56567721D01*
X52377963Y-56575500D01*
X52467672Y-56575500D01*
X53063521Y-56575500D01*
X53063529Y-56575501D01*
X53077963Y-56575501D01*
X53167670Y-56575501D01*
X53167673Y-56575501D01*
X53229236Y-56550000D01*
X53250554Y-56541170D01*
X53313988Y-56477736D01*
X53313988Y-56477735D01*
X53329905Y-56461819D01*
X53391228Y-56428334D01*
X53417586Y-56425500D01*
X53728051Y-56425500D01*
X53795090Y-56445185D01*
X53815732Y-56461819D01*
X53824577Y-56470664D01*
X53824580Y-56470668D01*
X53831648Y-56477736D01*
X53895082Y-56541170D01*
X53916396Y-56549998D01*
X53916398Y-56550000D01*
X53967400Y-56571125D01*
X53977963Y-56575501D01*
X53977966Y-56575501D01*
X54082107Y-56575501D01*
X54082115Y-56575500D01*
X54790703Y-56575500D01*
X54790711Y-56575501D01*
X54805145Y-56575501D01*
X54894852Y-56575501D01*
X54894855Y-56575501D01*
X54956418Y-56550000D01*
X54977736Y-56541170D01*
X55041170Y-56477736D01*
X55041170Y-56477735D01*
X55058606Y-56460299D01*
X55058607Y-56460296D01*
X55229269Y-56289634D01*
X55290592Y-56256152D01*
X55316949Y-56253318D01*
X55400233Y-56253318D01*
X55467272Y-56273003D01*
G37*
%TD.AperFunction*%
%TA.AperFunction,Conductor*%
G36*
X86222272Y-56445185D02*
G01*
X86242914Y-56461819D01*
X86743914Y-56962819D01*
X86777399Y-57024142D01*
X86772415Y-57093834D01*
X86730543Y-57149767D01*
X86665079Y-57174184D01*
X86656233Y-57174500D01*
X81369031Y-57174500D01*
X81301992Y-57154815D01*
X81281350Y-57138181D01*
X80780350Y-56637181D01*
X80746865Y-56575858D01*
X80751849Y-56506166D01*
X80793721Y-56450233D01*
X80859185Y-56425816D01*
X80868031Y-56425500D01*
X86155233Y-56425500D01*
X86222272Y-56445185D01*
G37*
%TD.AperFunction*%
%TA.AperFunction,Conductor*%
G36*
X90072272Y-55845185D02*
G01*
X90092914Y-55861819D01*
X90596019Y-56364924D01*
X90629504Y-56426247D01*
X90631076Y-56470252D01*
X90620880Y-56541170D01*
X90619610Y-56550000D01*
X90625393Y-56590220D01*
X90639068Y-56685337D01*
X90639069Y-56685343D01*
X90645302Y-56698990D01*
X90655245Y-56768149D01*
X90626219Y-56831704D01*
X90567440Y-56869478D01*
X90532507Y-56874500D01*
X87344767Y-56874500D01*
X87277728Y-56854815D01*
X87257086Y-56838181D01*
X86508611Y-56089706D01*
X86508610Y-56089704D01*
X86456087Y-56037180D01*
X86422603Y-55975857D01*
X86427588Y-55906165D01*
X86469460Y-55850232D01*
X86534924Y-55825816D01*
X86543769Y-55825500D01*
X90005233Y-55825500D01*
X90072272Y-55845185D01*
G37*
%TD.AperFunction*%
%TA.AperFunction,Conductor*%
G36*
X94850534Y-55745185D02*
G01*
X94896289Y-55797989D01*
X94906233Y-55867147D01*
X94877208Y-55930703D01*
X94871176Y-55937181D01*
X94465855Y-56342501D01*
X94404532Y-56375986D01*
X94354631Y-56374207D01*
X94354408Y-56375762D01*
X94345630Y-56374500D01*
X94208896Y-56374500D01*
X94208895Y-56374500D01*
X94077703Y-56413021D01*
X93962676Y-56486942D01*
X93962672Y-56486946D01*
X93873135Y-56590278D01*
X93873130Y-56590285D01*
X93816333Y-56714654D01*
X93816332Y-56714657D01*
X93816332Y-56714658D01*
X93808738Y-56767481D01*
X93808642Y-56768146D01*
X93779618Y-56831702D01*
X93720840Y-56869477D01*
X93685904Y-56874500D01*
X91667493Y-56874500D01*
X91600454Y-56854815D01*
X91554699Y-56802011D01*
X91544755Y-56732853D01*
X91554698Y-56698990D01*
X91557504Y-56692846D01*
X91560931Y-56685342D01*
X91580390Y-56550000D01*
X91579120Y-56541170D01*
X91568924Y-56470249D01*
X91578868Y-56401091D01*
X91603980Y-56364924D01*
X92207086Y-55761819D01*
X92268409Y-55728334D01*
X92294767Y-55725500D01*
X94783495Y-55725500D01*
X94850534Y-55745185D01*
G37*
%TD.AperFunction*%
%TA.AperFunction,Conductor*%
G36*
X57845090Y-55495185D02*
G01*
X57865732Y-55511819D01*
X58258039Y-55904126D01*
X58291524Y-55965449D01*
X58286540Y-56035141D01*
X58258039Y-56079488D01*
X58027164Y-56310364D01*
X57965844Y-56343848D01*
X57939485Y-56346682D01*
X57589767Y-56346682D01*
X57522728Y-56326997D01*
X57502086Y-56310363D01*
X57331428Y-56139705D01*
X57313988Y-56122264D01*
X57250554Y-56058830D01*
X57250553Y-56058829D01*
X57226275Y-56048772D01*
X57226275Y-56048771D01*
X57167676Y-56024500D01*
X57167674Y-56024499D01*
X57167673Y-56024499D01*
X57077963Y-56024499D01*
X57063529Y-56024499D01*
X57063521Y-56024500D01*
X56467672Y-56024500D01*
X56377963Y-56024500D01*
X56377961Y-56024500D01*
X56377959Y-56024501D01*
X56295084Y-56058827D01*
X56295082Y-56058829D01*
X56265731Y-56088181D01*
X56204408Y-56121666D01*
X56178050Y-56124500D01*
X56011949Y-56124500D01*
X55944910Y-56104815D01*
X55924268Y-56088181D01*
X55753610Y-55917523D01*
X55736170Y-55900082D01*
X55672736Y-55836648D01*
X55672735Y-55836647D01*
X55648461Y-55826591D01*
X55648461Y-55826592D01*
X55581546Y-55798875D01*
X55527143Y-55755034D01*
X55505078Y-55688740D01*
X55522357Y-55621041D01*
X55573494Y-55573430D01*
X55581526Y-55569762D01*
X55626278Y-55551225D01*
X55650554Y-55541170D01*
X55679905Y-55511819D01*
X55741228Y-55478334D01*
X55767586Y-55475500D01*
X57778051Y-55475500D01*
X57845090Y-55495185D01*
G37*
%TD.AperFunction*%
%TA.AperFunction,Conductor*%
G36*
X51644454Y-55445185D02*
G01*
X51665096Y-55461819D01*
X51673941Y-55470664D01*
X51673944Y-55470668D01*
X51681012Y-55477736D01*
X51744446Y-55541170D01*
X51768719Y-55551224D01*
X51768720Y-55551225D01*
X51768721Y-55551225D01*
X51827327Y-55575501D01*
X51827328Y-55575501D01*
X51931471Y-55575501D01*
X51931479Y-55575500D01*
X52507885Y-55575500D01*
X52507893Y-55575501D01*
X52522327Y-55575501D01*
X52612035Y-55575501D01*
X52612037Y-55575501D01*
X52670642Y-55551225D01*
X52694918Y-55541170D01*
X52758352Y-55477736D01*
X52758352Y-55477735D01*
X52774269Y-55461819D01*
X52835592Y-55428334D01*
X52861950Y-55425500D01*
X52928051Y-55425500D01*
X52995090Y-55445185D01*
X53015732Y-55461819D01*
X53074577Y-55520664D01*
X53074580Y-55520668D01*
X53081648Y-55527736D01*
X53145082Y-55591170D01*
X53145087Y-55591172D01*
X53157804Y-55596440D01*
X53157805Y-55596440D01*
X53227961Y-55625500D01*
X53227962Y-55625500D01*
X53227964Y-55625501D01*
X53227965Y-55625501D01*
X53332107Y-55625501D01*
X53332115Y-55625500D01*
X53940703Y-55625500D01*
X53940711Y-55625501D01*
X53955145Y-55625501D01*
X54044854Y-55625501D01*
X54044855Y-55625501D01*
X54115015Y-55596439D01*
X54127736Y-55591170D01*
X54191170Y-55527736D01*
X54191170Y-55527735D01*
X54207087Y-55511819D01*
X54268410Y-55478334D01*
X54294768Y-55475500D01*
X54705232Y-55475500D01*
X54772271Y-55495185D01*
X54792913Y-55511819D01*
X54822266Y-55541172D01*
X54884979Y-55567147D01*
X54905145Y-55575500D01*
X55051523Y-55575500D01*
X55118562Y-55595185D01*
X55164317Y-55647989D01*
X55174261Y-55717147D01*
X55145236Y-55780703D01*
X55098975Y-55814061D01*
X55044448Y-55836645D01*
X55044446Y-55836647D01*
X55009277Y-55871817D01*
X54981012Y-55900082D01*
X54981011Y-55900083D01*
X54872265Y-56008830D01*
X54792914Y-56088181D01*
X54731591Y-56121666D01*
X54705233Y-56124500D01*
X54167586Y-56124500D01*
X54100547Y-56104815D01*
X54079904Y-56088181D01*
X54063988Y-56072264D01*
X54000554Y-56008830D01*
X54000553Y-56008829D01*
X53976275Y-55998772D01*
X53976275Y-55998771D01*
X53917676Y-55974500D01*
X53917674Y-55974499D01*
X53917673Y-55974499D01*
X53827963Y-55974499D01*
X53813529Y-55974499D01*
X53813521Y-55974500D01*
X53332115Y-55974500D01*
X53332107Y-55974499D01*
X53317673Y-55974499D01*
X53227963Y-55974499D01*
X53227961Y-55974499D01*
X53193631Y-55988719D01*
X53169357Y-55998774D01*
X53169355Y-55998774D01*
X53145082Y-56008829D01*
X53081648Y-56072264D01*
X53081644Y-56072266D01*
X53065734Y-56088178D01*
X53004412Y-56121665D01*
X52978050Y-56124500D01*
X52567587Y-56124500D01*
X52500548Y-56104815D01*
X52479906Y-56088181D01*
X52450555Y-56058830D01*
X52426275Y-56048772D01*
X52426275Y-56048771D01*
X52367676Y-56024500D01*
X52367674Y-56024499D01*
X52367673Y-56024499D01*
X52277963Y-56024499D01*
X52263529Y-56024499D01*
X52263521Y-56024500D01*
X51926479Y-56024500D01*
X51926471Y-56024499D01*
X51912037Y-56024499D01*
X51822327Y-56024499D01*
X51822325Y-56024499D01*
X51791712Y-56037180D01*
X51763721Y-56048774D01*
X51763719Y-56048774D01*
X51739446Y-56058829D01*
X51676012Y-56122264D01*
X51676008Y-56122266D01*
X51660098Y-56138178D01*
X51598776Y-56171665D01*
X51572414Y-56174500D01*
X49944768Y-56174500D01*
X49877729Y-56154815D01*
X49857087Y-56138181D01*
X49618988Y-55900082D01*
X49356085Y-55637180D01*
X49322601Y-55575858D01*
X49327585Y-55506167D01*
X49369456Y-55450233D01*
X49434921Y-55425816D01*
X49443767Y-55425500D01*
X51577415Y-55425500D01*
X51644454Y-55445185D01*
G37*
%TD.AperFunction*%
%TA.AperFunction,Conductor*%
G36*
X69773744Y-52645185D02*
G01*
X69794386Y-52661819D01*
X71053231Y-53920664D01*
X71053234Y-53920668D01*
X71060302Y-53927736D01*
X71123736Y-53991170D01*
X71148009Y-54001224D01*
X71148010Y-54001225D01*
X71148011Y-54001225D01*
X71206617Y-54025501D01*
X71206618Y-54025501D01*
X71310761Y-54025501D01*
X71310769Y-54025500D01*
X75728025Y-54025500D01*
X75795064Y-54045185D01*
X75815706Y-54061819D01*
X76442066Y-54688179D01*
X76475551Y-54749502D01*
X76470567Y-54819194D01*
X76428695Y-54875127D01*
X76363231Y-54899544D01*
X76354385Y-54899860D01*
X62601118Y-54899860D01*
X62511409Y-54899860D01*
X62511407Y-54899860D01*
X62511405Y-54899861D01*
X62428530Y-54934187D01*
X62428528Y-54934189D01*
X62024538Y-55338181D01*
X61963215Y-55371666D01*
X61936857Y-55374500D01*
X61543767Y-55374500D01*
X61476728Y-55354815D01*
X61430973Y-55302011D01*
X61421029Y-55232853D01*
X61450054Y-55169297D01*
X61456086Y-55162819D01*
X61922511Y-54696395D01*
X62557087Y-54061819D01*
X62618410Y-54028334D01*
X62644768Y-54025500D01*
X65499684Y-54025500D01*
X65499692Y-54025501D01*
X65514126Y-54025501D01*
X65603834Y-54025501D01*
X65603836Y-54025501D01*
X65662441Y-54001225D01*
X65686717Y-53991170D01*
X65750151Y-53927736D01*
X65750151Y-53927735D01*
X65767589Y-53910297D01*
X65767590Y-53910294D01*
X67016067Y-52661819D01*
X67077390Y-52628334D01*
X67103748Y-52625500D01*
X69706705Y-52625500D01*
X69773744Y-52645185D01*
G37*
%TD.AperFunction*%
%TA.AperFunction,Conductor*%
G36*
X57422272Y-54495185D02*
G01*
X57442914Y-54511819D01*
X57743914Y-54812819D01*
X57777399Y-54874142D01*
X57772415Y-54943834D01*
X57730543Y-54999767D01*
X57665079Y-55024184D01*
X57656233Y-55024500D01*
X55667672Y-55024500D01*
X55577963Y-55024500D01*
X55577961Y-55024500D01*
X55577959Y-55024501D01*
X55495084Y-55058827D01*
X55495082Y-55058829D01*
X55465731Y-55088181D01*
X55404408Y-55121666D01*
X55378050Y-55124500D01*
X55094768Y-55124500D01*
X55027729Y-55104815D01*
X55007087Y-55088181D01*
X54977737Y-55058831D01*
X54977736Y-55058830D01*
X54943995Y-55044854D01*
X54894855Y-55024499D01*
X54805145Y-55024499D01*
X54790711Y-55024499D01*
X54790703Y-55024500D01*
X54209297Y-55024500D01*
X54209289Y-55024499D01*
X54194855Y-55024499D01*
X54105145Y-55024499D01*
X54105144Y-55024499D01*
X54056005Y-55044854D01*
X54056004Y-55044853D01*
X54022265Y-55058829D01*
X54022262Y-55058831D01*
X53958830Y-55122264D01*
X53958826Y-55122266D01*
X53942916Y-55138178D01*
X53881594Y-55171665D01*
X53855232Y-55174500D01*
X53417585Y-55174500D01*
X53350546Y-55154815D01*
X53329904Y-55138181D01*
X53281428Y-55089705D01*
X53263988Y-55072264D01*
X53200554Y-55008830D01*
X53200553Y-55008829D01*
X53176275Y-54998772D01*
X53176275Y-54998771D01*
X53117676Y-54974500D01*
X53117674Y-54974499D01*
X53117673Y-54974499D01*
X53027963Y-54974499D01*
X53013529Y-54974499D01*
X53013521Y-54974500D01*
X52776479Y-54974500D01*
X52776471Y-54974499D01*
X52762037Y-54974499D01*
X52672327Y-54974499D01*
X52672325Y-54974499D01*
X52637995Y-54988719D01*
X52613721Y-54998774D01*
X52613719Y-54998774D01*
X52589446Y-55008829D01*
X52526012Y-55072264D01*
X52526008Y-55072266D01*
X52510098Y-55088178D01*
X52448776Y-55121665D01*
X52422414Y-55124500D01*
X52016950Y-55124500D01*
X51949911Y-55104815D01*
X51929268Y-55088181D01*
X51913352Y-55072264D01*
X51849918Y-55008830D01*
X51849917Y-55008829D01*
X51825639Y-54998772D01*
X51825639Y-54998771D01*
X51767040Y-54974500D01*
X51767038Y-54974499D01*
X51767037Y-54974499D01*
X51677327Y-54974499D01*
X51662893Y-54974499D01*
X51662885Y-54974500D01*
X50443768Y-54974500D01*
X50376729Y-54954815D01*
X50330974Y-54902011D01*
X50321030Y-54832853D01*
X50350055Y-54769297D01*
X50356087Y-54762819D01*
X50380725Y-54738181D01*
X50391170Y-54727736D01*
X50391170Y-54727735D01*
X50408606Y-54710299D01*
X50408607Y-54710296D01*
X50607087Y-54511816D01*
X50668410Y-54478334D01*
X50694767Y-54475500D01*
X57355233Y-54475500D01*
X57422272Y-54495185D01*
G37*
%TD.AperFunction*%
%TA.AperFunction,Conductor*%
G36*
X150013944Y-50019685D02*
G01*
X150038656Y-50040587D01*
X150757765Y-50831606D01*
X150767252Y-50842041D01*
X150797783Y-50904888D01*
X150799500Y-50925453D01*
X150799500Y-53675500D01*
X150779815Y-53742539D01*
X150727011Y-53788294D01*
X150675500Y-53799500D01*
X146124000Y-53799500D01*
X146056961Y-53779815D01*
X146011206Y-53727011D01*
X146000000Y-53675500D01*
X146000000Y-52104404D01*
X146019685Y-52037365D01*
X146056960Y-52000089D01*
X146114589Y-51963055D01*
X146204130Y-51859718D01*
X146260931Y-51735342D01*
X146280390Y-51600000D01*
X146260931Y-51464658D01*
X146243048Y-51425500D01*
X146204132Y-51340285D01*
X146204129Y-51340281D01*
X146120440Y-51243698D01*
X146091417Y-51180145D01*
X146101361Y-51110986D01*
X146120436Y-51081303D01*
X146204130Y-50984715D01*
X146260931Y-50860339D01*
X146280390Y-50724997D01*
X146260931Y-50589655D01*
X146228201Y-50517987D01*
X146204132Y-50465282D01*
X146204127Y-50465275D01*
X146114590Y-50361943D01*
X146114589Y-50361942D01*
X146056961Y-50324907D01*
X146011206Y-50272103D01*
X146000000Y-50220591D01*
X146000000Y-50124000D01*
X146019685Y-50056961D01*
X146072489Y-50011206D01*
X146124000Y-50000000D01*
X149946905Y-50000000D01*
X150013944Y-50019685D01*
G37*
%TD.AperFunction*%
%TD*%
%TA.AperFunction,Conductor*%
%TO.N,VCC*%
G36*
X72603537Y-65685871D02*
G01*
X72618408Y-65697091D01*
X73478022Y-66453551D01*
X73515343Y-66512614D01*
X73514808Y-66582482D01*
X73482270Y-66635806D01*
X73054728Y-67048961D01*
X72992841Y-67081391D01*
X72923245Y-67075215D01*
X72882759Y-67049314D01*
X72872798Y-67039767D01*
X72840265Y-66987299D01*
X72810651Y-66892725D01*
X72810651Y-66892724D01*
X72810650Y-66892723D01*
X72810650Y-66892721D01*
X72784142Y-66844176D01*
X72784141Y-66844176D01*
X72766076Y-66811093D01*
X72765256Y-66809513D01*
X72765036Y-66809226D01*
X72761973Y-66805234D01*
X72751358Y-66792300D01*
X72740661Y-66780103D01*
X72729236Y-66767904D01*
X72726810Y-66765478D01*
X72712441Y-66748237D01*
X72672315Y-66690104D01*
X72554072Y-66585351D01*
X72554067Y-66585348D01*
X72547901Y-66581092D01*
X72548141Y-66580743D01*
X72525176Y-66563844D01*
X72147787Y-66186455D01*
X72141163Y-66180250D01*
X72135435Y-66174521D01*
X72129240Y-66167907D01*
X71947028Y-65985695D01*
X71913543Y-65924372D01*
X71918527Y-65854680D01*
X71948678Y-65808713D01*
X72060612Y-65700883D01*
X72122550Y-65668549D01*
X72146641Y-65666186D01*
X72536498Y-65666186D01*
X72603537Y-65685871D01*
G37*
%TD.AperFunction*%
%TD*%
%TA.AperFunction,Conductor*%
%TO.N,+5VL*%
G36*
X71696013Y-66096013D02*
G01*
X71948570Y-66348570D01*
X71955195Y-66356124D01*
X71959566Y-66360495D01*
X71967118Y-66367118D01*
X72548570Y-66948570D01*
X72559267Y-66960767D01*
X72562330Y-66964759D01*
X72559896Y-66966626D01*
X72586404Y-67015171D01*
X72586830Y-67065847D01*
X72519936Y-67400318D01*
X72487486Y-67462195D01*
X72426734Y-67496706D01*
X72398344Y-67500000D01*
X72147583Y-67500000D01*
X72080544Y-67480315D01*
X72064631Y-67468168D01*
X71188723Y-66679850D01*
X71152062Y-66620372D01*
X71153376Y-66550515D01*
X71176413Y-66508304D01*
X71513075Y-66104309D01*
X71571112Y-66065412D01*
X71640969Y-66064066D01*
X71696013Y-66096013D01*
G37*
%TD.AperFunction*%
%TD*%
%TA.AperFunction,Conductor*%
%TO.N,GND*%
G36*
X78865470Y-65820185D02*
G01*
X78886112Y-65836819D01*
X79000000Y-65950707D01*
X79000000Y-68112166D01*
X78945413Y-68126793D01*
X78945410Y-68126794D01*
X78854085Y-68179521D01*
X78270426Y-68763181D01*
X78209103Y-68796666D01*
X78182745Y-68799500D01*
X75011125Y-68799500D01*
X75081099Y-66280388D01*
X75524669Y-65836819D01*
X75585992Y-65803334D01*
X75612350Y-65800500D01*
X78798431Y-65800500D01*
X78865470Y-65820185D01*
G37*
%TD.AperFunction*%
%TD*%
%TA.AperFunction,Conductor*%
%TO.N,+5VL*%
G36*
X145143039Y-59219685D02*
G01*
X145188794Y-59272489D01*
X145200000Y-59324000D01*
X145200000Y-64476000D01*
X145180315Y-64543039D01*
X145127511Y-64588794D01*
X145076000Y-64600000D01*
X142724000Y-64600000D01*
X142656961Y-64580315D01*
X142611206Y-64527511D01*
X142600000Y-64476000D01*
X142600000Y-63924000D01*
X142619685Y-63856961D01*
X142672489Y-63811206D01*
X142724000Y-63800000D01*
X144000000Y-63800000D01*
X144000000Y-60000000D01*
X142893511Y-60000000D01*
X142826473Y-59980316D01*
X142799565Y-59963024D01*
X142799558Y-59963020D01*
X142668368Y-59924500D01*
X142668367Y-59924500D01*
X142531633Y-59924500D01*
X142524000Y-59924500D01*
X142456961Y-59904815D01*
X142411206Y-59852011D01*
X142400000Y-59800500D01*
X142400000Y-59324000D01*
X142419685Y-59256961D01*
X142472489Y-59211206D01*
X142524000Y-59200000D01*
X145076000Y-59200000D01*
X145143039Y-59219685D01*
G37*
%TD.AperFunction*%
%TD*%
M02*
