%TF.GenerationSoftware,KiCad,Pcbnew,8.0.3*%
%TF.CreationDate,2025-03-20T13:05:17+01:00*%
%TF.ProjectId,Methanesense,4d657468-616e-4657-9365-6e73652e6b69,v2.0.0*%
%TF.SameCoordinates,Original*%
%TF.FileFunction,Soldermask,Bot*%
%TF.FilePolarity,Negative*%
%FSLAX46Y46*%
G04 Gerber Fmt 4.6, Leading zero omitted, Abs format (unit mm)*
G04 Created by KiCad (PCBNEW 8.0.3) date 2025-03-20 13:05:17*
%MOMM*%
%LPD*%
G01*
G04 APERTURE LIST*
%ADD10R,1.700000X1.700000*%
%ADD11O,1.700000X1.700000*%
%ADD12C,0.650000*%
%ADD13O,2.100000X1.000000*%
%ADD14O,1.600000X1.000000*%
%ADD15C,1.600000*%
%ADD16C,0.990600*%
%ADD17R,2.400000X0.740000*%
%ADD18C,0.787400*%
%ADD19C,3.200000*%
%ADD20R,3.500000X3.500000*%
%ADD21C,3.500000*%
G04 APERTURE END LIST*
D10*
%TO.C,J5*%
X106840000Y-51600000D03*
D11*
X109380000Y-51600000D03*
X111920000Y-51600000D03*
X114460000Y-51600000D03*
X117000000Y-51600000D03*
X119540000Y-51600000D03*
X122080000Y-51600000D03*
X124620000Y-51600000D03*
X127160000Y-51600000D03*
X129700000Y-51600000D03*
%TD*%
D12*
%TO.C,U3*%
X78015686Y-68200000D03*
X78015686Y-67200000D03*
X78015686Y-66200000D03*
X77015686Y-68200000D03*
X77015686Y-67200000D03*
X77015686Y-66200000D03*
X76015686Y-68200000D03*
X76015686Y-67200000D03*
X76015686Y-66200000D03*
%TD*%
%TO.C,J1*%
X145895000Y-64780000D03*
X145895000Y-59000000D03*
D13*
X145395000Y-66210000D03*
D14*
X149575000Y-66210000D03*
D13*
X145395000Y-57570000D03*
D14*
X149575000Y-57570000D03*
%TD*%
D15*
%TO.C,S1*%
X147000000Y-72400000D03*
X143400000Y-72400000D03*
X143400000Y-68800000D03*
X147000000Y-68800000D03*
%TD*%
D16*
%TO.C,J6*%
X45968000Y-58000000D03*
X46984000Y-65620000D03*
X48000000Y-58000000D03*
D17*
X45034000Y-64350000D03*
D18*
X46349000Y-64350000D03*
X47619000Y-64350000D03*
D17*
X48934000Y-64350000D03*
X45034000Y-63080000D03*
D18*
X46349000Y-63080000D03*
X47619000Y-63080000D03*
D17*
X48934000Y-63080000D03*
X45034000Y-61810000D03*
D18*
X46349000Y-61810000D03*
X47619000Y-61810000D03*
D17*
X48934000Y-61810000D03*
X45034000Y-60540000D03*
D18*
X46349000Y-60540000D03*
X47619000Y-60540000D03*
D17*
X48934000Y-60540000D03*
X45034000Y-59270000D03*
D18*
X46349000Y-59270000D03*
X47619000Y-59270000D03*
D17*
X48934000Y-59270000D03*
%TD*%
D19*
%TO.C,BT1*%
X129150000Y-63250000D03*
D20*
X64895000Y-63250000D03*
D21*
X136895000Y-63250000D03*
%TD*%
M02*
